<?xml version="1.0" encoding="utf-8"?>
<!-- Generator: Adobe Illustrator 23.0.0, SVG Export Plug-In . SVG Version: 6.00 Build 0)  -->
<svg version="1.1" id="Empty_Glass" xmlns="http://www.w3.org/2000/svg" xmlns:xlink="http://www.w3.org/1999/xlink" x="0px"
	 y="0px" viewBox="0 0 29.1 29.4" style="enable-background:new 0 0 29.1 29.4;" xml:space="preserve">
<style type="text/css">
	.st0{fill:none;stroke:#000000;stroke-width:1.8;stroke-linecap:round;}
</style>
<g id="g2096" transform="translate(10.395 3.75)">
	<path id="path2098" d="M-8.8-2.6l3.1,27h19.7l3.2-27H-8.8 M-8.8-3.8h26c0.8,0,1.5,0.5,1.5,1.2c0,0.1,0,0.1,0,0.1l-3.2,27
		c-0.1,0.6-0.7,1.1-1.5,1.1H-5.8c-0.8,0-1.4-0.5-1.5-1.1l-3.1-27C-10.5-3.1-9.9-3.6-9-3.7C-9-3.8-8.9-3.8-8.8-3.8z"/>
</g>
<g id="g2100" transform="translate(18.836 13.147)">
	<path id="path2102" class="st0" d="M-13.1-8.5l1.1,10"/>
</g>
<g id="g2104" transform="translate(21.356 44.372)">
	<path id="path2106" class="st0" d="M-14-25.6l0.5,6.1"/>
</g>
</svg>
