<?xml version="1.0" encoding="utf-8"?>
<!-- Generator: Adobe Illustrator 23.0.0, SVG Export Plug-In . SVG Version: 6.00 Build 0)  -->
<svg version="1.1" id="Empty_Glass" xmlns="http://www.w3.org/2000/svg" xmlns:xlink="http://www.w3.org/1999/xlink" x="0px"
	 y="0px" viewBox="0 0 62.3 29.4" style="enable-background:new 0 0 62.3 29.4;" xml:space="preserve">
<style type="text/css">
	.st0{fill:#FF5135;}
	.st1{fill:none;stroke:#000000;stroke-width:1.8;stroke-linecap:round;}
</style>
<rect x="3.7" y="20.2" class="st0" width="21.6" height="8"/>
<rect x="3" y="14.1" class="st0" width="23.1" height="9.5"/>
<rect x="1.5" y="4.6" class="st0" width="26" height="9.5"/>
<g id="g2096" transform="translate(10.395 3.75)">
	<path id="path2098" d="M-8.8-2.6l3.1,27h19.7l3.2-27H-8.8 M-8.8-3.8h26c0.8,0,1.5,0.5,1.5,1.2c0,0.1,0,0.1,0,0.1l-3.2,27
		c-0.1,0.6-0.7,1.1-1.5,1.1H-5.8c-0.8,0-1.4-0.5-1.5-1.1l-3.1-27C-10.5-3.1-9.9-3.6-9-3.7C-9-3.8-8.9-3.8-8.8-3.8z"/>
</g>
<g id="g2100" transform="translate(18.836 13.147)">
	<path id="path2102" class="st1" d="M-13.1-8.5l1.1,10"/>
</g>
<g id="g2104" transform="translate(21.356 44.372)">
	<path id="path2106" class="st1" d="M-14-25.6l0.5,6.1"/>
</g>
<rect x="36.9" y="20.2" class="st0" width="21.6" height="8"/>
<rect x="36.2" y="14.1" class="st0" width="23.1" height="9.5"/>
<rect x="34.8" y="4.6" class="st0" width="26" height="9.5"/>
<g id="g2096_1_" transform="translate(10.395 3.75)">
	<path id="path2098_1_" d="M24.4-2.6l3.1,27h19.7l3.2-27H24.4 M24.4-3.8h26c0.8,0,1.5,0.5,1.5,1.2c0,0.1,0,0.1,0,0.1l-3.2,27
		c-0.1,0.6-0.7,1.1-1.5,1.1H27.5c-0.8,0-1.4-0.5-1.5-1.1l-3.1-27c-0.1-0.6,0.5-1.2,1.3-1.2C24.3-3.8,24.3-3.8,24.4-3.8z"/>
</g>
<g id="g2100_1_" transform="translate(18.836 13.147)">
	<path id="path2102_1_" class="st1" d="M20.2-8.5l1.1,10"/>
</g>
<g id="g2104_1_" transform="translate(21.356 44.372)">
	<path id="path2106_1_" class="st1" d="M19.3-25.6l0.5,6.1"/>
</g>
</svg>
