<?xml version="1.0" encoding="utf-8"?>
<!-- Generator: Adobe Illustrator 23.0.0, SVG Export Plug-In . SVG Version: 6.00 Build 0)  -->
<svg version="1.1" id="Capa_1" xmlns="http://www.w3.org/2000/svg" xmlns:xlink="http://www.w3.org/1999/xlink" x="0px" y="0px"
	 viewBox="0 0 376 202" style="enable-background:new 0 0 376 202;" xml:space="preserve">
<style type="text/css">
	.st0{fill:#602929;stroke:#000000;stroke-width:3;stroke-miterlimit:10;}
	.st1{fill:#FFFFFF;}
	.st2{fill:#5C5C5C;}
	.st3{fill:none;stroke:#000000;}
	.st4{fill:#E0E0E0;}
	.st5{fill:#C9C8C7;}
	.st6{fill:#F4F4F4;}
	.st7{fill:#FF9F00;}
	.st8{fill:#FFB15C;}
	.st9{fill:#E28703;}
	.st10{fill:#616161;}
	.st11{fill:none;stroke:#000000;stroke-linecap:round;stroke-linejoin:round;stroke-miterlimit:10;}
	.st12{fill:#BF005B;stroke:#000000;stroke-linecap:round;stroke-linejoin:round;stroke-miterlimit:10;}
	.st13{fill:#7B3A3A;stroke:#000000;stroke-width:3;stroke-miterlimit:10;}
</style>
<rect x="1.5" y="51.5" class="st0" width="373" height="149"/>
<path id="Rectangle_18" class="st1" d="M170.5,47.7h9c0.6,0,1,0.4,1,1l0,0c0,0.6-0.4,1-1,1h-9c-0.6,0-1-0.4-1-1l0,0
	C169.5,48.1,169.9,47.7,170.5,47.7z"/>
<rect id="Rectangle_17" x="173.9" y="38.7" class="st1" width="2" height="9"/>
<rect id="Rectangle_15" x="169.9" y="24.7" class="st1" width="4" height="4"/>
<path id="Rectangle_16" class="st1" d="M176.9,24.7h3c0.6,0,1,0.4,1,1v2c0,0.6-0.4,1-1,1h-3c-0.6,0-1-0.4-1-1v-2
	C175.9,25.1,176.3,24.7,176.9,24.7z"/>
<path id="Rectangle_14" class="st1" d="M175.4,24.7L175.4,24.7c3,0,5.5,2.5,5.5,5.5v3c0,3-2.5,5.5-5.5,5.5l0,0c-3,0-5.5-2.5-5.5-5.5
	v-3C169.9,27.2,172.4,24.7,175.4,24.7z"/>
<g id="Rectangle_11" transform="translate(247 43)">
	<rect x="-0.1" class="st2" width="50" height="7"/>
	<rect x="0.4" y="0.5" class="st3" width="49" height="6"/>
</g>
<g id="Rectangle_12" transform="translate(267)">
	<rect x="-0.1" class="st2" width="11" height="44"/>
	<rect x="0.4" y="0.5" class="st3" width="10" height="43"/>
</g>
<g id="iconfinder_32_-_Harry_Potter_-_Colour_-_Butterbeer_2730343" transform="translate(292.236 26.887)">
	<g id="colour" transform="translate(7.579 0.439)">
		<path id="Path_17" class="st4" d="M15.9,6.9h-12c-0.7-0.8-0.7-3,1.2-3c0.1-1,1-1.8,2.1-1.6c0.2,0,0.4,0.1,0.6,0.2
			c0-1.8,3.8-1.8,3.8-0.4c1.5-0.7,2.3,0.3,2.3,1.1c1.1-0.4,2.3,0.4,1.9,1.5C16.7,5,17.1,6.1,15.9,6.9"/>
		<path id="Path_18" class="st4" d="M14.8,3.2L14.8,3.2L14.8,3.2z"/>
		<path id="Path_19" class="st5" d="M5,3.9C4.6,4.7,4.2,6.1,5,6.8H3.9C3.2,6.1,3.5,3.9,5,3.9z"/>
		<path id="Path_20" class="st6" d="M14.8,5c0.1-0.8-0.5-1-1.4-0.9C13.2,4.1,13,4,13,3.8c-0.2-0.7-0.9-1.2-1.6-1
			c-0.1,0-0.2,0-0.3,0.1c-0.2,0.1-0.4,0-0.5-0.2c-0.4-0.8-2-0.9-2.9-0.4c0-1.8,3.8-1.8,3.8-0.3c1.5-0.7,2.3,0.3,2.3,1.1
			c1.1-0.4,2.3,0.4,1.9,1.5c1.1,0.4,1.5,1.5,0.4,2.2l0,0c0-0.3-2.4,0.7-0.8-1C15.5,5.4,14.8,5.2,14.8,5z"/>
		<path id="Path_21" class="st6" d="M7.7,2.4L7.7,2.4L7.7,2.4L7.7,2.4z"/>
		<path id="Path_22" class="st7" d="M5.9,22.3h8c1.1,0,2-0.8,2-1.8V6.9h-12v13.6C3.9,21.5,4.8,22.4,5.9,22.3z"/>
		<path id="Path_23" class="st8" d="M14.4,7.3v13.2c0.1,1.2-0.8,2.1-2,2.2h1.5c1.2-0.1,2.1-1,2-2.2V7.3H14.4z"/>
		<path id="Path_24" class="st9" d="M5.4,6.9v13.2c-0.1,1.2,0.8,2.1,2,2.2H5.9c-1.2-0.1-2.1-1-2-2.2V6.9H5.4z"/>
		<path id="Path_25" class="st10" d="M3.9,10.9H1.3c-0.4,0-0.8,0.3-0.8,0.8v7.7c0,0.4,0.4,0.8,0.8,0.7h2.5v-1.5H2.5
			c-0.2,0-0.4-0.1-0.5-0.4v-5.5c0-0.2,0.2-0.4,0.5-0.4h1.4V10.9z"/>
		<path id="Rectangle_2" class="st9" d="M13.3,11.3L13.3,11.3c0.4,0,0.8,0.3,0.8,0.8v7.7c0,0.4-0.3,0.8-0.8,0.8l0,0
			c-0.4,0-0.8-0.3-0.8-0.8V12C12.5,11.6,12.9,11.3,13.3,11.3z"/>
		<path id="Rectangle_3" class="st9" d="M9.9,11.3L9.9,11.3c0.4,0,0.8,0.3,0.8,0.8v7.7c0,0.4-0.3,0.8-0.8,0.8l0,0
			c-0.4,0-0.8-0.3-0.8-0.8V12C9.1,11.6,9.5,11.3,9.9,11.3z"/>
		<path id="Rectangle_4" class="st9" d="M6.5,11.3L6.5,11.3c0.4,0,0.8,0.3,0.8,0.8v7.7c0,0.4-0.3,0.8-0.8,0.8l0,0
			c-0.4,0-0.8-0.3-0.8-0.8V12C5.8,11.6,6.1,11.3,6.5,11.3z"/>
		<path id="Path_26" class="st5" d="M12.9,5.8c0.2,0,0.4-0.2,0.4-0.4l0,0c-0.1-0.9-1-1.6-1.9-1.5C11.2,3.9,11,4,11,4.2
			c0,0.2,0.1,0.4,0.3,0.4l0,0C12,4.7,12.5,5,12.5,5.4C12.5,5.6,12.7,5.8,12.9,5.8L12.9,5.8z"/>
		<path id="Path_27" class="st5" d="M6.9,5.8c0.2,0,0.4-0.2,0.4-0.4l0,0C7.3,5.2,7.4,5,7.6,5l0,0C7.8,5,8,4.9,8,4.7
			c0-0.2-0.1-0.4-0.3-0.4l0,0C7,4.3,6.5,4.8,6.5,5.4C6.5,5.6,6.7,5.8,6.9,5.8L6.9,5.8z"/>
		<path id="Path_28" class="st5" d="M9.1,3.6c0.2,0,0.4-0.1,0.4-0.3c0.1-0.1,0.3-0.1,0.4-0.1c0.2,0,0.4-0.1,0.4-0.3S10.2,2.5,10,2.5
			l0,0c-0.7,0-1.1,0.3-1.1,0.7C8.8,3.4,8.9,3.6,9.1,3.6z"/>
	</g>
	<g id="Layer_1" transform="translate(7.203 0.113)">
		<path id="Path_29" d="M1.7,10.9h2.2V7.3C3.4,6.7,3.3,5.8,3.6,5c0.2-0.6,0.8-1,1.5-1.1c0.2-0.6,0.6-1.1,1.1-1.4s1-0.4,1.6-0.2
			c0-0.4,0.3-0.7,0.7-0.9C8.9,1.1,9.5,1,10,1c0.8-0.1,1.5,0.3,2,0.9c0.5-0.2,1.1-0.1,1.6,0.1c0.4,0.2,0.6,0.6,0.8,1
			c0.5,0,1.1,0.2,1.5,0.6c0.3,0.3,0.5,0.8,0.4,1.2c0.5,0.2,0.9,0.7,1,1.2c0,0.6-0.2,1.1-0.7,1.4v13.4c-0.1,1.3-1.1,2.3-2.4,2.2h-8
			c-1.3,0-2.3-0.9-2.4-2.2H1.7c-0.6,0-1.2-0.5-1.2-1.1V12C0.5,11.3,1.1,10.9,1.7,10.9z M4.6,9.4h11.3V7.6H4.6V9.4z M3.9,13.1h-1
			c-0.1,0-0.1,0-0.1,0v5.5h0.1h1V13.1z M15.8,5.4c-0.1,0-0.2-0.1-0.2-0.2c-0.1-0.1-0.1-0.2-0.1-0.3c0.1-0.3,0.1-0.6-0.2-0.8
			c-0.3-0.3-0.8-0.4-1.2-0.2c-0.1,0-0.2,0-0.3,0c-0.1-0.1-0.2-0.2-0.2-0.3c0-0.3-0.2-0.7-0.5-0.9c-0.4-0.2-0.9-0.2-1.3,0.1
			c-0.1,0.1-0.3,0.1-0.4,0c-0.1-0.1-0.2-0.2-0.2-0.3c0-0.4-0.7-0.7-1.3-0.7c-0.3-0.1-0.7,0-1,0.2C8.6,2.2,8.4,2.5,8.4,2.8
			c0,0.1-0.1,0.2-0.2,0.3C8.1,3.2,8,3.2,7.8,3.1C7.4,2.9,6.9,2.9,6.5,3.2C6.1,3.4,5.8,3.8,5.8,4.3c0,0.2-0.2,0.4-0.4,0.4l0,0
			C4.9,4.6,4.5,4.9,4.3,5.3C4.1,5.8,4.1,6.4,4.4,6.8h11.7c0.3-0.1,0.4-0.4,0.4-0.7C16.5,5.7,16.2,5.4,15.8,5.4L15.8,5.4z M6.3,22.3
			h8c0.9,0,1.6-0.6,1.6-1.5V10.2H4.6v10.7C4.7,21.7,5.4,22.3,6.3,22.3z M1.3,19.7c0,0.2,0.2,0.4,0.5,0.4H4v-0.7H3
			c-0.4,0-0.8-0.3-0.8-0.7v-5.5c0-0.4,0.4-0.8,0.8-0.7h1v-0.7H1.7c-0.2,0-0.4,0.1-0.5,0.4L1.3,19.7z"/>
		<path id="Path_30" d="M13.6,11.3c0.6,0,1.1,0.5,1.1,1.1v7.7c0,0.6-0.5,1.1-1.1,1.1s-1.1-0.5-1.1-1.1v-7.7
			C12.5,11.7,13,11.2,13.6,11.3z M13.3,20.1c0,0.2,0.2,0.4,0.4,0.4s0.3-0.2,0.4-0.4v-7.7c0-0.2-0.2-0.4-0.4-0.4s-0.3,0.2-0.4,0.4
			V20.1z"/>
		<path id="Path_31" d="M10.3,11.3c0.6,0,1.1,0.5,1.1,1.1v7.7c0,0.6-0.5,1.1-1.1,1.1s-1.1-0.5-1.1-1.1v-7.7
			C9.1,11.7,9.7,11.2,10.3,11.3z M9.9,20.1c0,0.2,0.2,0.4,0.4,0.4s0.3-0.2,0.4-0.4v-7.7c0-0.2-0.2-0.4-0.4-0.4s-0.3,0.2-0.4,0.4
			V20.1z"/>
		<path id="Path_32" d="M6.9,11.3c0.6,0,1.1,0.5,1.1,1.1v7.7c0,0.6-0.5,1.1-1.1,1.1s-1.1-0.5-1.1-1.1v-7.7
			C5.8,11.7,6.3,11.2,6.9,11.3z M6.5,20.1c0,0.2,0.2,0.4,0.4,0.4c0.2,0,0.3-0.2,0.4-0.4v-7.7c0-0.2-0.2-0.4-0.4-0.4
			c-0.2,0-0.4,0.2-0.4,0.4V20.1z"/>
		<path id="Path_33" d="M13.3,6.1c-0.2,0-0.4-0.2-0.4-0.4l0,0c0-0.4-0.5-0.7-1.1-0.7c-0.2,0-0.4-0.1-0.4-0.3c0-0.2,0.1-0.4,0.3-0.4
			l0,0c0.9-0.1,1.8,0.6,1.9,1.5C13.6,5.9,13.5,6.1,13.3,6.1L13.3,6.1L13.3,6.1z"/>
		<path id="Path_34" d="M8,5.4c-0.2,0-0.4,0.2-0.4,0.4l0,0c0,0.2-0.2,0.4-0.4,0.4C7,6.2,6.9,6,6.8,5.8c0-0.6,0.5-1.1,1.1-1.1
			c0.2,0,0.4,0.1,0.4,0.3C8.4,5.2,8.3,5.4,8,5.4L8,5.4L8,5.4z"/>
		<path id="Path_35" d="M10.3,3.5c-0.1,0-0.3,0-0.4,0.1c0,0.2-0.2,0.3-0.4,0.3S9.2,3.7,9.2,3.5c0-0.4,0.5-0.7,1.1-0.7
			c0.2,0,0.4,0.1,0.4,0.3C10.7,3.3,10.5,3.5,10.3,3.5L10.3,3.5L10.3,3.5z"/>
	</g>
</g>
<g id="iconfinder_32_-_Harry_Potter_-_Colour_-_Butterbeer_2730343-2" transform="translate(309.236 26.887)">
	<g id="colour-2" transform="translate(7.579 0.439)">
		<path id="Path_17-2" class="st4" d="M16,7H4C3.3,6.2,3.3,4,5.2,4c0.1-1,1-1.8,2.1-1.6c0.2,0,0.4,0.1,0.6,0.2
			c0-1.8,3.8-1.8,3.8-0.4C13.2,1.5,14,2.5,14,3.3c1.1-0.4,2.3,0.4,1.9,1.5C16.8,5.1,17.2,6.2,16,7"/>
		<path id="Path_18-2" class="st4" d="M14.9,3.3L14.9,3.3L14.9,3.3z"/>
		<path id="Path_19-2" class="st5" d="M5.1,4c-0.4,0.8-0.8,2.2,0,2.9H4C3.3,6.2,3.6,4,5.1,4z"/>
		<path id="Path_20-2" class="st6" d="M14.9,5.1c0.1-0.8-0.5-1-1.4-0.9c-0.2,0-0.4-0.1-0.4-0.3c-0.2-0.7-0.9-1.2-1.6-1
			c-0.1,0-0.2,0-0.3,0.1c-0.2,0.1-0.4,0-0.5-0.2c-0.4-0.8-2-0.9-2.9-0.4c0-1.8,3.8-1.8,3.8-0.3c1.5-0.7,2.3,0.3,2.3,1.1
			c1.1-0.4,2.3,0.4,1.9,1.5c1.1,0.4,1.5,1.5,0.4,2.2l0,0c0-0.3-2.4,0.7-0.8-1C15.6,5.5,14.9,5.3,14.9,5.1z"/>
		<path id="Path_21-2" class="st6" d="M7.8,2.5L7.8,2.5L7.8,2.5L7.8,2.5z"/>
		<path id="Path_22-2" class="st7" d="M6,22.4h8c1.1,0,2-0.8,2-1.8V7H4v13.6C4,21.6,4.9,22.5,6,22.4z"/>
		<path id="Path_23-2" class="st8" d="M14.5,7.4v13.2c0.1,1.2-0.8,2.1-2,2.2H14c1.2-0.1,2.1-1,2-2.2V7.4H14.5z"/>
		<path id="Path_24-2" class="st9" d="M5.5,7v13.2c-0.1,1.2,0.8,2.1,2,2.2H6c-1.2-0.1-2.1-1-2-2.2V7H5.5z"/>
		<path id="Path_25-2" class="st10" d="M4,11H1.4c-0.4,0-0.8,0.3-0.8,0.8v7.7c0,0.4,0.4,0.8,0.8,0.7h2.5v-1.5H2.6
			c-0.2,0-0.4-0.1-0.5-0.4v-5.5c0-0.2,0.2-0.4,0.5-0.4H4V11z"/>
		<path id="Rectangle_2-2" class="st9" d="M13.4,11.4L13.4,11.4c0.4,0,0.8,0.3,0.8,0.8v7.7c0,0.4-0.3,0.8-0.8,0.8l0,0
			c-0.4,0-0.8-0.3-0.8-0.8v-7.8C12.6,11.7,13,11.4,13.4,11.4z"/>
		<path id="Rectangle_3-2" class="st9" d="M10,11.4L10,11.4c0.4,0,0.8,0.3,0.8,0.8v7.7c0,0.4-0.3,0.8-0.8,0.8l0,0
			c-0.4,0-0.8-0.3-0.8-0.8v-7.8C9.2,11.7,9.6,11.4,10,11.4z"/>
		<path id="Rectangle_4-2" class="st9" d="M6.6,11.4L6.6,11.4c0.4,0,0.8,0.3,0.8,0.8v7.7c0,0.4-0.3,0.8-0.8,0.8l0,0
			c-0.4,0-0.8-0.3-0.8-0.8v-7.8C5.9,11.7,6.2,11.4,6.6,11.4z"/>
		<path id="Path_26-2" class="st5" d="M13,5.9c0.2,0,0.4-0.2,0.4-0.4l0,0c-0.1-0.9-1-1.6-1.9-1.5c-0.2,0-0.4,0.1-0.4,0.3
			c0,0.2,0.1,0.4,0.3,0.4l0,0c0.7,0.1,1.2,0.4,1.2,0.8C12.6,5.7,12.8,5.9,13,5.9L13,5.9z"/>
		<path id="Path_27-2" class="st5" d="M7,5.9c0.2,0,0.4-0.2,0.4-0.4l0,0c0-0.2,0.1-0.4,0.3-0.4l0,0c0.2,0,0.4-0.1,0.4-0.3
			c0-0.2-0.1-0.4-0.3-0.4l0,0c-0.7,0-1.2,0.5-1.2,1.1C6.6,5.7,6.8,5.9,7,5.9L7,5.9z"/>
		<path id="Path_28-2" class="st5" d="M9.2,3.7c0.2,0,0.4-0.1,0.4-0.3C9.7,3.3,9.9,3.3,10,3.3c0.2,0,0.4-0.1,0.4-0.3
			s-0.1-0.4-0.3-0.4l0,0C9.4,2.6,9,2.9,9,3.3C8.9,3.5,9,3.7,9.2,3.7z"/>
	</g>
	<g id="Layer_1-2" transform="translate(7.203 0.113)">
		<path id="Path_29-2" d="M1.8,11H4V7.4C3.5,6.8,3.4,5.9,3.7,5.1c0.2-0.6,0.8-1,1.5-1.1c0.2-0.6,0.6-1.1,1.1-1.4s1-0.4,1.6-0.2
			c0-0.4,0.3-0.7,0.7-0.9c0.4-0.3,1-0.4,1.5-0.4c0.8-0.1,1.5,0.3,2,0.9c0.5-0.2,1.1-0.1,1.6,0.1c0.4,0.2,0.6,0.6,0.8,1
			c0.5,0,1.1,0.2,1.5,0.6c0.3,0.3,0.5,0.8,0.4,1.2c0.5,0.2,0.9,0.7,1,1.2c0,0.6-0.2,1.1-0.7,1.4v13.4c-0.1,1.3-1.1,2.3-2.4,2.2h-8
			c-1.3,0-2.3-0.9-2.4-2.2H1.8c-0.6,0-1.2-0.5-1.2-1.1v-7.7C0.6,11.4,1.2,11,1.8,11z M4.7,9.5H16V7.7H4.7V9.5z M4,13.2H3
			c-0.1,0-0.1,0-0.1,0v5.5H3h1V13.2z M15.9,5.5c-0.1,0-0.2-0.1-0.2-0.2c-0.1-0.1-0.1-0.2-0.1-0.3c0.1-0.3,0.1-0.6-0.2-0.8
			c-0.3-0.3-0.8-0.4-1.2-0.2c-0.1,0-0.2,0-0.3,0c-0.1-0.1-0.2-0.2-0.2-0.3c0-0.3-0.2-0.7-0.5-0.9c-0.4-0.2-0.9-0.2-1.3,0.1
			c-0.1,0.1-0.3,0.1-0.4,0c-0.1-0.1-0.2-0.2-0.2-0.3c0-0.4-0.7-0.7-1.3-0.7c-0.3-0.1-0.7,0-1,0.2C8.7,2.3,8.5,2.6,8.5,2.9
			c0,0.1-0.1,0.2-0.2,0.3c-0.1,0.1-0.2,0.1-0.4,0C7.5,3,7,3,6.6,3.3C6.2,3.5,5.9,3.9,5.9,4.4c0,0.2-0.2,0.4-0.4,0.4l0,0
			C5,4.7,4.6,5,4.4,5.4C4.2,5.9,4.2,6.5,4.5,6.9h11.7c0.3-0.1,0.4-0.4,0.4-0.7C16.6,5.8,16.3,5.5,15.9,5.5L15.9,5.5z M6.4,22.4h8
			c0.9,0,1.6-0.6,1.6-1.5V10.3H4.7V21C4.8,21.8,5.5,22.4,6.4,22.4z M1.4,19.8c0,0.2,0.2,0.4,0.5,0.4h2.2v-0.7h-1
			c-0.4,0-0.8-0.3-0.8-0.7v-5.5c0-0.4,0.4-0.8,0.8-0.7h1v-0.7H1.8c-0.2,0-0.4,0.1-0.5,0.4L1.4,19.8z"/>
		<path id="Path_30-2" d="M13.7,11.4c0.6,0,1.1,0.5,1.1,1.1v7.7c0,0.6-0.5,1.1-1.1,1.1s-1.1-0.5-1.1-1.1v-7.7
			C12.6,11.8,13.1,11.3,13.7,11.4z M13.4,20.2c0,0.2,0.2,0.4,0.4,0.4s0.3-0.2,0.4-0.4v-7.7c0-0.2-0.2-0.4-0.4-0.4s-0.3,0.2-0.4,0.4
			V20.2z"/>
		<path id="Path_31-2" d="M10.4,11.4c0.6,0,1.1,0.5,1.1,1.1v7.7c0,0.6-0.5,1.1-1.1,1.1s-1.1-0.5-1.1-1.1v-7.7
			C9.2,11.8,9.8,11.3,10.4,11.4z M10,20.2c0,0.2,0.2,0.4,0.4,0.4s0.3-0.2,0.4-0.4v-7.7c0-0.2-0.2-0.4-0.4-0.4s-0.3,0.2-0.4,0.4V20.2
			z"/>
		<path id="Path_32-2" d="M7,11.4c0.6,0,1.1,0.5,1.1,1.1v7.7c0,0.6-0.5,1.1-1.1,1.1s-1.1-0.5-1.1-1.1v-7.7C5.9,11.8,6.4,11.3,7,11.4
			z M6.6,20.2c0,0.2,0.2,0.4,0.4,0.4c0.2,0,0.3-0.2,0.4-0.4v-7.7c0-0.2-0.2-0.4-0.4-0.4c-0.2,0-0.4,0.2-0.4,0.4V20.2z"/>
		<path id="Path_33-2" d="M13.4,6.2C13.2,6.2,13,6,13,5.8l0,0c0-0.4-0.5-0.7-1.1-0.7c-0.2,0-0.4-0.1-0.4-0.3c0-0.2,0.1-0.4,0.3-0.4
			l0,0c0.9-0.1,1.8,0.6,1.9,1.5C13.7,6,13.6,6.2,13.4,6.2L13.4,6.2L13.4,6.2z"/>
		<path id="Path_34-2" d="M8.1,5.5c-0.2,0-0.4,0.2-0.4,0.4l0,0c0,0.2-0.2,0.4-0.4,0.4C7.1,6.3,7,6.1,6.9,5.9c0-0.6,0.5-1.1,1.1-1.1
			c0.2,0,0.4,0.1,0.4,0.3C8.5,5.3,8.4,5.5,8.1,5.5L8.1,5.5L8.1,5.5z"/>
		<path id="Path_35-2" d="M10.4,3.6c-0.1,0-0.3,0-0.4,0.1C10,3.9,9.8,4,9.6,4S9.3,3.8,9.3,3.6c0-0.4,0.5-0.7,1.1-0.7
			c0.2,0,0.4,0.1,0.4,0.3C10.8,3.4,10.6,3.6,10.4,3.6L10.4,3.6L10.4,3.6z"/>
	</g>
</g>
<g id="Copa" transform="translate(-334.31 -1054.946)">
	<path id="svg_6" class="st11" d="M509.9,1093.4h-0.7c-2.8,0-5-2.2-5-5v-7.3c0-0.9,0.7-1.7,1.6-1.7l0,0h7.3c0.9,0,1.7,0.7,1.7,1.6
		l0,0v7.3C514.9,1091.1,512.6,1093.3,509.9,1093.4z"/>
	<path id="svg_7" class="st12" d="M513.5,1085.6v2.3c0,2-1.6,3.7-3.7,3.7h-0.7c-2,0-3.7-1.6-3.7-3.7v-2.3H513.5z"/>
	<rect id="svg_8" x="508.5" y="1093.5" class="st11" width="2" height="9.3"/>
	<path id="svg_9" class="st11" d="M514.2,1104.9h-9.3c-0.3,0-0.6-0.2-0.7-0.6c0,0,0,0,0-0.1v-0.7c0-0.3,0.2-0.6,0.6-0.7
		c0,0,0,0,0.1,0h9.3c0.3,0,0.6,0.2,0.7,0.6c0,0,0,0,0,0.1v0.7C514.9,1104.6,514.6,1104.9,514.2,1104.9
		C514.3,1104.9,514.2,1104.9,514.2,1104.9z"/>
</g>
<path id="Rectangle_19" class="st1" d="M38.3,47.9h9c0.6,0,1,0.4,1,1l0,0c0,0.6-0.4,1-1,1h-9c-0.6,0-1-0.4-1-1l0,0
	C37.3,48.3,37.7,47.9,38.3,47.9z"/>
<rect id="Rectangle_20" x="41.5" y="38.7" class="st1" width="2" height="9"/>
<rect id="Rectangle_21" x="37.5" y="24.7" class="st1" width="4" height="4"/>
<path id="Rectangle_22" class="st1" d="M44.5,24.7h3c0.6,0,1,0.4,1,1v2c0,0.6-0.4,1-1,1h-3c-0.6,0-1-0.4-1-1v-2
	C43.5,25.1,43.9,24.7,44.5,24.7z"/>
<path id="Rectangle_23" class="st1" d="M43,24.7L43,24.7c3,0,5.5,2.5,5.5,5.5v3c0,3-2.5,5.5-5.5,5.5l0,0c-3,0-5.5-2.5-5.5-5.5v-3
	C37.5,27.2,40,24.7,43,24.7z"/>
<g id="Copa-2" transform="translate(-467.31 -1054.946)">
	<path id="svg_6-2" class="st11" d="M510.5,1093.4h-0.7c-2.8,0-5-2.2-5-5v-7.3c0-0.9,0.7-1.7,1.6-1.7l0,0h7.3c0.9,0,1.7,0.7,1.7,1.6
		l0,0v7.3C515.5,1091.1,513.2,1093.3,510.5,1093.4z"/>
	<path id="svg_7-2" class="st12" d="M514.1,1085.6v2.3c0,2-1.6,3.7-3.7,3.7h-0.7c-2,0-3.7-1.6-3.7-3.7v-2.3H514.1z"/>
	<rect id="svg_8-2" x="509.1" y="1093.5" class="st11" width="2" height="9.3"/>
	<path id="svg_9-2" class="st11" d="M514.8,1104.9h-9.3c-0.3,0-0.6-0.2-0.7-0.6c0,0,0,0,0-0.1v-0.7c0-0.3,0.2-0.6,0.6-0.7
		c0,0,0,0,0.1,0h9.3c0.3,0,0.6,0.2,0.7,0.6c0,0,0,0,0,0.1v0.7C515.5,1104.6,515.2,1104.9,514.8,1104.9
		C514.9,1104.9,514.8,1104.9,514.8,1104.9z"/>
</g>
<rect x="1.5" y="51.5" class="st13" width="373" height="20"/>
</svg>
