<?xml version="1.0" encoding="utf-8"?>
<!-- Generator: Adobe Illustrator 23.0.0, SVG Export Plug-In . SVG Version: 6.00 Build 0)  -->
<svg version="1.1" id="Capa_1" xmlns="http://www.w3.org/2000/svg" xmlns:xlink="http://www.w3.org/1999/xlink" x="0px" y="0px"
	 viewBox="0 0 296.8 50.5" style="enable-background:new 0 0 296.8 50.5;" xml:space="preserve">
<style type="text/css">
	.st0{fill:#FFFFFF;}
	.st1{fill:#5C5C5C;}
	.st2{fill:none;stroke:#000000;}
	.st3{fill:#E0E0E0;}
	.st4{fill:#C9C8C7;}
	.st5{fill:#F4F4F4;}
	.st6{fill:#FF9F00;}
	.st7{fill:#FFB15C;}
	.st8{fill:#E28703;}
	.st9{fill:#616161;}
	.st10{fill:none;stroke:#000000;stroke-linecap:round;stroke-linejoin:round;stroke-miterlimit:10;}
	.st11{fill:#BF005B;stroke:#000000;stroke-linecap:round;stroke-linejoin:round;stroke-miterlimit:10;}
</style>
<path id="Rectangle_18" class="st0" d="M133.5,47.7h9c0.6,0,1,0.4,1,1l0,0c0,0.6-0.4,1-1,1h-9c-0.6,0-1-0.4-1-1l0,0
	C132.5,48.1,132.9,47.7,133.5,47.7z"/>
<rect id="Rectangle_17" x="136.9" y="38.7" class="st0" width="2" height="9"/>
<rect id="Rectangle_15" x="132.9" y="24.7" class="st0" width="4" height="4"/>
<path id="Rectangle_16" class="st0" d="M139.9,24.7h3c0.6,0,1,0.4,1,1v2c0,0.6-0.4,1-1,1h-3c-0.6,0-1-0.4-1-1v-2
	C138.9,25.1,139.3,24.7,139.9,24.7z"/>
<path id="Rectangle_14" class="st0" d="M138.4,24.7L138.4,24.7c3,0,5.5,2.5,5.5,5.5v3c0,3-2.5,5.5-5.5,5.5l0,0c-3,0-5.5-2.5-5.5-5.5
	v-3C132.9,27.2,135.4,24.7,138.4,24.7z"/>
<g id="Rectangle_11" transform="translate(247 43)">
	<rect x="-37.1" class="st1" width="50" height="7"/>
	<rect x="-36.6" y="0.5" class="st2" width="49" height="6"/>
</g>
<g id="Rectangle_12" transform="translate(267)">
	<rect x="-37.1" class="st1" width="11" height="44"/>
	<rect x="-36.6" y="0.5" class="st2" width="10" height="43"/>
</g>
<g id="iconfinder_32_-_Harry_Potter_-_Colour_-_Butterbeer_2730343" transform="translate(292.236 26.887)">
	<g id="colour" transform="translate(7.579 0.439)">
		<path id="Path_17" class="st3" d="M-21.1,6.9h-12c-0.7-0.8-0.7-3,1.2-3c0.1-1,1-1.8,2.1-1.6c0.2,0,0.4,0.1,0.6,0.2
			c0-1.8,3.8-1.8,3.8-0.4c1.5-0.7,2.3,0.3,2.3,1.1c1.1-0.4,2.3,0.4,1.9,1.5C-20.3,5-19.9,6.1-21.1,6.9"/>
		<path id="Path_18" class="st3" d="M-22.2,3.2L-22.2,3.2L-22.2,3.2z"/>
		<path id="Path_19" class="st4" d="M-32,3.9c-0.4,0.8-0.8,2.2,0,2.9h-1.1C-33.8,6.1-33.5,3.9-32,3.9z"/>
		<path id="Path_20" class="st5" d="M-22.2,5c0.1-0.8-0.5-1-1.4-0.9C-23.8,4.1-24,4-24,3.8c-0.2-0.7-0.9-1.2-1.6-1
			c-0.1,0-0.2,0-0.3,0.1c-0.2,0.1-0.4,0-0.5-0.2c-0.4-0.8-2-0.9-2.9-0.4c0-1.8,3.8-1.8,3.8-0.3c1.5-0.7,2.3,0.3,2.3,1.1
			c1.1-0.4,2.3,0.4,1.9,1.5c1.1,0.4,1.5,1.5,0.4,2.2l0,0c0-0.3-2.4,0.7-0.8-1C-21.5,5.4-22.2,5.2-22.2,5z"/>
		<path id="Path_21" class="st5" d="M-29.3,2.4L-29.3,2.4L-29.3,2.4L-29.3,2.4z"/>
		<path id="Path_22" class="st6" d="M-31.1,22.3h8c1.1,0,2-0.8,2-1.8V6.9h-12v13.6C-33.1,21.5-32.2,22.4-31.1,22.3z"/>
		<path id="Path_23" class="st7" d="M-22.6,7.3v13.2c0.1,1.2-0.8,2.1-2,2.2h1.5c1.2-0.1,2.1-1,2-2.2V7.3H-22.6z"/>
		<path id="Path_24" class="st8" d="M-31.6,6.9v13.2c-0.1,1.2,0.8,2.1,2,2.2h-1.5c-1.2-0.1-2.1-1-2-2.2V6.9H-31.6z"/>
		<path id="Path_25" class="st9" d="M-33.1,10.9h-2.6c-0.4,0-0.8,0.3-0.8,0.8v7.7c0,0.4,0.4,0.8,0.8,0.7h2.5v-1.5h-1.3
			c-0.2,0-0.4-0.1-0.5-0.4v-5.5c0-0.2,0.2-0.4,0.5-0.4h1.4V10.9z"/>
		<path id="Rectangle_2" class="st8" d="M-23.7,11.3L-23.7,11.3c0.4,0,0.8,0.3,0.8,0.8v7.7c0,0.4-0.3,0.8-0.8,0.8l0,0
			c-0.4,0-0.8-0.3-0.8-0.8V12C-24.5,11.6-24.1,11.3-23.7,11.3z"/>
		<path id="Rectangle_3" class="st8" d="M-27.1,11.3L-27.1,11.3c0.4,0,0.8,0.3,0.8,0.8v7.7c0,0.4-0.3,0.8-0.8,0.8l0,0
			c-0.4,0-0.8-0.3-0.8-0.8V12C-27.9,11.6-27.5,11.3-27.1,11.3z"/>
		<path id="Rectangle_4" class="st8" d="M-30.5,11.3L-30.5,11.3c0.4,0,0.8,0.3,0.8,0.8v7.7c0,0.4-0.3,0.8-0.8,0.8l0,0
			c-0.4,0-0.8-0.3-0.8-0.8V12C-31.2,11.6-30.9,11.3-30.5,11.3z"/>
		<path id="Path_26" class="st4" d="M-24.1,5.8c0.2,0,0.4-0.2,0.4-0.4l0,0c-0.1-0.9-1-1.6-1.9-1.5C-25.8,3.9-26,4-26,4.2
			s0.1,0.4,0.3,0.4l0,0c0.7,0.1,1.2,0.4,1.2,0.8C-24.5,5.6-24.3,5.8-24.1,5.8L-24.1,5.8z"/>
		<path id="Path_27" class="st4" d="M-30.1,5.8c0.2,0,0.4-0.2,0.4-0.4l0,0c0-0.2,0.1-0.4,0.3-0.4l0,0c0.2,0,0.4-0.1,0.4-0.3
			c0-0.2-0.1-0.4-0.3-0.4l0,0c-0.7,0-1.2,0.5-1.2,1.1C-30.5,5.6-30.3,5.8-30.1,5.8L-30.1,5.8z"/>
		<path id="Path_28" class="st4" d="M-27.9,3.6c0.2,0,0.4-0.1,0.4-0.3c0.1-0.1,0.3-0.1,0.4-0.1c0.2,0,0.4-0.1,0.4-0.3
			s-0.1-0.4-0.3-0.4l0,0c-0.7,0-1.1,0.3-1.1,0.7C-28.2,3.4-28.1,3.6-27.9,3.6z"/>
	</g>
	<g id="Layer_1" transform="translate(7.203 0.113)">
		<path id="Path_29" d="M-35.3,10.9h2.2V7.3c-0.5-0.6-0.6-1.5-0.3-2.3c0.2-0.6,0.8-1,1.5-1.1c0.2-0.6,0.6-1.1,1.1-1.4s1-0.4,1.6-0.2
			c0-0.4,0.3-0.7,0.7-0.9c0.4-0.3,1-0.4,1.5-0.4c0.8-0.1,1.5,0.3,2,0.9c0.5-0.2,1.1-0.1,1.6,0.1c0.4,0.2,0.6,0.6,0.8,1
			c0.5,0,1.1,0.2,1.5,0.6c0.3,0.3,0.5,0.8,0.4,1.2c0.5,0.2,0.9,0.7,1,1.2c0,0.6-0.2,1.1-0.7,1.4v13.4c-0.1,1.3-1.1,2.3-2.4,2.2h-8
			c-1.3,0-2.3-0.9-2.4-2.2h-2.1c-0.6,0-1.2-0.5-1.2-1.1V12C-36.5,11.3-35.9,10.9-35.3,10.9z M-32.4,9.4h11.3V7.6h-11.3V9.4z
			 M-33.1,13.1h-1c-0.1,0-0.1,0-0.1,0v5.5h0.1h1V13.1z M-21.2,5.4c-0.1,0-0.2-0.1-0.2-0.2c-0.1-0.1-0.1-0.2-0.1-0.3
			c0.1-0.3,0.1-0.6-0.2-0.8c-0.3-0.3-0.8-0.4-1.2-0.2c-0.1,0-0.2,0-0.3,0c-0.1-0.1-0.2-0.2-0.2-0.3c0-0.3-0.2-0.7-0.5-0.9
			c-0.4-0.2-0.9-0.2-1.3,0.1c-0.1,0.1-0.3,0.1-0.4,0c-0.1-0.1-0.2-0.2-0.2-0.3c0-0.4-0.7-0.7-1.3-0.7c-0.3-0.1-0.7,0-1,0.2
			c-0.3,0.2-0.5,0.5-0.5,0.8c0,0.1-0.1,0.2-0.2,0.3c-0.1,0.1-0.2,0.1-0.4,0c-0.4-0.2-0.9-0.2-1.3,0.1c-0.4,0.2-0.7,0.6-0.7,1.1
			c0,0.2-0.2,0.4-0.4,0.4l0,0c-0.5-0.1-0.9,0.2-1.1,0.6c-0.2,0.5-0.2,1.1,0.1,1.5h11.7c0.3-0.1,0.4-0.4,0.4-0.7
			C-20.5,5.7-20.8,5.4-21.2,5.4L-21.2,5.4z M-30.7,22.3h8c0.9,0,1.6-0.6,1.6-1.5V10.2h-11.3v10.7C-32.3,21.7-31.6,22.3-30.7,22.3z
			 M-35.7,19.7c0,0.2,0.2,0.4,0.5,0.4h2.2v-0.7h-1c-0.4,0-0.8-0.3-0.8-0.7v-5.5c0-0.4,0.4-0.8,0.8-0.7h1v-0.7h-2.3
			c-0.2,0-0.4,0.1-0.5,0.4L-35.7,19.7z"/>
		<path id="Path_30" d="M-23.4,11.3c0.6,0,1.1,0.5,1.1,1.1v7.7c0,0.6-0.5,1.1-1.1,1.1s-1.1-0.5-1.1-1.1v-7.7
			C-24.5,11.7-24,11.2-23.4,11.3z M-23.7,20.1c0,0.2,0.2,0.4,0.4,0.4c0.2,0,0.3-0.2,0.4-0.4v-7.7c0-0.2-0.2-0.4-0.4-0.4
			c-0.2,0-0.3,0.2-0.4,0.4V20.1z"/>
		<path id="Path_31" d="M-26.7,11.3c0.6,0,1.1,0.5,1.1,1.1v7.7c0,0.6-0.5,1.1-1.1,1.1s-1.1-0.5-1.1-1.1v-7.7
			C-27.9,11.7-27.3,11.2-26.7,11.3z M-27.1,20.1c0,0.2,0.2,0.4,0.4,0.4c0.2,0,0.3-0.2,0.4-0.4v-7.7c0-0.2-0.2-0.4-0.4-0.4
			c-0.2,0-0.3,0.2-0.4,0.4V20.1z"/>
		<path id="Path_32" d="M-30.1,11.3c0.6,0,1.1,0.5,1.1,1.1v7.7c0,0.6-0.5,1.1-1.1,1.1c-0.6,0-1.1-0.5-1.1-1.1v-7.7
			C-31.2,11.7-30.7,11.2-30.1,11.3z M-30.5,20.1c0,0.2,0.2,0.4,0.4,0.4c0.2,0,0.3-0.2,0.4-0.4v-7.7c0-0.2-0.2-0.4-0.4-0.4
			c-0.2,0-0.4,0.2-0.4,0.4V20.1z"/>
		<path id="Path_33" d="M-23.7,6.1c-0.2,0-0.4-0.2-0.4-0.4l0,0c0-0.4-0.5-0.7-1.1-0.7c-0.2,0-0.4-0.1-0.4-0.3c0-0.2,0.1-0.4,0.3-0.4
			l0,0c0.9-0.1,1.8,0.6,1.9,1.5C-23.4,5.9-23.5,6.1-23.7,6.1L-23.7,6.1L-23.7,6.1z"/>
		<path id="Path_34" d="M-29,5.4c-0.2,0-0.4,0.2-0.4,0.4l0,0c0,0.2-0.2,0.4-0.4,0.4c-0.2,0-0.3-0.2-0.4-0.4c0-0.6,0.5-1.1,1.1-1.1
			c0.2,0,0.4,0.1,0.4,0.3C-28.6,5.2-28.7,5.4-29,5.4L-29,5.4L-29,5.4z"/>
		<path id="Path_35" d="M-26.7,3.5c-0.1,0-0.3,0-0.4,0.1c0,0.2-0.2,0.3-0.4,0.3c-0.2,0-0.3-0.2-0.3-0.4c0-0.4,0.5-0.7,1.1-0.7
			c0.2,0,0.4,0.1,0.4,0.3S-26.5,3.5-26.7,3.5L-26.7,3.5L-26.7,3.5z"/>
	</g>
</g>
<g id="iconfinder_32_-_Harry_Potter_-_Colour_-_Butterbeer_2730343-2" transform="translate(309.236 26.887)">
	<g id="colour-2" transform="translate(7.579 0.439)">
		<path id="Path_17-2" class="st3" d="M-21,7h-12c-0.7-0.8-0.7-3,1.2-3c0.1-1,1-1.8,2.1-1.6c0.2,0,0.4,0.1,0.6,0.2
			c0-1.8,3.8-1.8,3.8-0.4c1.5-0.7,2.3,0.3,2.3,1.1c1.1-0.4,2.3,0.4,1.9,1.5C-20.2,5.1-19.8,6.2-21,7"/>
		<path id="Path_18-2" class="st3" d="M-22.1,3.3L-22.1,3.3L-22.1,3.3z"/>
		<path id="Path_19-2" class="st4" d="M-31.9,4c-0.4,0.8-0.8,2.2,0,2.9H-33C-33.7,6.2-33.4,4-31.9,4z"/>
		<path id="Path_20-2" class="st5" d="M-22.1,5.1c0.1-0.8-0.5-1-1.4-0.9c-0.2,0-0.4-0.1-0.4-0.3c-0.2-0.7-0.9-1.2-1.6-1
			c-0.1,0-0.2,0-0.3,0.1c-0.2,0.1-0.4,0-0.5-0.2c-0.4-0.8-2-0.9-2.9-0.4c0-1.8,3.8-1.8,3.8-0.3c1.5-0.7,2.3,0.3,2.3,1.1
			c1.1-0.4,2.3,0.4,1.9,1.5c1.1,0.4,1.5,1.5,0.4,2.2l0,0c0-0.3-2.4,0.7-0.8-1C-21.4,5.5-22.1,5.3-22.1,5.1z"/>
		<path id="Path_21-2" class="st5" d="M-29.2,2.5L-29.2,2.5L-29.2,2.5L-29.2,2.5z"/>
		<path id="Path_22-2" class="st6" d="M-31,22.4h8c1.1,0,2-0.8,2-1.8V7h-12v13.6C-33,21.6-32.1,22.5-31,22.4z"/>
		<path id="Path_23-2" class="st7" d="M-22.5,7.4v13.2c0.1,1.2-0.8,2.1-2,2.2h1.5c1.2-0.1,2.1-1,2-2.2V7.4H-22.5z"/>
		<path id="Path_24-2" class="st8" d="M-31.5,7v13.2c-0.1,1.2,0.8,2.1,2,2.2H-31c-1.2-0.1-2.1-1-2-2.2V7H-31.5z"/>
		<path id="Path_25-2" class="st9" d="M-33,11h-2.6c-0.4,0-0.8,0.3-0.8,0.8v7.7c0,0.4,0.4,0.8,0.8,0.7h2.5v-1.5h-1.3
			c-0.2,0-0.4-0.1-0.5-0.4v-5.5c0-0.2,0.2-0.4,0.5-0.4h1.4V11z"/>
		<path id="Rectangle_2-2" class="st8" d="M-23.6,11.4L-23.6,11.4c0.4,0,0.8,0.3,0.8,0.8v7.7c0,0.4-0.3,0.8-0.8,0.8l0,0
			c-0.4,0-0.8-0.3-0.8-0.8v-7.8C-24.4,11.7-24,11.4-23.6,11.4z"/>
		<path id="Rectangle_3-2" class="st8" d="M-27,11.4L-27,11.4c0.4,0,0.8,0.3,0.8,0.8v7.7c0,0.4-0.3,0.8-0.8,0.8l0,0
			c-0.4,0-0.8-0.3-0.8-0.8v-7.8C-27.8,11.7-27.4,11.4-27,11.4z"/>
		<path id="Rectangle_4-2" class="st8" d="M-30.4,11.4L-30.4,11.4c0.4,0,0.8,0.3,0.8,0.8v7.7c0,0.4-0.3,0.8-0.8,0.8l0,0
			c-0.4,0-0.8-0.3-0.8-0.8v-7.8C-31.1,11.7-30.8,11.4-30.4,11.4z"/>
		<path id="Path_26-2" class="st4" d="M-24,5.9c0.2,0,0.4-0.2,0.4-0.4l0,0c-0.1-0.9-1-1.6-1.9-1.5c-0.2,0-0.4,0.1-0.4,0.3
			c0,0.2,0.1,0.4,0.3,0.4l0,0c0.7,0.1,1.2,0.4,1.2,0.8C-24.4,5.7-24.2,5.9-24,5.9L-24,5.9z"/>
		<path id="Path_27-2" class="st4" d="M-30,5.9c0.2,0,0.4-0.2,0.4-0.4l0,0c0-0.2,0.1-0.4,0.3-0.4l0,0c0.2,0,0.4-0.1,0.4-0.3
			c0-0.2-0.1-0.4-0.3-0.4l0,0c-0.7,0-1.2,0.5-1.2,1.1C-30.4,5.7-30.2,5.9-30,5.9L-30,5.9z"/>
		<path id="Path_28-2" class="st4" d="M-27.8,3.7c0.2,0,0.4-0.1,0.4-0.3c0.1-0.1,0.3-0.1,0.4-0.1c0.2,0,0.4-0.1,0.4-0.3
			s-0.1-0.4-0.3-0.4l0,0c-0.7,0-1.1,0.3-1.1,0.7C-28.1,3.5-28,3.7-27.8,3.7z"/>
	</g>
	<g id="Layer_1-2" transform="translate(7.203 0.113)">
		<path id="Path_29-2" d="M-35.2,11h2.2V7.4c-0.5-0.6-0.6-1.5-0.3-2.3c0.2-0.6,0.8-1,1.5-1.1c0.2-0.6,0.6-1.1,1.1-1.4s1-0.4,1.6-0.2
			c0-0.4,0.3-0.7,0.7-0.9c0.4-0.3,1-0.4,1.5-0.4c0.8-0.1,1.5,0.3,2,0.9c0.5-0.2,1.1-0.1,1.6,0.1c0.4,0.2,0.6,0.6,0.8,1
			c0.5,0,1.1,0.2,1.5,0.6c0.3,0.3,0.5,0.8,0.4,1.2c0.5,0.2,0.9,0.7,1,1.2c0,0.6-0.2,1.1-0.7,1.4v13.4c-0.1,1.3-1.1,2.3-2.4,2.2h-8
			c-1.3,0-2.3-0.9-2.4-2.2h-2.1c-0.6,0-1.2-0.5-1.2-1.1v-7.7C-36.4,11.4-35.8,11-35.2,11z M-32.3,9.5H-21V7.7h-11.3V9.5z M-33,13.2
			h-1c-0.1,0-0.1,0-0.1,0v5.5h0.1h1V13.2z M-21.1,5.5c-0.1,0-0.2-0.1-0.2-0.2c-0.1-0.1-0.1-0.2-0.1-0.3c0.1-0.3,0.1-0.6-0.2-0.8
			c-0.3-0.3-0.8-0.4-1.2-0.2c-0.1,0-0.2,0-0.3,0c-0.1-0.1-0.2-0.2-0.2-0.3c0-0.3-0.2-0.7-0.5-0.9c-0.4-0.2-0.9-0.2-1.3,0.1
			c-0.1,0.1-0.3,0.1-0.4,0s-0.2-0.2-0.2-0.3c0-0.4-0.7-0.7-1.3-0.7c-0.3-0.1-0.7,0-1,0.2c-0.3,0.2-0.5,0.5-0.5,0.8
			c0,0.1-0.1,0.2-0.2,0.3c-0.1,0.1-0.2,0.1-0.4,0C-29.5,3-30,3-30.4,3.3c-0.4,0.2-0.7,0.6-0.7,1.1c0,0.2-0.2,0.4-0.4,0.4l0,0
			C-32,4.7-32.4,5-32.6,5.4c-0.2,0.5-0.2,1.1,0.1,1.5h11.7c0.3-0.1,0.4-0.4,0.4-0.7C-20.4,5.8-20.7,5.5-21.1,5.5L-21.1,5.5z
			 M-30.6,22.4h8c0.9,0,1.6-0.6,1.6-1.5V10.3h-11.3V21C-32.2,21.8-31.5,22.4-30.6,22.4z M-35.6,19.8c0,0.2,0.2,0.4,0.5,0.4h2.2v-0.7
			h-1c-0.4,0-0.8-0.3-0.8-0.7v-5.5c0-0.4,0.4-0.8,0.8-0.7h1v-0.7h-2.3c-0.2,0-0.4,0.1-0.5,0.4L-35.6,19.8z"/>
		<path id="Path_30-2" d="M-23.3,11.4c0.6,0,1.1,0.5,1.1,1.1v7.7c0,0.6-0.5,1.1-1.1,1.1s-1.1-0.5-1.1-1.1v-7.7
			C-24.4,11.8-23.9,11.3-23.3,11.4z M-23.6,20.2c0,0.2,0.2,0.4,0.4,0.4c0.2,0,0.3-0.2,0.4-0.4v-7.7c0-0.2-0.2-0.4-0.4-0.4
			c-0.2,0-0.3,0.2-0.4,0.4V20.2z"/>
		<path id="Path_31-2" d="M-26.6,11.4c0.6,0,1.1,0.5,1.1,1.1v7.7c0,0.6-0.5,1.1-1.1,1.1s-1.1-0.5-1.1-1.1v-7.7
			C-27.8,11.8-27.2,11.3-26.6,11.4z M-27,20.2c0,0.2,0.2,0.4,0.4,0.4c0.2,0,0.3-0.2,0.4-0.4v-7.7c0-0.2-0.2-0.4-0.4-0.4
			c-0.2,0-0.3,0.2-0.4,0.4V20.2z"/>
		<path id="Path_32-2" d="M-30,11.4c0.6,0,1.1,0.5,1.1,1.1v7.7c0,0.6-0.5,1.1-1.1,1.1c-0.6,0-1.1-0.5-1.1-1.1v-7.7
			C-31.1,11.8-30.6,11.3-30,11.4z M-30.4,20.2c0,0.2,0.2,0.4,0.4,0.4c0.2,0,0.3-0.2,0.4-0.4v-7.7c0-0.2-0.2-0.4-0.4-0.4
			c-0.2,0-0.4,0.2-0.4,0.4V20.2z"/>
		<path id="Path_33-2" d="M-23.6,6.2C-23.8,6.2-24,6-24,5.8l0,0c0-0.4-0.5-0.7-1.1-0.7c-0.2,0-0.4-0.1-0.4-0.3
			c0-0.2,0.1-0.4,0.3-0.4l0,0c0.9-0.1,1.8,0.6,1.9,1.5C-23.3,6-23.4,6.2-23.6,6.2L-23.6,6.2L-23.6,6.2z"/>
		<path id="Path_34-2" d="M-28.9,5.5c-0.2,0-0.4,0.2-0.4,0.4l0,0c0,0.2-0.2,0.4-0.4,0.4s-0.3-0.2-0.4-0.4c0-0.6,0.5-1.1,1.1-1.1
			c0.2,0,0.4,0.1,0.4,0.3C-28.5,5.3-28.6,5.5-28.9,5.5L-28.9,5.5L-28.9,5.5z"/>
		<path id="Path_35-2" d="M-26.6,3.6c-0.1,0-0.3,0-0.4,0.1c0,0.2-0.2,0.3-0.4,0.3c-0.2,0-0.3-0.2-0.3-0.4c0-0.4,0.5-0.7,1.1-0.7
			c0.2,0,0.4,0.1,0.4,0.3C-26.2,3.4-26.4,3.6-26.6,3.6L-26.6,3.6L-26.6,3.6z"/>
	</g>
</g>
<g id="Copa" transform="translate(-334.31 -1054.946)">
	<path id="svg_6" class="st10" d="M472.9,1093.4h-0.7c-2.8,0-5-2.2-5-5v-7.3c0-0.9,0.7-1.7,1.6-1.7l0,0h7.3c0.9,0,1.7,0.7,1.7,1.6
		l0,0v7.3C477.9,1091.1,475.6,1093.3,472.9,1093.4z"/>
	<path id="svg_7" class="st11" d="M476.5,1085.6v2.3c0,2-1.6,3.7-3.7,3.7h-0.7c-2,0-3.7-1.6-3.7-3.7v-2.3H476.5z"/>
	<rect id="svg_8" x="471.5" y="1093.5" class="st10" width="2" height="9.3"/>
	<path id="svg_9" class="st10" d="M477.2,1104.9h-9.3c-0.3,0-0.6-0.2-0.7-0.6c0,0,0,0,0-0.1v-0.7c0-0.3,0.2-0.6,0.6-0.7
		c0,0,0,0,0.1,0h9.3c0.3,0,0.6,0.2,0.7,0.6c0,0,0,0,0,0.1v0.7C477.9,1104.6,477.6,1104.9,477.2,1104.9
		C477.3,1104.9,477.2,1104.9,477.2,1104.9z"/>
</g>
<path id="Rectangle_19" class="st0" d="M1.3,47.9h9c0.6,0,1,0.4,1,1l0,0c0,0.6-0.4,1-1,1h-9c-0.6,0-1-0.4-1-1l0,0
	C0.3,48.3,0.7,47.9,1.3,47.9z"/>
<rect id="Rectangle_20" x="4.5" y="38.7" class="st0" width="2" height="9"/>
<rect id="Rectangle_21" x="0.5" y="24.7" class="st0" width="4" height="4"/>
<path id="Rectangle_22" class="st0" d="M7.5,24.7h3c0.6,0,1,0.4,1,1v2c0,0.6-0.4,1-1,1h-3c-0.6,0-1-0.4-1-1v-2
	C6.5,25.1,6.9,24.7,7.5,24.7z"/>
<path id="Rectangle_23" class="st0" d="M6,24.7L6,24.7c3,0,5.5,2.5,5.5,5.5v3c0,3-2.5,5.5-5.5,5.5l0,0c-3,0-5.5-2.5-5.5-5.5v-3
	C0.5,27.2,3,24.7,6,24.7z"/>
<g id="Copa-2" transform="translate(-467.31 -1054.946)">
	<path id="svg_6-2" class="st10" d="M473.5,1093.4h-0.7c-2.8,0-5-2.2-5-5v-7.3c0-0.9,0.7-1.7,1.6-1.7l0,0h7.3c0.9,0,1.7,0.7,1.7,1.6
		l0,0v7.3C478.5,1091.1,476.2,1093.3,473.5,1093.4z"/>
	<path id="svg_7-2" class="st11" d="M477.1,1085.6v2.3c0,2-1.6,3.7-3.7,3.7h-0.7c-2,0-3.7-1.6-3.7-3.7v-2.3H477.1z"/>
	<rect id="svg_8-2" x="472.1" y="1093.5" class="st10" width="2" height="9.3"/>
	<path id="svg_9-2" class="st10" d="M477.8,1104.9h-9.3c-0.3,0-0.6-0.2-0.7-0.6c0,0,0,0,0-0.1v-0.7c0-0.3,0.2-0.6,0.6-0.7
		c0,0,0,0,0.1,0h9.3c0.3,0,0.6,0.2,0.7,0.6c0,0,0,0,0,0.1v0.7C478.5,1104.6,478.2,1104.9,477.8,1104.9
		C477.9,1104.9,477.8,1104.9,477.8,1104.9z"/>
</g>
</svg>
