<?xml version="1.0" encoding="utf-8"?>
<!-- Generator: Adobe Illustrator 23.0.0, SVG Export Plug-In . SVG Version: 6.00 Build 0)  -->
<svg version="1.1" id="Capa_1" xmlns="http://www.w3.org/2000/svg" xmlns:xlink="http://www.w3.org/1999/xlink" x="0px" y="0px"
	 viewBox="0 0 375 198" style="enable-background:new 0 0 375 198;" xml:space="preserve">
<style type="text/css">
	.st0{fill:#602929;stroke:#000000;stroke-width:2;stroke-miterlimit:10;}
	.st1{fill:#FFFFFF;}
	.st2{fill:#5C5C5C;}
	.st3{fill:none;stroke:#000000;}
	.st4{fill:#E0E0E0;}
	.st5{fill:#C9C8C7;}
	.st6{fill:#F4F4F4;}
	.st7{fill:#FF9F00;}
	.st8{fill:#FFB15C;}
	.st9{fill:#E28703;}
	.st10{fill:#616161;}
	.st11{fill:none;stroke:#000000;stroke-linecap:round;stroke-linejoin:round;stroke-miterlimit:10;}
	.st12{fill:#BF005B;stroke:#000000;stroke-linecap:round;stroke-linejoin:round;stroke-miterlimit:10;}
	.st13{fill:#7B3A3A;stroke:#000000;stroke-width:2;stroke-miterlimit:10;}
</style>
<rect x="1" y="48.6" class="st0" width="373" height="149"/>
<path id="Rectangle_18" class="st1" d="M171,47h9c0.6,0,1,0.4,1,1l0,0c0,0.6-0.4,1-1,1h-9c-0.6,0-1-0.4-1-1l0,0
	C170,47.4,170.4,47,171,47z"/>
<rect id="Rectangle_17" x="174" y="38" class="st1" width="2" height="9"/>
<rect id="Rectangle_15" x="170" y="24" class="st1" width="4" height="4"/>
<path id="Rectangle_16" class="st1" d="M177,24h3c0.6,0,1,0.4,1,1v2c0,0.6-0.4,1-1,1h-3c-0.6,0-1-0.4-1-1v-2
	C176,24.4,176.4,24,177,24z"/>
<path id="Rectangle_14" class="st1" d="M175.5,24L175.5,24c3,0,5.5,2.5,5.5,5.5v3c0,3-2.5,5.5-5.5,5.5l0,0c-3,0-5.5-2.5-5.5-5.5v-3
	C170,26.5,172.5,24,175.5,24z"/>
<g id="Rectangle_11" transform="translate(247 43)">
	<rect class="st2" width="50" height="7"/>
	<rect x="0.5" y="0.5" class="st3" width="49" height="6"/>
</g>
<g id="Rectangle_12" transform="translate(267)">
	<rect class="st2" width="11" height="44"/>
	<rect x="0.5" y="0.5" class="st3" width="10" height="43"/>
</g>
<g id="iconfinder_32_-_Harry_Potter_-_Colour_-_Butterbeer_2730343" transform="translate(292.236 26.887)">
	<g id="colour" transform="translate(7.579 0.439)">
		<path id="Path_17" class="st4" d="M15.4,5.9l-12,0C2.7,5.1,2.7,2.9,4.6,2.9c0.1-1,1-1.8,2.1-1.6c0.2,0,0.4,0.1,0.6,0.2
			c0-1.8,3.8-1.8,3.8-0.4c1.5-0.7,2.3,0.3,2.3,1.1c1.1-0.4,2.3,0.4,1.9,1.5C16.2,4,16.6,5.1,15.4,5.9"/>
		<path id="Path_18" class="st4" d="M14.3,2.2L14.3,2.2L14.3,2.2z"/>
		<path id="Path_19" class="st5" d="M4.5,2.9c-0.4,0.8-0.8,2.2,0,2.9H3.4C2.7,5.1,3,2.9,4.5,2.9z"/>
		<path id="Path_20" class="st6" d="M14.3,4c0.1-0.8-0.5-1-1.4-0.9c-0.2,0-0.4-0.1-0.4-0.3c-0.2-0.7-0.9-1.2-1.6-1
			c-0.1,0-0.2,0-0.3,0.1c-0.2,0.1-0.4,0-0.5-0.2c-0.4-0.8-2-0.9-2.9-0.4c0-1.8,3.8-1.8,3.8-0.3c1.5-0.7,2.3,0.3,2.3,1.1
			c1.1-0.4,2.3,0.4,1.9,1.5c1.1,0.4,1.5,1.5,0.4,2.2l0,0c0-0.3-2.4,0.7-0.8-1C15,4.4,14.3,4.2,14.3,4z"/>
		<path id="Path_21" class="st6" d="M7.2,1.4L7.2,1.4C7.2,1.4,7.2,1.4,7.2,1.4L7.2,1.4z"/>
		<path id="Path_22" class="st7" d="M5.4,21.3h8c1.1,0,2-0.8,2-1.8V5.9h-12v13.6C3.4,20.5,4.3,21.4,5.4,21.3z"/>
		<path id="Path_23" class="st8" d="M13.9,6.3v13.2c0.1,1.2-0.8,2.1-2,2.2h1.5c1.2-0.1,2.1-1,2-2.2V6.3H13.9z"/>
		<path id="Path_24" class="st9" d="M4.9,5.9v13.2c-0.1,1.2,0.8,2.1,2,2.2H5.4c-1.2-0.1-2.1-1-2-2.2V5.9H4.9z"/>
		<path id="Path_25" class="st10" d="M3.4,9.9H0.8C0.4,9.9,0,10.2,0,10.7v7.7c0,0.4,0.4,0.8,0.8,0.7h2.5v-1.5H2
			c-0.2,0-0.4-0.1-0.5-0.4v-5.5c0-0.2,0.2-0.4,0.5-0.4h1.4V9.9z"/>
		<path id="Rectangle_2" class="st9" d="M12.8,10.3L12.8,10.3c0.4,0,0.8,0.3,0.8,0.8v7.7c0,0.4-0.3,0.8-0.8,0.8h0
			c-0.4,0-0.8-0.3-0.8-0.8V11C12,10.6,12.4,10.3,12.8,10.3z"/>
		<path id="Rectangle_3" class="st9" d="M9.4,10.3L9.4,10.3c0.4,0,0.8,0.3,0.8,0.8v7.7c0,0.4-0.3,0.8-0.8,0.8h0
			c-0.4,0-0.8-0.3-0.8-0.8V11C8.6,10.6,9,10.3,9.4,10.3z"/>
		<path id="Rectangle_4" class="st9" d="M6,10.3L6,10.3c0.4,0,0.8,0.3,0.8,0.8v7.7c0,0.4-0.3,0.8-0.8,0.8h0c-0.4,0-0.8-0.3-0.8-0.8
			V11C5.3,10.6,5.6,10.3,6,10.3z"/>
		<path id="Path_26" class="st5" d="M12.4,4.8c0.2,0,0.4-0.2,0.4-0.4c0,0,0,0,0,0c-0.1-0.9-1-1.6-1.9-1.5c-0.2,0-0.4,0.1-0.4,0.3
			c0,0.2,0.1,0.4,0.3,0.4c0,0,0,0,0,0C11.5,3.7,12,4,12,4.4C12,4.6,12.2,4.8,12.4,4.8C12.4,4.8,12.4,4.8,12.4,4.8z"/>
		<path id="Path_27" class="st5" d="M6.4,4.8c0.2,0,0.4-0.2,0.4-0.4c0,0,0,0,0,0C6.8,4.2,6.9,4,7.1,4c0,0,0,0,0,0
			c0.2,0,0.4-0.1,0.4-0.3c0-0.2-0.1-0.4-0.3-0.4c0,0,0,0,0,0C6.5,3.3,6,3.8,6,4.4C6,4.6,6.2,4.8,6.4,4.8C6.4,4.8,6.4,4.8,6.4,4.8z"
			/>
		<path id="Path_28" class="st5" d="M8.6,2.6C8.8,2.6,9,2.5,9,2.3c0.1-0.1,0.3-0.1,0.4-0.1c0.2,0,0.4-0.1,0.4-0.3
			c0-0.2-0.1-0.4-0.3-0.4c0,0,0,0,0,0c-0.7,0-1.1,0.3-1.1,0.7C8.3,2.4,8.4,2.6,8.6,2.6z"/>
	</g>
	<g id="Layer_1" transform="translate(7.203 0.113)">
		<path id="Path_29" d="M1.2,9.9h2.2V6.3C2.9,5.7,2.8,4.8,3.1,4c0.2-0.6,0.8-1,1.5-1.1c0.2-0.6,0.6-1.1,1.1-1.4
			c0.5-0.3,1-0.4,1.6-0.2C7.3,0.9,7.6,0.6,8,0.4C8.4,0.1,9,0,9.5,0c0.8-0.1,1.5,0.3,2,0.9C12,0.7,12.6,0.8,13.1,1
			c0.4,0.2,0.6,0.6,0.8,1C14.4,2,15,2.2,15.4,2.6c0.3,0.3,0.5,0.8,0.4,1.2c0.5,0.2,0.9,0.7,1,1.2c0,0.6-0.2,1.1-0.7,1.4v13.4
			c-0.1,1.3-1.1,2.3-2.4,2.2h-8c-1.3,0-2.3-0.9-2.4-2.2H1.2c-0.6,0-1.2-0.5-1.2-1.1V11C0,10.3,0.6,9.9,1.2,9.9z M4.1,8.4h11.3V6.6
			H4.1V8.4z M3.4,12.1h-1c-0.1,0-0.1,0-0.1,0l0,5.5c0,0,0.1,0,0.1,0h1L3.4,12.1z M15.3,4.4c-0.1,0-0.2-0.1-0.2-0.2
			C15,4.1,15,4,15,3.9c0.1-0.3,0.1-0.6-0.2-0.8c-0.3-0.3-0.8-0.4-1.2-0.2c-0.1,0-0.2,0-0.3,0c-0.1-0.1-0.2-0.2-0.2-0.3
			c0-0.3-0.2-0.7-0.5-0.9c-0.4-0.2-0.9-0.2-1.3,0.1c-0.1,0.1-0.3,0.1-0.4,0c-0.1-0.1-0.2-0.2-0.2-0.3c0-0.4-0.7-0.7-1.3-0.7
			C9.1,0.7,8.7,0.8,8.4,1C8.1,1.2,7.9,1.5,7.9,1.8c0,0.1-0.1,0.2-0.2,0.3c-0.1,0.1-0.2,0.1-0.4,0C6.9,1.9,6.4,1.9,6,2.2
			C5.6,2.4,5.3,2.8,5.3,3.3c0,0.2-0.2,0.4-0.4,0.4c0,0,0,0,0,0C4.4,3.6,4,3.9,3.8,4.3C3.6,4.8,3.6,5.4,3.9,5.8h11.7
			c0.3-0.1,0.4-0.4,0.4-0.7C16,4.7,15.7,4.4,15.3,4.4L15.3,4.4z M5.8,21.3h8c0.9,0,1.6-0.6,1.6-1.5V9.2H4.1v10.7
			C4.2,20.7,4.9,21.3,5.8,21.3z M0.8,18.7c0,0.2,0.2,0.4,0.5,0.4h2.2v-0.7h-1c-0.4,0-0.8-0.3-0.8-0.7v-5.5c0-0.4,0.4-0.8,0.8-0.7h1
			v-0.7H1.2c-0.2,0-0.4,0.1-0.5,0.4L0.8,18.7z"/>
		<path id="Path_30" d="M13.1,10.3c0.6,0,1.1,0.5,1.1,1.1v7.7c0,0.6-0.5,1.1-1.1,1.1c-0.6,0-1.1-0.5-1.1-1.1v-7.7
			C12,10.7,12.5,10.2,13.1,10.3z M12.8,19.1c0,0.2,0.2,0.4,0.4,0.4c0.2,0,0.3-0.2,0.4-0.4v-7.7c0-0.2-0.2-0.4-0.4-0.4
			c-0.2,0-0.3,0.2-0.4,0.4V19.1z"/>
		<path id="Path_31" d="M9.8,10.3c0.6,0,1.1,0.5,1.1,1.1v7.7c0,0.6-0.5,1.1-1.1,1.1c-0.6,0-1.1-0.5-1.1-1.1v-7.7
			C8.6,10.7,9.2,10.2,9.8,10.3z M9.4,19.1c0,0.2,0.2,0.4,0.4,0.4c0.2,0,0.3-0.2,0.4-0.4v-7.7c0-0.2-0.2-0.4-0.4-0.4
			c-0.2,0-0.3,0.2-0.4,0.4V19.1z"/>
		<path id="Path_32" d="M6.4,10.3c0.6,0,1.1,0.5,1.1,1.1v7.7c0,0.6-0.5,1.1-1.1,1.1c-0.6,0-1.1-0.5-1.1-1.1v-7.7
			C5.3,10.7,5.8,10.2,6.4,10.3z M6,19.1c0,0.2,0.2,0.4,0.4,0.4c0.2,0,0.3-0.2,0.4-0.4v-7.7c0-0.2-0.2-0.4-0.4-0.4
			C6.2,11,6,11.2,6,11.4V19.1z"/>
		<path id="Path_33" d="M12.8,5.1c-0.2,0-0.4-0.2-0.4-0.4c0,0,0,0,0,0c0-0.4-0.5-0.7-1.1-0.7c-0.2,0-0.4-0.1-0.4-0.3
			c0-0.2,0.1-0.4,0.3-0.4c0,0,0,0,0,0c0.9-0.1,1.8,0.6,1.9,1.5C13.1,4.9,13,5.1,12.8,5.1C12.8,5.1,12.8,5.1,12.8,5.1L12.8,5.1z"/>
		<path id="Path_34" d="M7.5,4.4c-0.2,0-0.4,0.2-0.4,0.4c0,0,0,0,0,0c0,0.2-0.2,0.4-0.4,0.4c-0.2,0-0.3-0.2-0.4-0.4
			c0-0.6,0.5-1.1,1.1-1.1c0.2,0,0.4,0.1,0.4,0.3C7.9,4.2,7.8,4.4,7.5,4.4C7.5,4.4,7.5,4.4,7.5,4.4L7.5,4.4z"/>
		<path id="Path_35" d="M9.8,2.5c-0.1,0-0.3,0-0.4,0.1c0,0.2-0.2,0.3-0.4,0.3c-0.2,0-0.3-0.2-0.3-0.4c0-0.4,0.5-0.7,1.1-0.7
			c0.2,0,0.4,0.1,0.4,0.3C10.2,2.3,10,2.5,9.8,2.5C9.8,2.5,9.8,2.5,9.8,2.5L9.8,2.5z"/>
	</g>
</g>
<g id="iconfinder_32_-_Harry_Potter_-_Colour_-_Butterbeer_2730343-2" transform="translate(309.236 26.887)">
	<g id="colour-2" transform="translate(7.579 0.439)">
		<path id="Path_17-2" class="st4" d="M15.4,5.9l-12,0C2.7,5.1,2.7,2.9,4.6,2.9c0.1-1,1-1.8,2.1-1.6c0.2,0,0.4,0.1,0.6,0.2
			c0-1.8,3.8-1.8,3.8-0.4c1.5-0.7,2.3,0.3,2.3,1.1c1.1-0.4,2.3,0.4,1.9,1.5C16.2,4,16.6,5.1,15.4,5.9"/>
		<path id="Path_18-2" class="st4" d="M14.3,2.2L14.3,2.2L14.3,2.2z"/>
		<path id="Path_19-2" class="st5" d="M4.5,2.9c-0.4,0.8-0.8,2.2,0,2.9H3.4C2.7,5.1,3,2.9,4.5,2.9z"/>
		<path id="Path_20-2" class="st6" d="M14.3,4c0.1-0.8-0.5-1-1.4-0.9c-0.2,0-0.4-0.1-0.4-0.3c-0.2-0.7-0.9-1.2-1.6-1
			c-0.1,0-0.2,0-0.3,0.1c-0.2,0.1-0.4,0-0.5-0.2c-0.4-0.8-2-0.9-2.9-0.4c0-1.8,3.8-1.8,3.8-0.3c1.5-0.7,2.3,0.3,2.3,1.1
			c1.1-0.4,2.3,0.4,1.9,1.5c1.1,0.4,1.5,1.5,0.4,2.2l0,0c0-0.3-2.4,0.7-0.8-1C15,4.4,14.3,4.2,14.3,4z"/>
		<path id="Path_21-2" class="st6" d="M7.2,1.4L7.2,1.4C7.2,1.4,7.2,1.4,7.2,1.4L7.2,1.4z"/>
		<path id="Path_22-2" class="st7" d="M5.4,21.3h8c1.1,0,2-0.8,2-1.8V5.9h-12v13.6C3.4,20.5,4.3,21.4,5.4,21.3z"/>
		<path id="Path_23-2" class="st8" d="M13.9,6.3v13.2c0.1,1.2-0.8,2.1-2,2.2h1.5c1.2-0.1,2.1-1,2-2.2V6.3H13.9z"/>
		<path id="Path_24-2" class="st9" d="M4.9,5.9v13.2c-0.1,1.2,0.8,2.1,2,2.2H5.4c-1.2-0.1-2.1-1-2-2.2V5.9H4.9z"/>
		<path id="Path_25-2" class="st10" d="M3.4,9.9H0.8C0.4,9.9,0,10.2,0,10.7v7.7c0,0.4,0.4,0.8,0.8,0.7h2.5v-1.5H2
			c-0.2,0-0.4-0.1-0.5-0.4v-5.5c0-0.2,0.2-0.4,0.5-0.4h1.4V9.9z"/>
		<path id="Rectangle_2-2" class="st9" d="M12.8,10.3L12.8,10.3c0.4,0,0.8,0.3,0.8,0.8v7.7c0,0.4-0.3,0.8-0.8,0.8h0
			c-0.4,0-0.8-0.3-0.8-0.8V11C12,10.6,12.4,10.3,12.8,10.3z"/>
		<path id="Rectangle_3-2" class="st9" d="M9.4,10.3L9.4,10.3c0.4,0,0.8,0.3,0.8,0.8v7.7c0,0.4-0.3,0.8-0.8,0.8h0
			c-0.4,0-0.8-0.3-0.8-0.8V11C8.6,10.6,9,10.3,9.4,10.3z"/>
		<path id="Rectangle_4-2" class="st9" d="M6,10.3L6,10.3c0.4,0,0.8,0.3,0.8,0.8v7.7c0,0.4-0.3,0.8-0.8,0.8h0
			c-0.4,0-0.8-0.3-0.8-0.8V11C5.3,10.6,5.6,10.3,6,10.3z"/>
		<path id="Path_26-2" class="st5" d="M12.4,4.8c0.2,0,0.4-0.2,0.4-0.4c0,0,0,0,0,0c-0.1-0.9-1-1.6-1.9-1.5c-0.2,0-0.4,0.1-0.4,0.3
			c0,0.2,0.1,0.4,0.3,0.4c0,0,0,0,0,0C11.5,3.7,12,4,12,4.4C12,4.6,12.2,4.8,12.4,4.8C12.4,4.8,12.4,4.8,12.4,4.8z"/>
		<path id="Path_27-2" class="st5" d="M6.4,4.8c0.2,0,0.4-0.2,0.4-0.4c0,0,0,0,0,0C6.8,4.2,6.9,4,7.1,4c0,0,0,0,0,0
			c0.2,0,0.4-0.1,0.4-0.3c0-0.2-0.1-0.4-0.3-0.4c0,0,0,0,0,0C6.5,3.3,6,3.8,6,4.4C6,4.6,6.2,4.8,6.4,4.8C6.4,4.8,6.4,4.8,6.4,4.8z"
			/>
		<path id="Path_28-2" class="st5" d="M8.6,2.6C8.8,2.6,9,2.5,9,2.3c0.1-0.1,0.3-0.1,0.4-0.1c0.2,0,0.4-0.1,0.4-0.3
			c0-0.2-0.1-0.4-0.3-0.4c0,0,0,0,0,0c-0.7,0-1.1,0.3-1.1,0.7C8.3,2.4,8.4,2.6,8.6,2.6z"/>
	</g>
	<g id="Layer_1-2" transform="translate(7.203 0.113)">
		<path id="Path_29-2" d="M1.2,9.9h2.2V6.3C2.9,5.7,2.8,4.8,3.1,4c0.2-0.6,0.8-1,1.5-1.1c0.2-0.6,0.6-1.1,1.1-1.4
			c0.5-0.3,1-0.4,1.6-0.2C7.3,0.9,7.6,0.6,8,0.4C8.4,0.1,9,0,9.5,0c0.8-0.1,1.5,0.3,2,0.9C12,0.7,12.6,0.8,13.1,1
			c0.4,0.2,0.6,0.6,0.8,1C14.4,2,15,2.2,15.4,2.6c0.3,0.3,0.5,0.8,0.4,1.2c0.5,0.2,0.9,0.7,1,1.2c0,0.6-0.2,1.1-0.7,1.4v13.4
			c-0.1,1.3-1.1,2.3-2.4,2.2h-8c-1.3,0-2.3-0.9-2.4-2.2H1.2c-0.6,0-1.2-0.5-1.2-1.1V11C0,10.3,0.6,9.9,1.2,9.9z M4.1,8.4h11.3V6.6
			H4.1V8.4z M3.4,12.1h-1c-0.1,0-0.1,0-0.1,0l0,5.5c0,0,0.1,0,0.1,0h1L3.4,12.1z M15.3,4.4c-0.1,0-0.2-0.1-0.2-0.2
			C15,4.1,15,4,15,3.9c0.1-0.3,0.1-0.6-0.2-0.8c-0.3-0.3-0.8-0.4-1.2-0.2c-0.1,0-0.2,0-0.3,0c-0.1-0.1-0.2-0.2-0.2-0.3
			c0-0.3-0.2-0.7-0.5-0.9c-0.4-0.2-0.9-0.2-1.3,0.1c-0.1,0.1-0.3,0.1-0.4,0c-0.1-0.1-0.2-0.2-0.2-0.3c0-0.4-0.7-0.7-1.3-0.7
			C9.1,0.7,8.7,0.8,8.4,1C8.1,1.2,7.9,1.5,7.9,1.8c0,0.1-0.1,0.2-0.2,0.3c-0.1,0.1-0.2,0.1-0.4,0C6.9,1.9,6.4,1.9,6,2.2
			C5.6,2.4,5.3,2.8,5.3,3.3c0,0.2-0.2,0.4-0.4,0.4c0,0,0,0,0,0C4.4,3.6,4,3.9,3.8,4.3C3.6,4.8,3.6,5.4,3.9,5.8h11.7
			c0.3-0.1,0.4-0.4,0.4-0.7C16,4.7,15.7,4.4,15.3,4.4L15.3,4.4z M5.8,21.3h8c0.9,0,1.6-0.6,1.6-1.5V9.2H4.1v10.7
			C4.2,20.7,4.9,21.3,5.8,21.3z M0.8,18.7c0,0.2,0.2,0.4,0.5,0.4h2.2v-0.7h-1c-0.4,0-0.8-0.3-0.8-0.7v-5.5c0-0.4,0.4-0.8,0.8-0.7h1
			v-0.7H1.2c-0.2,0-0.4,0.1-0.5,0.4L0.8,18.7z"/>
		<path id="Path_30-2" d="M13.1,10.3c0.6,0,1.1,0.5,1.1,1.1v7.7c0,0.6-0.5,1.1-1.1,1.1c-0.6,0-1.1-0.5-1.1-1.1v-7.7
			C12,10.7,12.5,10.2,13.1,10.3z M12.8,19.1c0,0.2,0.2,0.4,0.4,0.4c0.2,0,0.3-0.2,0.4-0.4v-7.7c0-0.2-0.2-0.4-0.4-0.4
			c-0.2,0-0.3,0.2-0.4,0.4V19.1z"/>
		<path id="Path_31-2" d="M9.8,10.3c0.6,0,1.1,0.5,1.1,1.1v7.7c0,0.6-0.5,1.1-1.1,1.1c-0.6,0-1.1-0.5-1.1-1.1v-7.7
			C8.6,10.7,9.2,10.2,9.8,10.3z M9.4,19.1c0,0.2,0.2,0.4,0.4,0.4c0.2,0,0.3-0.2,0.4-0.4v-7.7c0-0.2-0.2-0.4-0.4-0.4
			c-0.2,0-0.3,0.2-0.4,0.4V19.1z"/>
		<path id="Path_32-2" d="M6.4,10.3c0.6,0,1.1,0.5,1.1,1.1v7.7c0,0.6-0.5,1.1-1.1,1.1c-0.6,0-1.1-0.5-1.1-1.1v-7.7
			C5.3,10.7,5.8,10.2,6.4,10.3z M6,19.1c0,0.2,0.2,0.4,0.4,0.4c0.2,0,0.3-0.2,0.4-0.4v-7.7c0-0.2-0.2-0.4-0.4-0.4
			C6.2,11,6,11.2,6,11.4V19.1z"/>
		<path id="Path_33-2" d="M12.8,5.1c-0.2,0-0.4-0.2-0.4-0.4c0,0,0,0,0,0c0-0.4-0.5-0.7-1.1-0.7c-0.2,0-0.4-0.1-0.4-0.3
			c0-0.2,0.1-0.4,0.3-0.4c0,0,0,0,0,0c0.9-0.1,1.8,0.6,1.9,1.5C13.1,4.9,13,5.1,12.8,5.1C12.8,5.1,12.8,5.1,12.8,5.1L12.8,5.1z"/>
		<path id="Path_34-2" d="M7.5,4.4c-0.2,0-0.4,0.2-0.4,0.4c0,0,0,0,0,0c0,0.2-0.2,0.4-0.4,0.4c-0.2,0-0.3-0.2-0.4-0.4
			c0-0.6,0.5-1.1,1.1-1.1c0.2,0,0.4,0.1,0.4,0.3C7.9,4.2,7.8,4.4,7.5,4.4C7.5,4.4,7.5,4.4,7.5,4.4L7.5,4.4z"/>
		<path id="Path_35-2" d="M9.8,2.5c-0.1,0-0.3,0-0.4,0.1c0,0.2-0.2,0.3-0.4,0.3c-0.2,0-0.3-0.2-0.3-0.4c0-0.4,0.5-0.7,1.1-0.7
			c0.2,0,0.4,0.1,0.4,0.3C10.2,2.3,10,2.5,9.8,2.5C9.8,2.5,9.8,2.5,9.8,2.5L9.8,2.5z"/>
	</g>
</g>
<g id="Copa" transform="translate(-334.31 -1054.946)">
	<path id="svg_6" class="st11" d="M510,1092.7h-0.7c-2.8,0-5-2.2-5-5v-7.3c0-0.9,0.7-1.7,1.6-1.7c0,0,0,0,0,0h7.3
		c0.9,0,1.7,0.7,1.7,1.6c0,0,0,0,0,0v7.3C515,1090.4,512.7,1092.6,510,1092.7z"/>
	<path id="svg_7" class="st12" d="M513.6,1084.9v2.3c0,2-1.6,3.7-3.7,3.7h-0.7c-2,0-3.7-1.6-3.7-3.7v-2.3H513.6z"/>
	<rect id="svg_8" x="508.6" y="1092.8" class="st11" width="2" height="9.3"/>
	<path id="svg_9" class="st11" d="M514.3,1104.2H505c-0.3,0-0.6-0.2-0.7-0.6c0,0,0,0,0-0.1v-0.7c0-0.3,0.2-0.6,0.6-0.7
		c0,0,0,0,0.1,0h9.3c0.3,0,0.6,0.2,0.7,0.6c0,0,0,0,0,0.1v0.7C515,1103.9,514.7,1104.2,514.3,1104.2
		C514.4,1104.2,514.3,1104.2,514.3,1104.2z"/>
</g>
<path id="Rectangle_19" class="st1" d="M38,47h9c0.6,0,1,0.4,1,1l0,0c0,0.6-0.4,1-1,1h-9c-0.6,0-1-0.4-1-1l0,0
	C37,47.4,37.4,47,38,47z"/>
<rect id="Rectangle_20" x="41" y="38" class="st1" width="2" height="9"/>
<rect id="Rectangle_21" x="37" y="24" class="st1" width="4" height="4"/>
<path id="Rectangle_22" class="st1" d="M44,24h3c0.6,0,1,0.4,1,1v2c0,0.6-0.4,1-1,1h-3c-0.6,0-1-0.4-1-1v-2C43,24.4,43.4,24,44,24z"
	/>
<path id="Rectangle_23" class="st1" d="M42.5,24L42.5,24c3,0,5.5,2.5,5.5,5.5v3c0,3-2.5,5.5-5.5,5.5l0,0c-3,0-5.5-2.5-5.5-5.5v-3
	C37,26.5,39.5,24,42.5,24z"/>
<g id="Copa-2" transform="translate(-467.31 -1054.946)">
	<path id="svg_6-2" class="st11" d="M510,1092.7h-0.7c-2.8,0-5-2.2-5-5v-7.3c0-0.9,0.7-1.7,1.6-1.7c0,0,0,0,0,0h7.3
		c0.9,0,1.7,0.7,1.7,1.6c0,0,0,0,0,0v7.3C515,1090.4,512.7,1092.6,510,1092.7z"/>
	<path id="svg_7-2" class="st12" d="M513.6,1084.9v2.3c0,2-1.6,3.7-3.7,3.7h-0.7c-2,0-3.7-1.6-3.7-3.7v-2.3H513.6z"/>
	<rect id="svg_8-2" x="508.6" y="1092.8" class="st11" width="2" height="9.3"/>
	<path id="svg_9-2" class="st11" d="M514.3,1104.2H505c-0.3,0-0.6-0.2-0.7-0.6c0,0,0,0,0-0.1v-0.7c0-0.3,0.2-0.6,0.6-0.7
		c0,0,0,0,0.1,0h9.3c0.3,0,0.6,0.2,0.7,0.6c0,0,0,0,0,0.1v0.7C515,1103.9,514.7,1104.2,514.3,1104.2
		C514.4,1104.2,514.3,1104.2,514.3,1104.2z"/>
</g>
<rect x="1" y="49.6" class="st13" width="373" height="19"/>
</svg>
