<?xml version="1.0" encoding="utf-8"?>
<!-- Generator: Adobe Illustrator 23.0.0, SVG Export Plug-In . SVG Version: 6.00 Build 0)  -->
<svg version="1.1" id="Capa_1" xmlns="http://www.w3.org/2000/svg" xmlns:xlink="http://www.w3.org/1999/xlink" x="0px" y="0px"
	 viewBox="0 0 387 289" style="enable-background:new 0 0 387 289;" xml:space="preserve">
<style type="text/css">
	.st0{fill:#FFFFFF;}
	.st1{fill:#FFFFFF;stroke:#000000;stroke-width:6;stroke-linecap:round;stroke-linejoin:round;}
	.st2{opacity:0.13;}
</style>
<rect x="70" y="222" class="st0" width="11" height="48"/>
<rect x="78" y="214" class="st0" width="11" height="48"/>
<rect x="85" y="231" class="st0" width="12" height="23"/>
<rect x="93" y="223" class="st0" width="11" height="23"/>
<rect x="99" y="216" class="st0" width="11" height="23"/>
<rect x="62" y="231" class="st0" width="11" height="48"/>
<path class="st1" d="M338.1,239c-73.9,0-196.2,0-205.1,0c-2,0-6.1,0-6.1,0c-0.4,0-3.7,0-4.1,0c-12,0-23.6-0.5-37.8,0
	c-19.1,0.7-24.3,0-36,0c-3.1,0-19.3-0.3-32.5-13.5C8.1,217.2,3,205.7,3,193.1V48.9C3,23.6,23.6,3,48.9,3h289.1
	C363.4,3,384,23.6,384,48.9v144.1C384,218.4,363.4,239,338.1,239z"/>
<line class="st1" x1="63" y1="240" x2="62" y2="286"/>
<line class="st1" x1="106" y1="241" x2="63" y2="285"/>
<path class="st0" d="M100.3,243H66.7c-0.4,0-0.7-0.3-0.7-0.7v-22.6c0-0.4,0.3-0.7,0.7-0.7h33.6c0.4,0,0.7,0.3,0.7,0.7v22.6
	C101,242.7,100.7,243,100.3,243z"/>
<g class="st2">
	<g>
		<path d="M101.6,244.9c1.9,0,1.9-3,0-3C99.6,241.9,99.6,244.9,101.6,244.9L101.6,244.9z"/>
	</g>
</g>
<g class="st2">
	<g>
		<path d="M101.2,245.3c1.9,0,1.9-3,0-3C99.3,242.3,99.3,245.3,101.2,245.3L101.2,245.3z"/>
	</g>
</g>
<g class="st2">
	<g>
		<path d="M101.2,245.3c1.9,0,1.9-3,0-3C99.3,242.3,99.3,245.3,101.2,245.3L101.2,245.3z"/>
	</g>
</g>
<g class="st2">
	<g>
		<path d="M101.2,245.3c1.9,0,1.9-3,0-3C99.3,242.3,99.3,245.3,101.2,245.3L101.2,245.3z"/>
	</g>
</g>
<g>
	<g>
		<path d="M101.5,245.2c1.9,0,1.9-3,0-3C99.6,242.2,99.6,245.2,101.5,245.2L101.5,245.2z"/>
	</g>
</g>
<g>
	<g>
		<path d="M101.5,245.2c1.9,0,1.9-3,0-3C99.6,242.2,99.6,245.2,101.5,245.2L101.5,245.2z"/>
	</g>
</g>
<g>
	<g>
		<path d="M101.2,245.3c1.9,0,1.9-3,0-3C99.2,242.3,99.2,245.3,101.2,245.3L101.2,245.3z"/>
	</g>
</g>
<g>
	<g>
		<path d="M101.9,244.6c1.9,0,1.9-3,0-3C99.9,241.6,99.9,244.6,101.9,244.6L101.9,244.6z"/>
	</g>
</g>
<g>
	<g>
		<path d="M101.4,245c1.9,0,1.9-3,0-3C99.5,242,99.5,245,101.4,245L101.4,245z"/>
	</g>
</g>
<g>
	<g>
		<path d="M100.9,245.5c1.9,0,1.9-3,0-3C99,242.5,99,245.5,100.9,245.5L100.9,245.5z"/>
	</g>
</g>
<g>
	<g>
		<path d="M101.8,244.6c1.9,0,1.9-3,0-3C99.9,241.6,99.9,244.6,101.8,244.6L101.8,244.6z"/>
	</g>
</g>
<rect x="95.5" y="231.5" transform="matrix(0.6482 -0.7615 0.7615 0.6482 -144.5254 159.167)" class="st0" width="9" height="9"/>
<g>
	<g>
		<path class="st0" d="M72.1,267.5c0.5-4.1,3.1-7.6,4-11.5c0.5-1.9-2.4-2.7-2.9-0.8c-1,4.3-3.6,7.9-4.1,12.3
			C68.9,269.4,71.9,269.4,72.1,267.5L72.1,267.5z"/>
	</g>
</g>
</svg>
