<?xml version="1.0" encoding="utf-8"?>
<!-- Generator: Adobe Illustrator 23.0.0, SVG Export Plug-In . SVG Version: 6.00 Build 0)  -->
<svg version="1.1" id="Capa_1" xmlns="http://www.w3.org/2000/svg" xmlns:xlink="http://www.w3.org/1999/xlink" x="0px" y="0px"
	 viewBox="0 0 111 45.7" style="enable-background:new 0 0 111 45.7;" xml:space="preserve">
<style type="text/css">
	.st0{fill:#572020;}
	.st1{fill:none;stroke:#000000;stroke-width:2;}
	.st2{fill:#9F614B;}
	.st3{fill:#676F4B;}
	.st4{opacity:0.1;enable-background:new    ;}
	.st5{opacity:0.2;fill:#FFFFFF;enable-background:new    ;}
	.st6{fill:#FED4A3;}
</style>
<g id="Rectangle_10" transform="translate(8.12 40.47)">
	<rect x="-8.1" y="-1.7" class="st0" width="111" height="7"/>
	<rect x="-7.1" y="-0.7" class="st1" width="109" height="5"/>
</g>
<g id="Group_1" transform="translate(0 23.12) rotate(-45)">
	<path id="svg_2" d="M28-4.7l-2-2c-0.3-0.3-0.7-0.3-1,0l-2.6,2.6c-0.3-0.1-0.6-0.1-0.8,0.1l-5.2,5.2c-2.6-0.7-5.5,0-7.4,2L-3.4,15.4
		c-1.6,1.6-1.6,4.1,0,5.6l3.5,3.5c1.6,1.6,4.1,1.6,5.6,0l12.3-12.3c2-1.9,2.7-4.8,2-7.4l5.2-5.2c0.2-0.2,0.3-0.5,0.1-0.8L28-3.8
		C28.2-4,28.2-4.5,28-4.7z"/>
	
		<rect id="svg_3" x="2" y="9.1" transform="matrix(-0.7071 -0.7071 0.7071 -0.7071 2.0404 29.1541)" class="st2" width="10.2" height="10.2"/>
	<path id="svg_4" class="st3" d="M4.8,23.6c-1,1-2.7,1-3.7,0l-3.5-3.5c-1-1-1-2.7,0-3.7l1.3-1.3l7.2,7.2L4.8,23.6z"/>
	<path id="svg_5" class="st3" d="M18.8,4.1c-0.2,0.2-0.2,0.5-0.2,0.7c0.8,2.3,0.2,4.8-1.5,6.4l-1.9,1.9L8,6l1.9-1.9
		c1.2-1.2,2.8-1.8,4.4-1.8c0.7,0,1.4,0.1,2,0.3c0.2,0.1,0.5,0,0.7-0.2l5-5l1.8,1.8L18.8,4.1z"/>
	<path id="svg_6" class="st4" d="M7.1,6.9l-7.2,7.2l0.7,0.7l7.2-7.2L7.1,6.9z"/>
	<path id="svg_7" class="st4" d="M-1.7,17.1l1.3-1.3l-0.7-0.7l-1.3,1.3c-1,1-1,2.7,0,3.7l0.6,0.6C-2.7,19.6-2.7,18.1-1.7,17.1
		L-1.7,17.1z"/>
	<path id="svg_8" class="st4" d="M15.1,2.9c0.7,0,1.4,0.1,2,0.3c0.2,0.1,0.5,0,0.7-0.2l5-5L22-2.6l-5,5c-0.2,0.2-0.5,0.2-0.7,0.2
		c-0.6-0.2-1.3-0.3-2-0.3c-1.7,0-3.3,0.7-4.4,1.8L8,6l0.7,0.7l1.9-1.9C11.8,3.6,13.4,2.9,15.1,2.9z"/>
	
		<rect id="svg_9" x="9.8" y="12.3" transform="matrix(-0.7116 -0.7026 0.7026 -0.7116 5.43 37.0437)" class="st5" width="1" height="10.2"/>
	<path id="svg_10" class="st5" d="M4.1,22.9c-1,1-2.7,1-3.7,0l0.7,0.7c1,1,2.7,1,3.7,0l1.3-1.3l-0.7-0.7L4.1,22.9z"/>
	<path id="svg_11" class="st5" d="M18.8,4.1l5-5l-0.7-0.7l-4.9,5C18,3.6,17.9,3.9,18,4.1c0.8,2.3,0.2,4.8-1.5,6.4l-1.9,1.9l0.7,0.7
		l1.9-1.9c1.7-1.7,2.3-4.2,1.5-6.4C18.6,4.6,18.7,4.3,18.8,4.1z"/>
	
		<rect id="svg_12" x="24.2" y="-5.2" transform="matrix(-0.7071 -0.7071 0.7071 -0.7071 45.2093 11.2734)" class="st6" width="1.5" height="3"/>
</g>
<g id="Group_2" transform="translate(15 23.12) rotate(-45)">
	<path id="svg_2-2" d="M28-4.7l-2-2c-0.3-0.3-0.7-0.3-1,0l-2.6,2.6c-0.3-0.1-0.6-0.1-0.8,0.1l-5.2,5.2c-2.6-0.7-5.5,0-7.4,2
		L-3.4,15.4c-1.6,1.6-1.6,4.1,0,5.6l3.5,3.5c1.6,1.6,4.1,1.6,5.6,0l12.3-12.3c2-1.9,2.7-4.8,2-7.4l5.2-5.2c0.2-0.2,0.3-0.5,0.1-0.8
		L28-3.8C28.2-4,28.2-4.5,28-4.7z"/>
	
		<rect id="svg_3-2" x="2" y="9.1" transform="matrix(-0.7071 -0.7071 0.7071 -0.7071 2.0404 29.1541)" class="st2" width="10.2" height="10.2"/>
	<path id="svg_4-2" class="st3" d="M4.8,23.6c-1,1-2.7,1-3.7,0l-3.5-3.5c-1-1-1-2.7,0-3.7l1.3-1.3l7.2,7.2L4.8,23.6z"/>
	<path id="svg_5-2" class="st3" d="M18.8,4.1c-0.2,0.2-0.2,0.5-0.2,0.7c0.8,2.3,0.2,4.8-1.5,6.4l-1.9,1.9L8,6l1.9-1.9
		c1.2-1.2,2.8-1.8,4.4-1.8c0.7,0,1.4,0.1,2,0.3c0.2,0.1,0.5,0,0.7-0.2l5-5l1.8,1.8L18.8,4.1z"/>
	<path id="svg_6-2" class="st4" d="M7.1,6.9l-7.2,7.2l0.7,0.7l7.2-7.2L7.1,6.9z"/>
	<path id="svg_7-2" class="st4" d="M-1.7,17.1l1.3-1.3l-0.7-0.7l-1.3,1.3c-1,1-1,2.7,0,3.7l0.6,0.6C-2.7,19.6-2.7,18.1-1.7,17.1
		L-1.7,17.1z"/>
	<path id="svg_8-2" class="st4" d="M15.1,2.9c0.7,0,1.4,0.1,2,0.3c0.2,0.1,0.5,0,0.7-0.2l5-5L22-2.6l-5,5c-0.2,0.2-0.5,0.2-0.7,0.2
		c-0.6-0.2-1.3-0.3-2-0.3c-1.7,0-3.3,0.7-4.4,1.8L8,6l0.7,0.7l1.9-1.9C11.8,3.6,13.4,2.9,15.1,2.9z"/>
	
		<rect id="svg_9-2" x="9.8" y="12.3" transform="matrix(-0.7116 -0.7026 0.7026 -0.7116 5.43 37.0437)" class="st5" width="1" height="10.2"/>
	<path id="svg_10-2" class="st5" d="M4.1,22.9c-1,1-2.7,1-3.7,0l0.7,0.7c1,1,2.7,1,3.7,0l1.3-1.3l-0.7-0.7L4.1,22.9z"/>
	<path id="svg_11-2" class="st5" d="M18.8,4.1l5-5l-0.7-0.7l-4.9,5C18,3.6,17.9,3.9,18,4.1c0.8,2.3,0.2,4.8-1.5,6.4l-1.9,1.9
		l0.7,0.7l1.9-1.9c1.7-1.7,2.3-4.2,1.5-6.4C18.6,4.6,18.7,4.3,18.8,4.1z"/>
	
		<rect id="svg_12-2" x="24.2" y="-5.2" transform="matrix(-0.7071 -0.7071 0.7071 -0.7071 45.2093 11.2734)" class="st6" width="1.5" height="3"/>
</g>
<g id="Group_3" transform="translate(31 23.12) rotate(-45)">
	<path id="svg_2-3" d="M28-4.7l-2-2c-0.3-0.3-0.7-0.3-1,0l-2.6,2.6c-0.3-0.1-0.6-0.1-0.8,0.1l-5.2,5.2c-2.6-0.7-5.5,0-7.4,2
		L-3.4,15.4c-1.6,1.6-1.6,4.1,0,5.6l3.5,3.5c1.6,1.6,4.1,1.6,5.6,0l12.3-12.3c2-1.9,2.7-4.8,2-7.4l5.2-5.2c0.2-0.2,0.3-0.5,0.1-0.8
		L28-3.8C28.2-4,28.2-4.5,28-4.7z"/>
	
		<rect id="svg_3-3" x="2" y="9.1" transform="matrix(-0.7071 -0.7071 0.7071 -0.7071 2.0404 29.1541)" class="st2" width="10.2" height="10.2"/>
	<path id="svg_4-3" class="st3" d="M4.8,23.6c-1,1-2.7,1-3.7,0l-3.5-3.5c-1-1-1-2.7,0-3.7l1.3-1.3l7.2,7.2L4.8,23.6z"/>
	<path id="svg_5-3" class="st3" d="M18.8,4.1c-0.2,0.2-0.2,0.5-0.2,0.7c0.8,2.3,0.2,4.8-1.5,6.4l-1.9,1.9L8,6l1.9-1.9
		c1.2-1.2,2.8-1.8,4.4-1.8c0.7,0,1.4,0.1,2,0.3c0.2,0.1,0.5,0,0.7-0.2l5-5l1.8,1.8L18.8,4.1z"/>
	<path id="svg_6-3" class="st4" d="M7.1,6.9l-7.2,7.2l0.7,0.7l7.2-7.2L7.1,6.9z"/>
	<path id="svg_7-3" class="st4" d="M-1.7,17.1l1.3-1.3l-0.7-0.7l-1.3,1.3c-1,1-1,2.7,0,3.7l0.6,0.6C-2.7,19.6-2.7,18.1-1.7,17.1
		L-1.7,17.1z"/>
	<path id="svg_8-3" class="st4" d="M15.1,2.9c0.7,0,1.4,0.1,2,0.3c0.2,0.1,0.5,0,0.7-0.2l5-5L22-2.6l-5,5c-0.2,0.2-0.5,0.2-0.7,0.2
		c-0.6-0.2-1.3-0.3-2-0.3c-1.7,0-3.3,0.7-4.4,1.8L8,6l0.7,0.7l1.9-1.9C11.8,3.6,13.4,2.9,15.1,2.9z"/>
	
		<rect id="svg_9-3" x="9.8" y="12.3" transform="matrix(-0.7116 -0.7026 0.7026 -0.7116 5.43 37.0437)" class="st5" width="1" height="10.2"/>
	<path id="svg_10-3" class="st5" d="M4.1,22.9c-1,1-2.7,1-3.7,0l0.7,0.7c1,1,2.7,1,3.7,0l1.3-1.3l-0.7-0.7L4.1,22.9z"/>
	<path id="svg_11-3" class="st5" d="M18.8,4.1l5-5l-0.7-0.7l-4.9,5C18,3.6,17.9,3.9,18,4.1c0.8,2.3,0.2,4.8-1.5,6.4l-1.9,1.9
		l0.7,0.7l1.9-1.9c1.7-1.7,2.3-4.2,1.5-6.4C18.6,4.6,18.7,4.3,18.8,4.1z"/>
	
		<rect id="svg_12-3" x="24.2" y="-5.2" transform="matrix(-0.7071 -0.7071 0.7071 -0.7071 45.2093 11.2734)" class="st6" width="1.5" height="3"/>
</g>
<g id="Group_4" transform="translate(47 23.12) rotate(-45)">
	<path id="svg_2-4" d="M28-4.7l-2-2c-0.3-0.3-0.7-0.3-1,0l-2.6,2.6c-0.3-0.1-0.6-0.1-0.8,0.1l-5.2,5.2c-2.6-0.7-5.5,0-7.4,2
		L-3.4,15.4c-1.6,1.6-1.6,4.1,0,5.6l3.5,3.5c1.6,1.6,4.1,1.6,5.6,0l12.3-12.3c2-1.9,2.7-4.8,2-7.4l5.2-5.2c0.2-0.2,0.3-0.5,0.1-0.8
		L28-3.8C28.2-4,28.2-4.5,28-4.7z"/>
	
		<rect id="svg_3-4" x="2" y="9.1" transform="matrix(-0.7071 -0.7071 0.7071 -0.7071 2.0404 29.1541)" class="st2" width="10.2" height="10.2"/>
	<path id="svg_4-4" class="st3" d="M4.8,23.6c-1,1-2.7,1-3.7,0l-3.5-3.5c-1-1-1-2.7,0-3.7l1.3-1.3l7.2,7.2L4.8,23.6z"/>
	<path id="svg_5-4" class="st3" d="M18.8,4.1c-0.2,0.2-0.2,0.5-0.2,0.7c0.8,2.3,0.2,4.8-1.5,6.4l-1.9,1.9L8,6l1.9-1.9
		c1.2-1.2,2.8-1.8,4.4-1.8c0.7,0,1.4,0.1,2,0.3c0.2,0.1,0.5,0,0.7-0.2l5-5l1.8,1.8L18.8,4.1z"/>
	<path id="svg_6-4" class="st4" d="M7.1,6.9l-7.2,7.2l0.7,0.7l7.2-7.2L7.1,6.9z"/>
	<path id="svg_7-4" class="st4" d="M-1.7,17.1l1.3-1.3l-0.7-0.7l-1.3,1.3c-1,1-1,2.7,0,3.7l0.6,0.6C-2.7,19.6-2.7,18.1-1.7,17.1
		L-1.7,17.1z"/>
	<path id="svg_8-4" class="st4" d="M15.1,2.9c0.7,0,1.4,0.1,2,0.3c0.2,0.1,0.5,0,0.7-0.2l5-5L22-2.6l-5,5c-0.2,0.2-0.5,0.2-0.7,0.2
		c-0.6-0.2-1.3-0.3-2-0.3c-1.7,0-3.3,0.7-4.4,1.8L8,6l0.7,0.7l1.9-1.9C11.8,3.6,13.4,2.9,15.1,2.9z"/>
	
		<rect id="svg_9-4" x="9.8" y="12.3" transform="matrix(-0.7116 -0.7026 0.7026 -0.7116 5.43 37.0437)" class="st5" width="1" height="10.2"/>
	<path id="svg_10-4" class="st5" d="M4.1,22.9c-1,1-2.7,1-3.7,0l0.7,0.7c1,1,2.7,1,3.7,0l1.3-1.3l-0.7-0.7L4.1,22.9z"/>
	<path id="svg_11-4" class="st5" d="M18.8,4.1l5-5l-0.7-0.7l-4.9,5C18,3.6,17.9,3.9,18,4.1c0.8,2.3,0.2,4.8-1.5,6.4l-1.9,1.9
		l0.7,0.7l1.9-1.9c1.7-1.7,2.3-4.2,1.5-6.4C18.6,4.6,18.7,4.3,18.8,4.1z"/>
	
		<rect id="svg_12-4" x="24.2" y="-5.2" transform="matrix(-0.7071 -0.7071 0.7071 -0.7071 45.2093 11.2734)" class="st6" width="1.5" height="3"/>
</g>
<g id="Group_5" transform="translate(64 23.12) rotate(-45)">
	<path id="svg_2-5" d="M28-4.7l-2-2c-0.3-0.3-0.7-0.3-1,0l-2.6,2.6c-0.3-0.1-0.6-0.1-0.8,0.1l-5.2,5.2c-2.6-0.7-5.5,0-7.4,2
		L-3.4,15.4c-1.6,1.6-1.6,4.1,0,5.6l3.5,3.5c1.6,1.6,4.1,1.6,5.6,0l12.3-12.3c2-1.9,2.7-4.8,2-7.4l5.2-5.2c0.2-0.2,0.3-0.5,0.1-0.8
		L28-3.8C28.2-4,28.2-4.5,28-4.7z"/>
	
		<rect id="svg_3-5" x="2" y="9.1" transform="matrix(-0.7071 -0.7071 0.7071 -0.7071 2.0404 29.1541)" class="st2" width="10.2" height="10.2"/>
	<path id="svg_4-5" class="st3" d="M4.8,23.6c-1,1-2.7,1-3.7,0l-3.5-3.5c-1-1-1-2.7,0-3.7l1.3-1.3l7.2,7.2L4.8,23.6z"/>
	<path id="svg_5-5" class="st3" d="M18.8,4.1c-0.2,0.2-0.2,0.5-0.2,0.7c0.8,2.3,0.2,4.8-1.5,6.4l-1.9,1.9L8,6l1.9-1.9
		c1.2-1.2,2.8-1.8,4.4-1.8c0.7,0,1.4,0.1,2,0.3c0.2,0.1,0.5,0,0.7-0.2l5-5l1.8,1.8L18.8,4.1z"/>
	<path id="svg_6-5" class="st4" d="M7.1,6.9l-7.2,7.2l0.7,0.7l7.2-7.2L7.1,6.9z"/>
	<path id="svg_7-5" class="st4" d="M-1.7,17.1l1.3-1.3l-0.7-0.7l-1.3,1.3c-1,1-1,2.7,0,3.7l0.6,0.6C-2.7,19.6-2.7,18.1-1.7,17.1
		L-1.7,17.1z"/>
	<path id="svg_8-5" class="st4" d="M15.1,2.9c0.7,0,1.4,0.1,2,0.3c0.2,0.1,0.5,0,0.7-0.2l5-5L22-2.6l-5,5c-0.2,0.2-0.5,0.2-0.7,0.2
		c-0.6-0.2-1.3-0.3-2-0.3c-1.7,0-3.3,0.7-4.4,1.8L8,6l0.7,0.7l1.9-1.9C11.8,3.6,13.4,2.9,15.1,2.9z"/>
	
		<rect id="svg_9-5" x="9.8" y="12.3" transform="matrix(-0.7116 -0.7026 0.7026 -0.7116 5.43 37.0437)" class="st5" width="1" height="10.2"/>
	<path id="svg_10-5" class="st5" d="M4.1,22.9c-1,1-2.7,1-3.7,0l0.7,0.7c1,1,2.7,1,3.7,0l1.3-1.3l-0.7-0.7L4.1,22.9z"/>
	<path id="svg_11-5" class="st5" d="M18.8,4.1l5-5l-0.7-0.7l-4.9,5C18,3.6,17.9,3.9,18,4.1c0.8,2.3,0.2,4.8-1.5,6.4l-1.9,1.9
		l0.7,0.7l1.9-1.9c1.7-1.7,2.3-4.2,1.5-6.4C18.6,4.6,18.7,4.3,18.8,4.1z"/>
	
		<rect id="svg_12-5" x="24.2" y="-5.2" transform="matrix(-0.7071 -0.7071 0.7071 -0.7071 45.2093 11.2734)" class="st6" width="1.5" height="3"/>
</g>
<g id="Group_6" transform="translate(81 23.12) rotate(-45)">
	<path id="svg_2-6" d="M28-4.7l-2-2c-0.3-0.3-0.7-0.3-1,0l-2.6,2.6c-0.3-0.1-0.6-0.1-0.8,0.1l-5.2,5.2c-2.6-0.7-5.5,0-7.4,2
		L-3.4,15.4c-1.6,1.6-1.6,4.1,0,5.6l3.5,3.5c1.6,1.6,4.1,1.6,5.6,0l12.3-12.3c2-1.9,2.7-4.8,2-7.4l5.2-5.2c0.2-0.2,0.3-0.5,0.1-0.8
		L28-3.8C28.2-4,28.2-4.5,28-4.7z"/>
	
		<rect id="svg_3-6" x="2" y="9.1" transform="matrix(-0.7071 -0.7071 0.7071 -0.7071 2.0404 29.1541)" class="st2" width="10.2" height="10.2"/>
	<path id="svg_4-6" class="st3" d="M4.8,23.6c-1,1-2.7,1-3.7,0l-3.5-3.5c-1-1-1-2.7,0-3.7l1.3-1.3l7.2,7.2L4.8,23.6z"/>
	<path id="svg_5-6" class="st3" d="M18.8,4.1c-0.2,0.2-0.2,0.5-0.2,0.7c0.8,2.3,0.2,4.8-1.5,6.4l-1.9,1.9L8,6l1.9-1.9
		c1.2-1.2,2.8-1.8,4.4-1.8c0.7,0,1.4,0.1,2,0.3c0.2,0.1,0.5,0,0.7-0.2l5-5l1.8,1.8L18.8,4.1z"/>
	<path id="svg_6-6" class="st4" d="M7.1,6.9l-7.2,7.2l0.7,0.7l7.2-7.2L7.1,6.9z"/>
	<path id="svg_7-6" class="st4" d="M-1.7,17.1l1.3-1.3l-0.7-0.7l-1.3,1.3c-1,1-1,2.7,0,3.7l0.6,0.6C-2.7,19.6-2.7,18.1-1.7,17.1
		L-1.7,17.1z"/>
	<path id="svg_8-6" class="st4" d="M15.1,2.9c0.7,0,1.4,0.1,2,0.3c0.2,0.1,0.5,0,0.7-0.2l5-5L22-2.6l-5,5c-0.2,0.2-0.5,0.2-0.7,0.2
		c-0.6-0.2-1.3-0.3-2-0.3c-1.7,0-3.3,0.7-4.4,1.8L8,6l0.7,0.7l1.9-1.9C11.8,3.6,13.4,2.9,15.1,2.9z"/>
	
		<rect id="svg_9-6" x="9.8" y="12.3" transform="matrix(-0.7116 -0.7026 0.7026 -0.7116 5.43 37.0437)" class="st5" width="1" height="10.2"/>
	<path id="svg_10-6" class="st5" d="M4.1,22.9c-1,1-2.7,1-3.7,0l0.7,0.7c1,1,2.7,1,3.7,0l1.3-1.3l-0.7-0.7L4.1,22.9z"/>
	<path id="svg_11-6" class="st5" d="M18.8,4.1l5-5l-0.7-0.7l-4.9,5C18,3.6,17.9,3.9,18,4.1c0.8,2.3,0.2,4.8-1.5,6.4l-1.9,1.9
		l0.7,0.7l1.9-1.9c1.7-1.7,2.3-4.2,1.5-6.4C18.6,4.6,18.7,4.3,18.8,4.1z"/>
	
		<rect id="svg_12-6" x="24.2" y="-5.2" transform="matrix(-0.7071 -0.7071 0.7071 -0.7071 45.2093 11.2734)" class="st6" width="1.5" height="3"/>
</g>
</svg>
