<?xml version="1.0" encoding="utf-8"?>
<!-- Generator: Adobe Illustrator 23.0.0, SVG Export Plug-In . SVG Version: 6.00 Build 0)  -->
<svg version="1.1" id="Capa_1" xmlns="http://www.w3.org/2000/svg" xmlns:xlink="http://www.w3.org/1999/xlink" x="0px" y="0px"
	 viewBox="0 0 24.9 24.9" style="enable-background:new 0 0 24.9 24.9;" xml:space="preserve">
<style type="text/css">
	.st0{fill:#572020;stroke:#000000;stroke-width:1.5;}
</style>
<g id="plus" transform="translate(-7.25 -7.25)">
	<path id="Path_37" class="st0" d="M19.7,8C13.2,8,8,13.2,8,19.7s5.2,11.7,11.7,11.7c6.5,0,11.7-5.2,11.7-11.7
		C31.4,13.2,26.2,8,19.7,8C19.7,8,19.7,8,19.7,8z M26.5,21c0,0.3-0.3,0.6-0.6,0.6h-4.3v4.3c0,0.3-0.3,0.6-0.6,0.6h-2.6
		c-0.3,0-0.6-0.3-0.6-0.6v-4.3h-4.3c-0.3,0-0.6-0.3-0.6-0.6v-2.6c0-0.3,0.3-0.6,0.6-0.6h4.3v-4.3c0-0.3,0.3-0.6,0.6-0.6H21
		c0.3,0,0.6,0.3,0.6,0.6v4.3h4.3c0.3,0,0.6,0.3,0.6,0.6L26.5,21z"/>
</g>
</svg>
