<?xml version="1.0" encoding="utf-8"?>
<!-- Generator: Adobe Illustrator 23.0.0, SVG Export Plug-In . SVG Version: 6.00 Build 0)  -->
<svg version="1.1" id="Capa_1" xmlns="http://www.w3.org/2000/svg" xmlns:xlink="http://www.w3.org/1999/xlink" x="0px" y="0px"
	 viewBox="0 0 267.2 183" style="enable-background:new 0 0 267.2 183;" xml:space="preserve">
<style type="text/css">
	.st0{fill:#461717;}
	.st1{fill:none;stroke:#000000;stroke-width:3;}
	.st2{fill:#E0E0E0;}
	.st3{fill:#C9C8C7;}
	.st4{fill:#F4F4F4;}
	.st5{fill:#FF9F00;}
	.st6{fill:#FFB15C;}
	.st7{fill:#E28703;}
	.st8{fill:#616161;}
	.st9{fill:#572020;stroke:#000000;stroke-width:3;stroke-miterlimit:10;}
</style>
<g id="Rectangle_1" transform="translate(130.838 134)">
	<rect x="-11.3" y="0" class="st0" width="28" height="49"/>
	<rect x="-9.8" y="1.5" class="st1" width="25" height="46"/>
</g>
<g id="iconfinder_32_-_Harry_Potter_-_Colour_-_Butterbeer_2730343" transform="translate(197.634 -0.113)">
	<g id="colour" transform="translate(8.228 1.254)">
		<path id="Path_17" class="st2" d="M-8.7,20.6l40.9-0.1c2.6-2.6,2.6-10.3-3.9-10.3c0-2.6-3.9-7.7-9-5.1c0-6.4-12.9-6.4-12.9-1.3
			c-5.1-2.6-7.7,1-7.7,3.9c-3.8-1.4-7.7,1.2-6.4,5c-3.9,1.3-5.1,5.1-1.3,7.7"/>
		<path id="Path_18" class="st2" d="M-5.1,7.5L-5.1,7.5L-5.1,7.5L-5.1,7.5z"/>
		<path id="Path_19" class="st3" d="M28.4,10.1c1.4,2.7,2.6,7.7,0,10.3h3.9C34.9,17.9,33.7,10.3,28.4,10.1z"/>
		<path id="Path_20" class="st4" d="M-4.9,14.1c-0.4-2.9,1.8-3.4,4.8-3c0.6,0.1,1.2-0.3,1.4-0.9C1.9,8,4,5.8,7.6,7
			C8.3,7.2,9,6.9,9.2,6.3c1.3-2.7,6.8-3.2,10.1-1.4C19.2-1.4,6.5-1.4,6.5,3.7c-5.1-2.6-7.7,1-7.7,3.9C-5.1,6.3-9,8.9-7.7,12.7
			c-3.9,1.3-5.1,5.1-1.3,7.7l0.2,0.1c0.1-1.1,8.1,2.4,2.7-3.6C-7.5,15.4-4.8,14.7-4.9,14.1z"/>
		<path id="Path_21" class="st4" d="M19.4,5L19.4,5C19.3,4.9,19.3,5,19.4,5C19.3,5,19.4,5,19.4,5z"/>
		<path id="Path_22" class="st5" d="M25.6,74.6H-1.9c-3.7,0.1-6.7-2.8-6.9-6.4V20.6h41.2v47.6C32.3,71.8,29.2,74.7,25.6,74.6
			L25.6,74.6z"/>
		<path id="Path_23" class="st6" d="M-3.6,21.9v46.3c0,4.3,3.1,7.7,6.9,7.7h-5.1c-3.8,0-6.9-3.5-6.9-7.7V21.9H-3.6z"/>
		<path id="Path_24" class="st7" d="M27.3,20.6v46.3c0,4.3-3.1,7.7-6.9,7.7h5.1c3.8,0,6.9-3.5,6.9-7.7V20.6H27.3z"/>
		<path id="Path_25" class="st8" d="M32.4,34.7h8.7c1.5-0.1,2.8,1.1,2.9,2.6v27c-0.1,1.5-1.4,2.7-2.9,2.6h-8.7v-5.1h4.8
			c0.8,0.1,1.5-0.5,1.6-1.3V41.2c-0.1-0.8-0.8-1.4-1.6-1.3h-4.8V34.7z"/>
		<path id="Rectangle_2" class="st7" d="M-0.3,36h1.1c1.1,0,2,0.9,2,2v28.2c0,1.1-0.9,2-2,2h-1.1c-1.1,0-2-0.9-2-2V38
			C-2.3,36.9-1.4,36-0.3,36z"/>
		<path id="Rectangle_3" class="st7" d="M11.3,36h1.1c1.1,0,2,0.9,2,2v28.2c0,1.1-0.9,2-2,2h-1.1c-1.1,0-2-0.9-2-2V38
			C9.3,36.9,10.2,36,11.3,36z"/>
		<path id="Rectangle_4" class="st7" d="M22.8,36H24c1.1,0,2,0.9,2,2v28.2c0,1.1-0.9,2-2,2h-1.1c-1.1,0-2-0.9-2-2V38
			C20.8,36.9,21.7,36,22.8,36z"/>
		<path id="Path_26" class="st3" d="M1.5,16.7c-0.7,0-1.3-0.6-1.3-1.3c0-2.8,2.9-5.1,6.4-5.1c0.7,0,1.3,0.6,1.3,1.3
			s-0.6,1.3-1.3,1.3c-2.1,0-3.9,1.2-3.9,2.6C2.8,16.1,2.3,16.7,1.5,16.7z"/>
		<path id="Path_27" class="st3" d="M22.1,16.7c-0.7,0-1.3-0.6-1.3-1.3s-0.6-1.3-1.3-1.3c-0.7,0-1.3-0.6-1.3-1.3s0.6-1.3,1.3-1.3
			c2.1,0,3.9,1.7,3.9,3.9C23.4,16.1,22.8,16.7,22.1,16.7L22.1,16.7z"/>
		<path id="Path_28" class="st3" d="M14.4,9c-0.6,0-1.1-0.4-1.3-1c-0.4-0.2-0.9-0.3-1.3-0.3c-0.7,0-1.3-0.6-1.3-1.3s0.6-1.3,1.3-1.3
			l0,0c2.2,0,3.9,1.1,3.9,2.6C15.7,8.4,15.1,9,14.4,9z"/>
	</g>
	<g id="Layer_1" transform="translate(7.203 0.113)">
		<path id="Path_29" d="M42.1,34.6h-7.4V22.2c1.7-2.4,2.1-5.4,1-8.1c-0.8-2.1-2.8-3.6-5-3.8c-0.6-2-1.9-3.7-3.7-4.9
			c-1.6-1-3.6-1.3-5.4-0.8c-0.5-1.3-1.4-2.4-2.5-3.1c-1.6-1-3.5-1.5-5.4-1.4c-3.3,0-5.9,1.3-6.8,3.2C5.1,2.5,3.1,2.7,1.5,3.6
			C0.2,4.5-0.7,5.8-1.1,7.3C-3.1,7-5,7.6-6.5,9c-1.1,1.1-1.7,2.7-1.4,4.3c-1.8,0.8-3,2.4-3.4,4.3c-0.2,1.9,0.7,3.8,2.3,4.9v46.9
			c0.1,4.4,3.8,7.8,8.1,7.7h27.4c4.4,0.1,8-3.3,8.1-7.7H42c2.2,0.1,4.1-1.6,4.2-3.9v-27C46.2,36.2,44.3,34.5,42.1,34.6L42.1,34.6z
			 M32.2,29.4H-6.4V23h38.6L32.2,29.4z M34.7,42.3h3.5c0.2,0,0.3,0.1,0.3,0v19.2c-0.1,0.1-0.2,0.1-0.4,0.1h-3.5V42.3H34.7z M-6,15.2
			c0.7-0.2,1-1,0.8-1.6l0,0c-0.4-1-0.2-2.1,0.5-2.8c1.2-1,2.8-1.3,4.3-0.7C0.3,10.3,1,9.9,1.2,9.3c0-0.1,0.1-0.3,0.1-0.4
			c0-1.2,0.6-2.3,1.6-3c1.4-0.6,3-0.5,4.3,0.3c0.6,0.3,1.4,0.1,1.7-0.6C9,5.4,9,5.2,9,5c0-1.6,2.4-2.4,4.6-2.4c1.4,0,2.8,0.3,4.1,1
			c1,0.5,1.6,1.6,1.6,2.7c0,0.7,0.6,1.3,1.3,1.3c0.2,0,0.4,0,0.6-0.1c1.4-0.8,3.1-0.8,4.5,0.1c1.4,0.8,2.4,2.3,2.6,3.9
			c0,0.7,0.6,1.3,1.3,1.3l0,0c1.6-0.2,3.2,0.8,3.8,2.3c0.7,1.8,0.5,3.8-0.5,5.4H-7.3C-8.2,20-8.8,19-8.8,17.9
			C-8.4,16.5-7.3,15.5-6,15.2L-6,15.2z M26.6,74.4H-0.9c-3,0.1-5.4-2.2-5.6-5.1V32h38.6v37.3C32,72.3,29.5,74.6,26.6,74.4z
			 M43.7,65.4c-0.1,0.8-0.8,1.4-1.6,1.3h-7.4v-2.6h3.5c1.5,0.1,2.8-1.1,2.9-2.6V42.3c-0.1-1.5-1.4-2.7-2.9-2.6h-3.5v-2.6h7.4
			c0.8-0.1,1.5,0.5,1.6,1.3V65.4z"/>
		<path id="Path_30" d="M1.3,35.9c-2.1,0-3.9,1.7-3.9,3.9v27c0,2.1,1.7,3.9,3.9,3.9s3.9-1.7,3.9-3.9v-27C5.1,37.6,3.4,35.9,1.3,35.9
			z M2.6,66.7C2.6,67.4,2,68,1.3,68S0,67.4,0,66.7v-27c0-0.7,0.6-1.3,1.3-1.3s1.3,0.6,1.3,1.3l0,0V66.7z"/>
		<path id="Path_31" d="M12.9,35.9c-2.1,0-3.9,1.7-3.9,3.9v27c0,2.1,1.7,3.9,3.9,3.9s3.9-1.7,3.9-3.9v-27
			C16.7,37.6,15,35.9,12.9,35.9z M14.1,66.7c0,0.7-0.6,1.3-1.3,1.3s-1.3-0.6-1.3-1.3v-27c0-0.7,0.6-1.3,1.3-1.3s1.3,0.6,1.3,1.3l0,0
			V66.7z"/>
		<path id="Path_32" d="M24.4,35.9c-2.1,0-3.9,1.7-3.9,3.9v27c0,2.1,1.7,3.9,3.9,3.9c2.1,0,3.9-1.7,3.9-3.9v-27
			C28.3,37.6,26.6,35.9,24.4,35.9z M25.7,66.7c0,0.7-0.6,1.3-1.3,1.3c-0.7,0-1.3-0.6-1.3-1.3v-27c0-0.7,0.6-1.3,1.3-1.3
			c0.7,0,1.3,0.6,1.3,1.3l0,0V66.7z"/>
		<path id="Path_33" d="M2.6,17.9c0.7,0,1.3-0.6,1.3-1.3c0-1.4,1.8-2.6,3.9-2.6C8.4,14,9,13.4,9,12.7s-0.6-1.3-1.3-1.3l0,0
			c-3.5,0-6.4,2.3-6.4,5.1C1.3,17.3,1.9,17.9,2.6,17.9z"/>
		<path id="Path_34" d="M20.6,15.3c0.7,0,1.3,0.6,1.3,1.3c0,0.7,0.6,1.3,1.3,1.3c0.7,0,1.3-0.6,1.3-1.3l0,0c0-2.1-1.7-3.9-3.9-3.9
			c-0.7,0-1.3,0.6-1.3,1.3S19.9,15.3,20.6,15.3L20.6,15.3z"/>
		<path id="Path_35" d="M12.9,8.9c0.5,0,0.9,0.1,1.3,0.3c0.2,0.7,0.8,1.1,1.5,1c0.6-0.1,1-0.7,1-1.3c0-1.5-1.6-2.6-3.9-2.6
			c-0.7,0-1.3,0.6-1.3,1.3C11.6,8.3,12.2,8.9,12.9,8.9L12.9,8.9L12.9,8.9z"/>
	</g>
</g>
<g id="iconfinder_32_-_Harry_Potter_-_Colour_-_Butterbeer_2730343-2" transform="translate(47.074 -0.113)">
	<g id="colour-2" transform="translate(8.517 1.254)">
		<path id="Path_17-2" class="st2" d="M42.6,20.6L0.8,20.4c-2.6-2.6-2.6-10.3,3.9-10.3c0-2.6,3.9-7.7,9.2-5.1
			C13.9-1.4,27-1.4,27,3.7c5.3-2.6,7.9,1,7.9,3.9c3.9-1.3,7.9,1.3,6.6,5.1c3.9,1.3,5.3,5.1,1.3,7.7"/>
		<path id="Path_18-2" class="st2" d="M38.9,7.5L38.9,7.5L38.9,7.5L38.9,7.5z"/>
		<path id="Path_19-2" class="st3" d="M4.6,10.1c-1.5,2.7-2.6,7.7,0,10.3h-4C-2,17.9-0.8,10.3,4.6,10.1z"/>
		<path id="Path_20-2" class="st4" d="M38.6,14.1c0.4-2.9-1.8-3.4-4.9-3c-0.6,0.1-1.3-0.3-1.5-0.9C31.7,8,29.5,5.8,25.8,7
			c-0.6,0.2-1.3-0.1-1.6-0.7c-1.3-2.7-6.9-3.2-10.3-1.4C14-1.4,27-1.4,27,3.7c5.3-2.6,7.9,1,7.9,3.9c3.9-1.3,7.9,1.3,6.6,5.1
			c3.9,1.3,5.3,5.1,1.3,7.7l-0.2,0.1c-0.1-1.1-8.2,2.4-2.8-3.6C41.2,15.4,38.5,14.7,38.6,14.1z"/>
		<path id="Path_21-2" class="st4" d="M13.8,5L13.8,5C13.9,4.9,13.9,5,13.8,5C13.9,5,13.8,5,13.8,5z"/>
		<path id="Path_22-2" class="st5" d="M7.5,74.6h28c3.7,0.2,6.8-2.7,7-6.4V20.6h-42v47.6C0.7,71.9,3.8,74.7,7.5,74.6L7.5,74.6z"/>
		<path id="Path_23-2" class="st6" d="M37.3,21.9v46.3c0,4.3-3.1,7.7-7,7.7h5.3c3.9,0,7-3.5,7-7.7V21.9H37.3z"/>
		<path id="Path_24-2" class="st7" d="M5.8,20.6v46.3c0,4.3,3.1,7.7,7,7.7H7.5c-3.9,0-7-3.5-7-7.7V20.6H5.8z"/>
		<path id="Path_25-2" class="st8" d="M0.5,34.7h-8.9c-1.5-0.1-2.8,1.1-3,2.6v27c0.1,1.5,1.4,2.7,3,2.6h8.9v-5.1h-4.9
			c-0.8,0.1-1.5-0.5-1.6-1.3V41.2c0.1-0.8,0.8-1.4,1.6-1.3h4.9V34.7z"/>
		<path id="Rectangle_2-2" class="st7" d="M32.7,36H34c1.1,0,2,0.9,2,2v28.2c0,1.1-0.9,2-2,2h-1.3c-1.1,0-2-0.9-2-2V38
			C30.7,36.9,31.6,36,32.7,36z"/>
		<path id="Rectangle_3-2" class="st7" d="M20.9,36h1.3c1.1,0,2,0.9,2,2v28.2c0,1.1-0.9,2-2,2h-1.3c-1.1,0-2-0.9-2-2V38
			C18.9,36.9,19.8,36,20.9,36z"/>
		<path id="Rectangle_4-2" class="st7" d="M9.1,36h1.3c1.1,0,2,0.9,2,2v28.2c0,1.1-0.9,2-2,2H9.1c-1.1,0-2-0.9-2-2V38
			C7.1,36.9,8,36,9.1,36z"/>
		<path id="Path_26-2" class="st3" d="M32,16.7c0.7,0,1.3-0.6,1.3-1.3l0,0c0-2.8-2.9-5.1-6.6-5.1c-0.7,0-1.3,0.6-1.3,1.3
			s0.6,1.3,1.3,1.3c2.1,0,3.9,1.2,3.9,2.6C30.7,16.2,31.3,16.7,32,16.7L32,16.7z"/>
		<path id="Path_27-2" class="st3" d="M11,16.7c0.7,0,1.3-0.6,1.3-1.3l0,0c0-0.7,0.6-1.3,1.3-1.3l0,0c0.7,0,1.3-0.6,1.3-1.3
			s-0.6-1.3-1.3-1.3l0,0c-2.2,0-3.9,1.7-3.9,3.9l0,0C9.7,16.2,10.3,16.7,11,16.7L11,16.7z"/>
		<path id="Path_28-2" class="st3" d="M18.9,9c0.6,0,1.1-0.4,1.3-1c0.4-0.2,0.9-0.3,1.3-0.3c0.7,0,1.3-0.6,1.3-1.3s-0.6-1.3-1.3-1.3
			l0,0c-2.3,0-3.9,1.1-3.9,2.6C17.6,8.4,18.2,9,18.9,9L18.9,9z"/>
	</g>
	<g id="Layer_1-2" transform="translate(7.203 0.113)">
		<path id="Path_29-2" d="M-7,34.6h7.6V22.2c-1.7-2.4-2.1-5.4-1-8.1c0.9-2.1,2.9-3.6,5.1-3.8c0.6-2,2-3.7,3.8-4.9
			C10,4.3,12,4,13.9,4.5c0.5-1.3,1.4-2.4,2.6-3.1c1.7-1,3.6-1.5,5.6-1.4c3.4,0,6,1.3,6.9,3.2c1.8-0.7,3.8-0.5,5.4,0.4
			c1.3,0.8,2.3,2.1,2.6,3.7C39,7,41,7.6,42.5,9c1.1,1.1,1.7,2.7,1.5,4.3c1.8,0.8,3.1,2.4,3.4,4.3c0.2,1.9-0.7,3.8-2.3,4.9v46.9
			c-0.2,4.4-3.9,7.9-8.3,7.7h-28c-4.4,0.2-8.1-3.3-8.3-7.7H-7c-2.2,0.1-4.2-1.6-4.3-3.9v-27C-11.2,36.2-9.3,34.5-7,34.6L-7,34.6z
			 M3.1,29.4h39.4V23H3.1V29.4z M0.5,42.3h-3.6c-0.2,0-0.3,0.1-0.3,0v19.2c0.1,0.1,0.2,0.1,0.4,0.1h3.6L0.5,42.3z M42.1,15.2
			c-0.3-0.1-0.6-0.3-0.8-0.6s-0.2-0.7-0.1-1c0.4-1,0.2-2.1-0.5-2.8c-1.2-1-2.9-1.3-4.4-0.7c-0.4,0.1-0.8,0.1-1.2-0.2
			c-0.3-0.2-0.5-0.6-0.5-1c0-1.2-0.6-2.4-1.6-3c-1.4-0.6-3.1-0.5-4.4,0.3c-0.4,0.2-0.9,0.2-1.3-0.1C27,5.9,26.8,5.4,26.8,5
			c0-1.6-2.4-2.4-4.7-2.4c-1.5,0-2.9,0.3-4.2,1c-1,0.5-1.6,1.6-1.6,2.7c0,0.4-0.2,0.9-0.6,1.1s-0.9,0.3-1.3,0.1
			C13,6.7,11.2,6.7,9.8,7.6c-1.4,0.8-2.4,2.3-2.7,3.9c0,0.7-0.6,1.3-1.3,1.3l0,0c-1.7-0.2-3.2,0.8-3.9,2.3c-0.7,1.8-0.5,3.8,0.5,5.4
			h41c0.9-0.5,1.5-1.5,1.5-2.6C44.5,16.5,43.5,15.5,42.1,15.2L42.1,15.2z M8.8,74.4h28c3,0.1,5.5-2.2,5.7-5.1V32H3.1v37.3
			C3.3,72.3,5.8,74.6,8.8,74.4L8.8,74.4z M-8.7,65.4c0.1,0.8,0.8,1.4,1.6,1.3h7.6v-2.6h-3.6c-1.5,0.1-2.8-1.1-3-2.6V42.3
			c0.1-1.5,1.4-2.7,3-2.6h3.6v-2.6H-7c-0.8-0.1-1.5,0.5-1.6,1.3L-8.7,65.4z"/>
		<path id="Path_30-2" d="M34.7,35.9c2.2,0,3.9,1.7,3.9,3.9v27c0,2.2-1.9,3.9-4,3.9s-3.8-1.7-3.9-3.9v-27
			C30.8,37.6,32.5,35.8,34.7,35.9L34.7,35.9z M33.4,66.7c0,0.7,0.6,1.3,1.3,1.3s1.3-0.6,1.3-1.3v-27c0-0.7-0.6-1.3-1.3-1.3
			s-1.3,0.6-1.3,1.3V66.7z"/>
		<path id="Path_31-2" d="M22.8,35.9c2.2,0,3.9,1.7,3.9,3.9v27c0,2.2-1.9,3.9-4,3.9s-3.8-1.7-3.9-3.9v-27
			C18.9,37.6,20.7,35.8,22.8,35.9L22.8,35.9z M21.5,66.7c0,0.7,0.6,1.3,1.3,1.3c0.7,0,1.3-0.6,1.3-1.3v-27c0-0.7-0.6-1.3-1.3-1.3
			c-0.7,0-1.3,0.6-1.3,1.3V66.7z"/>
		<path id="Path_32-2" d="M11,35.9c2.2,0,3.9,1.7,3.9,3.9v27c0,2.2-1.9,3.9-4,3.9S7.1,69,7,66.8v-27C7.1,37.6,8.9,35.8,11,35.9
			L11,35.9z M9.7,66.7c0,0.7,0.6,1.3,1.3,1.3s1.3-0.6,1.3-1.3v-27c0-0.7-0.6-1.3-1.3-1.3S9.7,39,9.7,39.7V66.7z"/>
		<path id="Path_33-2" d="M33.4,17.9c-0.7,0-1.3-0.6-1.3-1.3l0,0c0-1.4-1.8-2.6-3.9-2.6c-0.7,0-1.3-0.6-1.3-1.3s0.6-1.3,1.3-1.3
			c3.6,0,6.6,2.3,6.6,5.1C34.7,17.3,34.1,17.9,33.4,17.9L33.4,17.9z"/>
		<path id="Path_34-2" d="M15,15.3c-0.7,0-1.3,0.6-1.3,1.3l0,0c0,0.7-0.6,1.3-1.3,1.3s-1.3-0.6-1.3-1.3c0-2.2,1.8-3.9,3.9-3.9l0,0
			c0.7,0,1.3,0.6,1.3,1.3S15.7,15.3,15,15.3L15,15.3L15,15.3z"/>
		<path id="Path_35-2" d="M22.8,8.9c-0.5,0-0.9,0.1-1.3,0.3c-0.2,0.6-0.8,1.1-1.4,1c-0.7-0.1-1.2-0.6-1.2-1.3c0-1.5,1.7-2.6,3.9-2.6
			c0.7,0,1.3,0.6,1.3,1.3C24.1,8.3,23.6,8.9,22.8,8.9L22.8,8.9L22.8,8.9z"/>
	</g>
</g>
<g id="iconfinder_32_-_Harry_Potter_-_Colour_-_Butterbeer_2730343-3" transform="translate(12.074 -0.113)">
	<g id="colour-3" transform="translate(8.517 1.254)">
		<path id="Path_17-3" class="st2" d="M42.6,20.6L0.8,20.4c-2.6-2.6-2.6-10.3,3.9-10.3c0-2.6,3.9-7.7,9.2-5.1
			C13.9-1.4,27-1.4,27,3.7c5.3-2.6,7.9,1,7.9,3.9c3.9-1.3,7.9,1.3,6.6,5.1c3.9,1.3,5.3,5.1,1.3,7.7"/>
		<path id="Path_18-3" class="st2" d="M38.9,7.5L38.9,7.5L38.9,7.5L38.9,7.5z"/>
		<path id="Path_19-3" class="st3" d="M4.6,10.1c-1.5,2.7-2.6,7.7,0,10.3h-4C-2,17.9-0.8,10.3,4.6,10.1z"/>
		<path id="Path_20-3" class="st4" d="M38.6,14.1c0.4-2.9-1.8-3.4-4.9-3c-0.6,0.1-1.3-0.3-1.5-0.9C31.7,8,29.5,5.8,25.8,7
			c-0.6,0.2-1.3-0.1-1.6-0.7c-1.3-2.7-6.9-3.2-10.3-1.4C14-1.4,27-1.4,27,3.7c5.3-2.6,7.9,1,7.9,3.9c3.9-1.3,7.9,1.3,6.6,5.1
			c3.9,1.3,5.3,5.1,1.3,7.7l-0.2,0.1c-0.1-1.1-8.2,2.4-2.8-3.6C41.2,15.4,38.5,14.7,38.6,14.1z"/>
		<path id="Path_21-3" class="st4" d="M13.8,5L13.8,5C13.9,4.9,13.9,5,13.8,5C13.9,5,13.8,5,13.8,5z"/>
		<path id="Path_22-3" class="st5" d="M7.5,74.6h28c3.7,0.2,6.8-2.7,7-6.4V20.6h-42v47.6C0.7,71.9,3.8,74.7,7.5,74.6L7.5,74.6z"/>
		<path id="Path_23-3" class="st6" d="M37.3,21.9v46.3c0,4.3-3.1,7.7-7,7.7h5.3c3.9,0,7-3.5,7-7.7V21.9H37.3z"/>
		<path id="Path_24-3" class="st7" d="M5.8,20.6v46.3c0,4.3,3.1,7.7,7,7.7H7.5c-3.9,0-7-3.5-7-7.7V20.6H5.8z"/>
		<path id="Path_25-3" class="st8" d="M0.5,34.7h-8.9c-1.5-0.1-2.8,1.1-3,2.6v27c0.1,1.5,1.4,2.7,3,2.6h8.9v-5.1h-4.9
			c-0.8,0.1-1.5-0.5-1.6-1.3V41.2c0.1-0.8,0.8-1.4,1.6-1.3h4.9V34.7z"/>
		<path id="Rectangle_2-3" class="st7" d="M32.7,36H34c1.1,0,2,0.9,2,2v28.2c0,1.1-0.9,2-2,2h-1.3c-1.1,0-2-0.9-2-2V38
			C30.7,36.9,31.6,36,32.7,36z"/>
		<path id="Rectangle_3-3" class="st7" d="M20.9,36h1.3c1.1,0,2,0.9,2,2v28.2c0,1.1-0.9,2-2,2h-1.3c-1.1,0-2-0.9-2-2V38
			C18.9,36.9,19.8,36,20.9,36z"/>
		<path id="Rectangle_4-3" class="st7" d="M9.1,36h1.3c1.1,0,2,0.9,2,2v28.2c0,1.1-0.9,2-2,2H9.1c-1.1,0-2-0.9-2-2V38
			C7.1,36.9,8,36,9.1,36z"/>
		<path id="Path_26-3" class="st3" d="M32,16.7c0.7,0,1.3-0.6,1.3-1.3l0,0c0-2.8-2.9-5.1-6.6-5.1c-0.7,0-1.3,0.6-1.3,1.3
			s0.6,1.3,1.3,1.3c2.1,0,3.9,1.2,3.9,2.6C30.7,16.2,31.3,16.7,32,16.7L32,16.7z"/>
		<path id="Path_27-3" class="st3" d="M11,16.7c0.7,0,1.3-0.6,1.3-1.3l0,0c0-0.7,0.6-1.3,1.3-1.3l0,0c0.7,0,1.3-0.6,1.3-1.3
			s-0.6-1.3-1.3-1.3l0,0c-2.2,0-3.9,1.7-3.9,3.9l0,0C9.7,16.2,10.3,16.7,11,16.7L11,16.7z"/>
		<path id="Path_28-3" class="st3" d="M18.9,9c0.6,0,1.1-0.4,1.3-1c0.4-0.2,0.9-0.3,1.3-0.3c0.7,0,1.3-0.6,1.3-1.3s-0.6-1.3-1.3-1.3
			l0,0c-2.3,0-3.9,1.1-3.9,2.6C17.6,8.4,18.2,9,18.9,9L18.9,9z"/>
	</g>
	<g id="Layer_1-3" transform="translate(7.203 0.113)">
		<path id="Path_29-3" d="M-7,34.6h7.6V22.2c-1.7-2.4-2.1-5.4-1-8.1c0.9-2.1,2.9-3.6,5.1-3.8c0.6-2,2-3.7,3.8-4.9
			C10,4.3,12,4,13.9,4.5c0.5-1.3,1.4-2.4,2.6-3.1c1.7-1,3.6-1.5,5.6-1.4c3.4,0,6,1.3,6.9,3.2c1.8-0.7,3.8-0.5,5.4,0.4
			c1.3,0.8,2.3,2.1,2.6,3.7C39,7,41,7.6,42.5,9c1.1,1.1,1.7,2.7,1.5,4.3c1.8,0.8,3.1,2.4,3.4,4.3c0.2,1.9-0.7,3.8-2.3,4.9v46.9
			c-0.2,4.4-3.9,7.9-8.3,7.7h-28c-4.4,0.2-8.1-3.3-8.3-7.7H-7c-2.2,0.1-4.2-1.6-4.3-3.9v-27C-11.2,36.2-9.3,34.5-7,34.6L-7,34.6z
			 M3.1,29.4h39.4V23H3.1V29.4z M0.5,42.3h-3.6c-0.2,0-0.3,0.1-0.3,0v19.2c0.1,0.1,0.2,0.1,0.4,0.1h3.6L0.5,42.3z M42.1,15.2
			c-0.3-0.1-0.6-0.3-0.8-0.6s-0.2-0.7-0.1-1c0.4-1,0.2-2.1-0.5-2.8c-1.2-1-2.9-1.3-4.4-0.7c-0.4,0.1-0.8,0.1-1.2-0.2
			c-0.3-0.2-0.5-0.6-0.5-1c0-1.2-0.6-2.4-1.6-3c-1.4-0.6-3.1-0.5-4.4,0.3c-0.4,0.2-0.9,0.2-1.3-0.1C27,5.9,26.8,5.4,26.8,5
			c0-1.6-2.4-2.4-4.7-2.4c-1.5,0-2.9,0.3-4.2,1c-1,0.5-1.6,1.6-1.6,2.7c0,0.4-0.2,0.9-0.6,1.1s-0.9,0.3-1.3,0.1
			C13,6.7,11.2,6.7,9.8,7.6c-1.4,0.8-2.4,2.3-2.7,3.9c0,0.7-0.6,1.3-1.3,1.3l0,0c-1.7-0.2-3.2,0.8-3.9,2.3c-0.7,1.8-0.5,3.8,0.5,5.4
			h41c0.9-0.5,1.5-1.5,1.5-2.6C44.5,16.5,43.5,15.5,42.1,15.2L42.1,15.2z M8.8,74.4h28c3,0.1,5.5-2.2,5.7-5.1V32H3.1v37.3
			C3.3,72.3,5.8,74.6,8.8,74.4L8.8,74.4z M-8.7,65.4c0.1,0.8,0.8,1.4,1.6,1.3h7.6v-2.6h-3.6c-1.5,0.1-2.8-1.1-3-2.6V42.3
			c0.1-1.5,1.4-2.7,3-2.6h3.6v-2.6H-7c-0.8-0.1-1.5,0.5-1.6,1.3L-8.7,65.4z"/>
		<path id="Path_30-3" d="M34.7,35.9c2.2,0,3.9,1.7,3.9,3.9v27c0,2.2-1.9,3.9-4,3.9s-3.8-1.7-3.9-3.9v-27
			C30.8,37.6,32.5,35.8,34.7,35.9L34.7,35.9z M33.4,66.7c0,0.7,0.6,1.3,1.3,1.3s1.3-0.6,1.3-1.3v-27c0-0.7-0.6-1.3-1.3-1.3
			s-1.3,0.6-1.3,1.3V66.7z"/>
		<path id="Path_31-3" d="M22.8,35.9c2.2,0,3.9,1.7,3.9,3.9v27c0,2.2-1.9,3.9-4,3.9s-3.8-1.7-3.9-3.9v-27
			C18.9,37.6,20.7,35.8,22.8,35.9L22.8,35.9z M21.5,66.7c0,0.7,0.6,1.3,1.3,1.3c0.7,0,1.3-0.6,1.3-1.3v-27c0-0.7-0.6-1.3-1.3-1.3
			c-0.7,0-1.3,0.6-1.3,1.3V66.7z"/>
		<path id="Path_32-3" d="M11,35.9c2.2,0,3.9,1.7,3.9,3.9v27c0,2.2-1.9,3.9-4,3.9S7.1,69,7,66.8v-27C7.1,37.6,8.9,35.8,11,35.9
			L11,35.9z M9.7,66.7c0,0.7,0.6,1.3,1.3,1.3s1.3-0.6,1.3-1.3v-27c0-0.7-0.6-1.3-1.3-1.3S9.7,39,9.7,39.7V66.7z"/>
		<path id="Path_33-3" d="M33.4,17.9c-0.7,0-1.3-0.6-1.3-1.3l0,0c0-1.4-1.8-2.6-3.9-2.6c-0.7,0-1.3-0.6-1.3-1.3s0.6-1.3,1.3-1.3
			c3.6,0,6.6,2.3,6.6,5.1C34.7,17.3,34.1,17.9,33.4,17.9L33.4,17.9z"/>
		<path id="Path_34-3" d="M15,15.3c-0.7,0-1.3,0.6-1.3,1.3l0,0c0,0.7-0.6,1.3-1.3,1.3s-1.3-0.6-1.3-1.3c0-2.2,1.8-3.9,3.9-3.9l0,0
			c0.7,0,1.3,0.6,1.3,1.3S15.7,15.3,15,15.3L15,15.3L15,15.3z"/>
		<path id="Path_35-3" d="M22.8,8.9c-0.5,0-0.9,0.1-1.3,0.3c-0.2,0.6-0.8,1.1-1.4,1c-0.7-0.1-1.2-0.6-1.2-1.3c0-1.5,1.7-2.6,3.9-2.6
			c0.7,0,1.3,0.6,1.3,1.3C24.1,8.3,23.6,8.9,22.8,8.9L22.8,8.9L22.8,8.9z"/>
	</g>
</g>
<g id="iconfinder_32_-_Harry_Potter_-_Colour_-_Butterbeer_2730343-4" transform="translate(151.634 -0.113)">
	<g id="colour-4" transform="translate(8.228 1.254)">
		<path id="Path_17-4" class="st2" d="M-8.7,20.6l40.9-0.1c2.6-2.6,2.6-10.3-3.9-10.3c0-2.6-3.9-7.7-9-5.1c0-6.4-12.9-6.4-12.9-1.3
			c-5.1-2.6-7.7,1-7.7,3.9c-3.8-1.4-7.7,1.2-6.4,5c-3.9,1.3-5.1,5.1-1.3,7.7"/>
		<path id="Path_18-4" class="st2" d="M-5.1,7.5L-5.1,7.5L-5.1,7.5L-5.1,7.5z"/>
		<path id="Path_19-4" class="st3" d="M28.4,10.1c1.4,2.7,2.6,7.7,0,10.3h3.9C34.9,17.9,33.7,10.3,28.4,10.1z"/>
		<path id="Path_20-4" class="st4" d="M-4.9,14.1c-0.4-2.9,1.8-3.4,4.8-3c0.6,0.1,1.2-0.3,1.4-0.9C1.9,8,4,5.8,7.6,7
			C8.3,7.2,9,6.9,9.2,6.3c1.3-2.7,6.8-3.2,10.1-1.4C19.2-1.4,6.5-1.4,6.5,3.7c-5.1-2.6-7.7,1-7.7,3.9C-5.1,6.3-9,8.9-7.7,12.7
			c-3.9,1.3-5.1,5.1-1.3,7.7l0.2,0.1c0.1-1.1,8.1,2.4,2.7-3.6C-7.5,15.4-4.8,14.7-4.9,14.1z"/>
		<path id="Path_21-4" class="st4" d="M19.4,5L19.4,5C19.3,4.9,19.3,5,19.4,5C19.3,5,19.4,5,19.4,5z"/>
		<path id="Path_22-4" class="st5" d="M25.6,74.6H-1.9c-3.7,0.1-6.7-2.8-6.9-6.4V20.6h41.2v47.6C32.3,71.8,29.2,74.7,25.6,74.6
			L25.6,74.6z"/>
		<path id="Path_23-4" class="st6" d="M-3.6,21.9v46.3c0,4.3,3.1,7.7,6.9,7.7h-5.1c-3.8,0-6.9-3.5-6.9-7.7V21.9H-3.6z"/>
		<path id="Path_24-4" class="st7" d="M27.3,20.6v46.3c0,4.3-3.1,7.7-6.9,7.7h5.1c3.8,0,6.9-3.5,6.9-7.7V20.6H27.3z"/>
		<path id="Path_25-4" class="st8" d="M32.4,34.7h8.7c1.5-0.1,2.8,1.1,2.9,2.6v27c-0.1,1.5-1.4,2.7-2.9,2.6h-8.7v-5.1h4.8
			c0.8,0.1,1.5-0.5,1.6-1.3V41.2c-0.1-0.8-0.8-1.4-1.6-1.3h-4.8V34.7z"/>
		<path id="Rectangle_2-4" class="st7" d="M-0.3,36h1.1c1.1,0,2,0.9,2,2v28.2c0,1.1-0.9,2-2,2h-1.1c-1.1,0-2-0.9-2-2V38
			C-2.3,36.9-1.4,36-0.3,36z"/>
		<path id="Rectangle_3-4" class="st7" d="M11.3,36h1.1c1.1,0,2,0.9,2,2v28.2c0,1.1-0.9,2-2,2h-1.1c-1.1,0-2-0.9-2-2V38
			C9.3,36.9,10.2,36,11.3,36z"/>
		<path id="Rectangle_4-4" class="st7" d="M22.8,36H24c1.1,0,2,0.9,2,2v28.2c0,1.1-0.9,2-2,2h-1.1c-1.1,0-2-0.9-2-2V38
			C20.8,36.9,21.7,36,22.8,36z"/>
		<path id="Path_26-4" class="st3" d="M1.5,16.7c-0.7,0-1.3-0.6-1.3-1.3c0-2.8,2.9-5.1,6.4-5.1c0.7,0,1.3,0.6,1.3,1.3
			s-0.6,1.3-1.3,1.3c-2.1,0-3.9,1.2-3.9,2.6C2.8,16.1,2.3,16.7,1.5,16.7z"/>
		<path id="Path_27-4" class="st3" d="M22.1,16.7c-0.7,0-1.3-0.6-1.3-1.3s-0.6-1.3-1.3-1.3c-0.7,0-1.3-0.6-1.3-1.3s0.6-1.3,1.3-1.3
			c2.1,0,3.9,1.7,3.9,3.9C23.4,16.1,22.8,16.7,22.1,16.7L22.1,16.7z"/>
		<path id="Path_28-4" class="st3" d="M14.4,9c-0.6,0-1.1-0.4-1.3-1c-0.4-0.2-0.9-0.3-1.3-0.3c-0.7,0-1.3-0.6-1.3-1.3
			s0.6-1.3,1.3-1.3l0,0c2.2,0,3.9,1.1,3.9,2.6C15.7,8.4,15.1,9,14.4,9z"/>
	</g>
	<g id="Layer_1-4" transform="translate(7.203 0.113)">
		<path id="Path_29-4" d="M42.1,34.6h-7.4V22.2c1.7-2.4,2.1-5.4,1-8.1c-0.8-2.1-2.8-3.6-5-3.8c-0.6-2-1.9-3.7-3.7-4.9
			c-1.6-1-3.6-1.3-5.4-0.8c-0.5-1.3-1.4-2.4-2.5-3.1c-1.6-1-3.5-1.5-5.4-1.4c-3.3,0-5.9,1.3-6.8,3.2C5.1,2.5,3.1,2.7,1.5,3.6
			C0.2,4.5-0.7,5.8-1.1,7.3C-3.1,7-5,7.6-6.5,9c-1.1,1.1-1.7,2.7-1.4,4.3c-1.8,0.8-3,2.4-3.4,4.3c-0.2,1.9,0.7,3.8,2.3,4.9v46.9
			c0.1,4.4,3.8,7.8,8.1,7.7h27.4c4.4,0.1,8-3.3,8.1-7.7H42c2.2,0.1,4.1-1.6,4.2-3.9v-27C46.2,36.2,44.3,34.5,42.1,34.6L42.1,34.6z
			 M32.2,29.4H-6.4V23h38.6L32.2,29.4z M34.7,42.3h3.5c0.2,0,0.3,0.1,0.3,0v19.2c-0.1,0.1-0.2,0.1-0.4,0.1h-3.5V42.3H34.7z M-6,15.2
			c0.7-0.2,1-1,0.8-1.6l0,0c-0.4-1-0.2-2.1,0.5-2.8c1.2-1,2.8-1.3,4.3-0.7C0.3,10.3,1,9.9,1.2,9.3c0-0.1,0.1-0.3,0.1-0.4
			c0-1.2,0.6-2.3,1.6-3c1.4-0.6,3-0.5,4.3,0.3c0.6,0.3,1.4,0.1,1.7-0.6C9,5.4,9,5.2,9,5c0-1.6,2.4-2.4,4.6-2.4c1.4,0,2.8,0.3,4.1,1
			c1,0.5,1.6,1.6,1.6,2.7c0,0.7,0.6,1.3,1.3,1.3c0.2,0,0.4,0,0.6-0.1c1.4-0.8,3.1-0.8,4.5,0.1c1.4,0.8,2.4,2.3,2.6,3.9
			c0,0.7,0.6,1.3,1.3,1.3l0,0c1.6-0.2,3.2,0.8,3.8,2.3c0.7,1.8,0.5,3.8-0.5,5.4H-7.3C-8.2,20-8.8,19-8.8,17.9
			C-8.4,16.5-7.3,15.5-6,15.2L-6,15.2z M26.6,74.4H-0.9c-3,0.1-5.4-2.2-5.6-5.1V32h38.6v37.3C32,72.3,29.5,74.6,26.6,74.4z
			 M43.7,65.4c-0.1,0.8-0.8,1.4-1.6,1.3h-7.4v-2.6h3.5c1.5,0.1,2.8-1.1,2.9-2.6V42.3c-0.1-1.5-1.4-2.7-2.9-2.6h-3.5v-2.6h7.4
			c0.8-0.1,1.5,0.5,1.6,1.3V65.4z"/>
		<path id="Path_30-4" d="M1.3,35.9c-2.1,0-3.9,1.7-3.9,3.9v27c0,2.1,1.7,3.9,3.9,3.9s3.9-1.7,3.9-3.9v-27
			C5.1,37.6,3.4,35.9,1.3,35.9z M2.6,66.7C2.6,67.4,2,68,1.3,68S0,67.4,0,66.7v-27c0-0.7,0.6-1.3,1.3-1.3s1.3,0.6,1.3,1.3l0,0V66.7z
			"/>
		<path id="Path_31-4" d="M12.9,35.9c-2.1,0-3.9,1.7-3.9,3.9v27c0,2.1,1.7,3.9,3.9,3.9s3.9-1.7,3.9-3.9v-27
			C16.7,37.6,15,35.9,12.9,35.9z M14.1,66.7c0,0.7-0.6,1.3-1.3,1.3s-1.3-0.6-1.3-1.3v-27c0-0.7,0.6-1.3,1.3-1.3s1.3,0.6,1.3,1.3l0,0
			V66.7z"/>
		<path id="Path_32-4" d="M24.4,35.9c-2.1,0-3.9,1.7-3.9,3.9v27c0,2.1,1.7,3.9,3.9,3.9c2.1,0,3.9-1.7,3.9-3.9v-27
			C28.3,37.6,26.6,35.9,24.4,35.9z M25.7,66.7c0,0.7-0.6,1.3-1.3,1.3c-0.7,0-1.3-0.6-1.3-1.3v-27c0-0.7,0.6-1.3,1.3-1.3
			c0.7,0,1.3,0.6,1.3,1.3l0,0V66.7z"/>
		<path id="Path_33-4" d="M2.6,17.9c0.7,0,1.3-0.6,1.3-1.3c0-1.4,1.8-2.6,3.9-2.6C8.4,14,9,13.4,9,12.7s-0.6-1.3-1.3-1.3l0,0
			c-3.5,0-6.4,2.3-6.4,5.1C1.3,17.3,1.9,17.9,2.6,17.9z"/>
		<path id="Path_34-4" d="M20.6,15.3c0.7,0,1.3,0.6,1.3,1.3c0,0.7,0.6,1.3,1.3,1.3c0.7,0,1.3-0.6,1.3-1.3l0,0c0-2.1-1.7-3.9-3.9-3.9
			c-0.7,0-1.3,0.6-1.3,1.3S19.9,15.3,20.6,15.3L20.6,15.3z"/>
		<path id="Path_35-4" d="M12.9,8.9c0.5,0,0.9,0.1,1.3,0.3c0.2,0.7,0.8,1.1,1.5,1c0.6-0.1,1-0.7,1-1.3c0-1.5-1.6-2.6-3.9-2.6
			c-0.7,0-1.3,0.6-1.3,1.3C11.6,8.3,12.2,8.9,12.9,8.9L12.9,8.9L12.9,8.9z"/>
	</g>
</g>
<polygon class="st9" points="247.1,137.1 24.1,136.1 2.1,76.1 265.1,76.1 "/>
</svg>
