<?xml version="1.0" encoding="utf-8"?>
<!-- Generator: Adobe Illustrator 23.0.0, SVG Export Plug-In . SVG Version: 6.00 Build 0)  -->
<svg version="1.1" id="Capa_1" xmlns="http://www.w3.org/2000/svg" xmlns:xlink="http://www.w3.org/1999/xlink" x="0px" y="0px"
	 viewBox="0 0 267.2 183" style="enable-background:new 0 0 267.2 183;" xml:space="preserve">
<style type="text/css">
	.st0{fill:#461717;}
	.st1{fill:none;stroke:#000000;stroke-width:3;}
	.st2{fill:#572020;stroke:#000000;stroke-width:3;stroke-miterlimit:10;}
	.st3{fill:#E0E0E0;}
	.st4{fill:#F4F4F4;}
	.st5{fill:#FF9F00;}
	.st6{fill:#FFB15C;}
	.st7{fill:#E28703;}
	.st8{fill:#616161;}
</style>
<g id="Rectangle_1" transform="translate(130.838 134)">
	<rect x="-11.3" class="st0" width="28" height="49"/>
	<rect x="-9.8" y="1.5" class="st1" width="25" height="46"/>
</g>
<polygon class="st2" points="247.1,137.1 24.1,136.1 2.1,76.1 265.1,76.1 "/>
<g id="Cerveza_media_llena" transform="translate(45.984 -3.026)">
	<g id="colour" transform="translate(10.175 4.825)">
		<path id="Path_40" class="st3" d="M38,8"/>
		<path id="Path_41" class="st4" d="M13.1,5.5L13.1,5.5C13.2,5.4,13.2,5.5,13.1,5.5z"/>
		<path id="Path_42" class="st5" d="M6.8,74.4h27.9c3.8,0.1,6.8-2,6.9-4.7V34.9H-0.1v34.8C0.1,72.3,3.2,74.5,6.8,74.4z"/>
		<path id="Path_43" class="st6" d="M36.5,34.9v34.9c0,3.2-3.1,5.9-6.9,5.9h5.2c3.8,0,6.9-2.5,6.9-5.9V34.9H36.5z"/>
		<path id="Path_44" class="st7" d="M5.1,34.9v33.9c0,3.1,3.1,5.6,6.9,5.6H6.8c-3.8,0-6.9-2.5-6.9-5.6V34.9H5.1z"/>
		<path id="Path_45" class="st8" d="M-0.1,34.9H-9c-1.5-0.1-2.9,1-3,2.5l0,0v26.7c0.1,1.5,1.4,2.7,3,2.5l0,0h8.9v-5.1H-5
			c-0.8,0.1-1.6-0.5-1.7-1.3V41.3c0.1-0.8,0.9-1.4,1.7-1.3l0,0h5L-0.1,34.9z"/>
		<path id="Path_46" class="st7" d="M32.6,36.2L32.6,36.2c-1.4,0-2.6,1.1-2.6,2.5v26.7c0,1.4,1.2,2.6,2.6,2.5l0,0
			c1.4,0,2.6-1.1,2.6-2.5V38.7C35.2,37.3,34,36.2,32.6,36.2z"/>
		<path id="Path_47" class="st7" d="M20.8,36.2L20.8,36.2c-1.4,0-2.6,1.1-2.6,2.5v26.7c0,1.4,1.2,2.6,2.6,2.5l0,0
			c1.4,0,2.6-1.1,2.6-2.5V38.7C23.4,37.3,22.2,36.2,20.8,36.2z"/>
		<path id="Path_48" class="st7" d="M9.1,36.2L9.1,36.2c-1.4,0-2.6,1.1-2.6,2.5v26.7c0,1.4,1.2,2.6,2.6,2.5l0,0
			c1.4,0,2.6-1.1,2.6-2.5V38.7C11.6,37.3,10.5,36.2,9.1,36.2z"/>
	</g>
	<g id="Layer_1" transform="translate(9 18.925)">
		<path id="Path_49" d="M-7.8,19.5h7.6V7.2l0,0c0-0.1,0.1-0.4,0.1-0.5l0.4-0.4C0.6,6.1,1,5.9,1.2,5.7C1.5,5.5,1.8,5.5,2,5.4h40.5
			c0.1,0,0.4,0.1,0.5,0.1c0.2,0.1,0.5,0.3,0.7,0.5L44,6.3l0.1,0.1c0,0.5,0.1,0.9,0.1,1.4v46.1c-0.2,4.4-3.8,7.8-8.2,7.6H8.1
			c-4.4,0.2-8.1-3.3-8.2-7.6h-7.6c-2.2,0.1-4.1-1.6-4.3-3.8V23.4C-11.8,21.1-10,19.4-7.8,19.5z M2.4,53.9C2.5,56.9,5,59.1,8,59l0,0
			h28c3,0.1,5.5-2.1,5.6-5.1l0,0V17H2.4V53.9z M2.4,14.4h39.2V8.1H2.4V14.4z M-0.2,27.2h-3.7c-0.3,0-0.3,0.1-0.4,0v19
			c0.1,0.1,0.3,0.1,0.4,0.1h3.7V27.2z M-9.3,50.1c0.1,0.8,0.9,1.4,1.7,1.3l0,0h7.4v-2.5h-3.7c-1.5,0.1-2.9-1-3-2.5l0,0V27.2
			c0.1-1.5,1.4-2.7,3-2.5l0,0h3.7v-2.5h-7.6c-0.8-0.1-1.6,0.5-1.7,1.3v26.7h0.2V50.1z"/>
		<path id="Path_50" d="M33.7,20.8c2.1-0.1,3.9,1.6,3.9,3.7v0.1v26.7c0,2.1-1.7,3.8-3.8,3.8h-0.1c-2.1,0.1-3.9-1.6-3.9-3.7v-0.1
			V24.6C29.8,22.5,31.5,20.8,33.7,20.8C33.6,20.8,33.7,20.8,33.7,20.8z M32.4,51.4c0,0.7,0.6,1.3,1.3,1.3s1.3-0.6,1.3-1.3V24.6
			c0-0.7-0.6-1.3-1.3-1.3s-1.3,0.6-1.3,1.3V51.4z"/>
		<path id="Path_51" d="M22,20.8c2.1-0.1,3.9,1.6,3.9,3.7v0.1v26.7c0,2.2-1.8,3.9-4,3.8c-2.1,0-3.8-1.7-3.8-3.8V24.6
			c0-2.1,1.7-3.8,3.8-3.8C21.9,20.8,21.9,20.8,22,20.8z M20.7,51.4c0,0.7,0.6,1.3,1.3,1.3c0.7,0,1.3-0.6,1.3-1.3V24.6
			c0-0.7-0.6-1.3-1.3-1.3c-0.7,0-1.3,0.6-1.3,1.3V51.4z"/>
		<path id="Path_52" d="M10.2,20.8c2.1-0.1,3.9,1.6,3.9,3.7v0.1v26.7c0,2.2-1.8,3.9-4,3.8c-2.1,0-3.8-1.7-3.8-3.8V24.6
			C6.3,22.5,8,20.8,10.2,20.8C10.1,20.8,10.2,20.8,10.2,20.8z M8.9,51.4c0,0.7,0.6,1.3,1.3,1.3s1.3-0.6,1.3-1.3V24.6
			c0-0.7-0.6-1.3-1.3-1.3s-1.3,0.6-1.3,1.3V51.4z"/>
	</g>
</g>
<g id="Cerveza_media_llena-3" transform="translate(196.838 -3.575)">
	<g id="colour-3" transform="translate(10.317 4.825)">
		<path id="Path_40-3" class="st3" d="M-5.9,8.1"/>
		<path id="Path_41-3" class="st4" d="M19.3,5.5L19.3,5.5C19.1,5.4,19.1,5.5,19.3,5.5z"/>
		<path id="Path_42-3" class="st5" d="M25.6,74.9H-2.6c-3.8,0.1-6.8-2.1-7-4.7v-35h42.1v35C32.4,72.9,29.3,75,25.6,74.9z"/>
		<path id="Path_43-3" class="st6" d="M-4.3,35.1v35.2c0,3.2,3.2,5.9,7,5.9h-5.3c-3.8,0-7-2.6-7-5.9V35.1H-4.3z"/>
		<path id="Path_44-3" class="st7" d="M27.3,35.1v34.1c0,3.1-3.2,5.6-7,5.6h5.3c3.8,0,7-2.6,7-5.6V35.1H27.3z"/>
		<path id="Path_45-3" class="st8" d="M32.6,35.1h9c1.5-0.1,2.9,1,3,2.5l0,0v26.9c-0.1,1.5-1.5,2.7-3,2.6l0,0h-9V62h5
			c0.8,0.1,1.6-0.5,1.7-1.3V41.6c-0.1-0.8-0.9-1.4-1.7-1.3l0,0h-5V35.1z"/>
		<path id="Path_46-3" class="st7" d="M-0.3,36.4L-0.3,36.4c1.4,0,2.6,1.1,2.6,2.6v26.9c0,1.4-1.2,2.6-2.6,2.6l0,0
			c-1.4,0-2.6-1.1-2.6-2.6V39C-3,37.6-1.8,36.4-0.3,36.4z"/>
		<path id="Path_47-3" class="st7" d="M11.5,36.4L11.5,36.4c1.4,0,2.6,1.1,2.6,2.6v26.9c0,1.4-1.2,2.6-2.6,2.6l0,0
			c-1.4,0-2.6-1.1-2.6-2.6V39C8.9,37.6,10.1,36.4,11.5,36.4z"/>
		<path id="Path_48-3" class="st7" d="M23.4,36.4L23.4,36.4c1.4,0,2.6,1.1,2.6,2.6v26.9c0,1.4-1.2,2.6-2.6,2.6l0,0
			c-1.4,0-2.6-1.1-2.6-2.6V39C20.7,37.6,21.9,36.4,23.4,36.4z"/>
	</g>
	<g id="Layer_1-3" transform="translate(9 19.035)">
		<path id="Path_49-3" d="M42.8,19.6h-7.6V7.2l0,0c0-0.1-0.1-0.4-0.1-0.5l-0.4-0.4c-0.3-0.2-0.6-0.4-0.9-0.6
			c-0.3-0.1-0.5-0.1-0.8-0.3H-7.8c-0.1,0-0.4,0.1-0.5,0.1C-8.6,5.7-8.8,5.8-9,6l-0.3,0.3l-0.1,0.1c0,0.5-0.2,0.9-0.2,1.4v46.4
			c0.2,4.4,3.9,7.9,8.3,7.7l0,0h28c4.4,0.2,8.1-3.3,8.3-7.7l0,0h7.6c2.2,0.1,4.2-1.6,4.3-3.8V23.5C46.9,21.3,45.1,19.6,42.8,19.6z
			 M32.6,54.3c-0.1,3-2.7,5.3-5.7,5.1l0,0H-1.3c-3,0.1-5.5-2.1-5.7-5.1l0,0V17.1h39.5L32.6,54.3z M32.6,14.5H-6.9V8.1h39.5V14.5z
			 M35.2,27.3h3.7c0.3,0,0.3,0.1,0.4,0v19.1c-0.1,0.1-0.3,0.1-0.4,0.1h-3.7V27.3z M44.4,50.4c-0.1,0.8-0.9,1.4-1.7,1.3l0,0h-7.5
			v-2.6h3.7c1.5,0.1,2.9-1,3-2.5l0,0V27.3c-0.1-1.5-1.5-2.7-3-2.6l0,0h-3.7v-2.6h7.6c0.8-0.1,1.6,0.5,1.7,1.3v26.9L44.4,50.4z"/>
		<path id="Path_50-3" d="M1,20.9c-2.1-0.1-3.9,1.6-3.9,3.7v0.1v26.9c0,2.1,1.7,3.8,3.8,3.9H1c2.1,0.1,3.9-1.6,3.9-3.7v-0.1V24.8
			c0-2.1-1.7-3.8-3.8-3.9H1z M2.3,51.7c0,0.7-0.6,1.3-1.4,1.3c-0.7,0-1.3-0.6-1.3-1.3V24.8c0-0.7,0.6-1.3,1.4-1.3
			c0.7,0,1.3,0.6,1.3,1.3C2.3,24.8,2.3,51.7,2.3,51.7z"/>
		<path id="Path_51-3" d="M12.8,20.9c-2.1-0.1-3.9,1.6-3.9,3.7v0.1v26.9c0,2.2,1.9,3.9,4,3.9s3.8-1.7,3.9-3.9V24.8
			c0-2.1-1.7-3.8-3.8-3.9C12.9,20.9,12.9,20.9,12.8,20.9z M14.1,51.7c0,0.7-0.6,1.3-1.4,1.3c-0.7,0-1.3-0.6-1.3-1.3V24.8
			c0-0.7,0.6-1.3,1.4-1.3c0.7,0,1.3,0.6,1.3,1.3V51.7z"/>
		<path id="Path_52-3" d="M24.7,20.9c-2.1-0.1-3.9,1.6-3.9,3.7v0.1v26.9c0,2.2,1.9,3.9,4,3.9s3.8-1.7,3.9-3.9V24.8
			c0-2.1-1.7-3.8-3.8-3.9C24.8,20.9,24.7,20.9,24.7,20.9z M26,51.7c0,0.7-0.6,1.3-1.4,1.3c-0.7,0-1.3-0.6-1.3-1.3V24.8
			c0-0.7,0.6-1.3,1.4-1.3c0.7,0,1.3,0.6,1.3,1.3V51.7z"/>
	</g>
</g>
<g id="Cerveza_media_llena-4" transform="translate(9.984 -3.612)">
	<g id="colour-4" transform="translate(10.188 4.825)">
		<path id="Path_40-4" class="st3" d="M38.6,8.1"/>
		<path id="Path_41-4" class="st4" d="M13.4,5.5L13.4,5.5C13.5,5.4,13.5,5.5,13.4,5.5z"/>
		<path id="Path_42-4" class="st5" d="M7.1,75h28.2c3.8,0.1,6.9-2.1,7-4.8v-35H0.1v35C0.2,72.9,3.4,75.1,7.1,75z"/>
		<path id="Path_43-4" class="st6" d="M37,35.2v35.2c0,3.2-3.2,5.9-7,5.9h5.3c3.8,0,7-2.6,7-5.9V35.2H37z"/>
		<path id="Path_44-4" class="st7" d="M5.3,35.2v34.1c0,3.1,3.2,5.6,7,5.6H7c-3.8,0-7-2.6-7-5.6V35.2H5.3z"/>
		<path id="Path_45-4" class="st8" d="M0.1,35.1h-9c-1.5-0.1-2.9,1-3,2.5l0,0v27c0.1,1.5,1.5,2.7,3,2.6l0,0h9v-5.1H-5
			c-0.8,0.1-1.6-0.5-1.7-1.3V41.6c0.1-0.8,0.9-1.4,1.7-1.3l0,0h5L0.1,35.1z"/>
		<path id="Path_46-4" class="st7" d="M33.1,36.4L33.1,36.4c-1.4,0-2.6,1.1-2.6,2.6v27c0,1.4,1.2,2.6,2.6,2.6l0,0
			c1.4,0,2.6-1.1,2.6-2.6V39C35.7,37.6,34.5,36.4,33.1,36.4z"/>
		<path id="Path_47-4" class="st7" d="M21.2,36.4L21.2,36.4c-1.4,0-2.6,1.1-2.6,2.6v27c0,1.4,1.2,2.6,2.6,2.6l0,0
			c1.4,0,2.6-1.1,2.6-2.6V39C23.8,37.6,22.6,36.4,21.2,36.4z"/>
		<path id="Path_48-4" class="st7" d="M9.3,36.4L9.3,36.4c-1.4,0-2.6,1.1-2.6,2.6v27c0,1.4,1.2,2.6,2.6,2.6l0,0
			c1.4,0,2.6-1.1,2.6-2.6V39C11.9,37.6,10.7,36.4,9.3,36.4z"/>
	</g>
	<g id="Layer_1-4" transform="translate(9 19.043)">
		<path id="Path_49-4" d="M-7.7,19.7H0V7.2l0,0c0-0.1,0.1-0.4,0.1-0.5l0.4-0.4c0.3-0.2,0.6-0.4,0.9-0.6c0.3-0.1,0.5-0.1,0.8-0.3
			h40.9c0.1,0,0.4,0.1,0.5,0.1c0.2,0.1,0.5,0.3,0.7,0.5l0.3,0.3l0.1,0.1c0,0.5,0.1,0.9,0.1,1.4v46.5c-0.2,4.4-3.9,7.9-8.3,7.7H8.4
			c-4.4,0.2-8.1-3.3-8.3-7.7h-7.7c-2.3,0.1-4.2-1.6-4.4-3.9v-27C-11.8,21.3-10,19.6-7.7,19.7z M2.6,54.3c0.1,3,2.7,5.3,5.7,5.1l0,0
			h28.2c3,0.2,5.5-2.1,5.7-5.1l0,0V17.1H2.6V54.3z M2.6,14.5h39.6V8.1H2.6V14.5z M-0.1,27.4h-3.7c-0.3,0-0.3,0.1-0.4,0v19.1
			c0.1,0.1,0.3,0.1,0.4,0.1h3.7V27.4z M-9.3,50.5c0.1,0.8,0.9,1.4,1.7,1.3l0,0h7.5v-2.6h-3.7c-1.5,0.1-2.9-1-3-2.5l0,0V27.4
			c0.1-1.5,1.5-2.7,3-2.6l0,0h3.7v-2.6h-7.7c-0.8-0.1-1.6,0.5-1.7,1.3v27H-9.3z"/>
		<path id="Path_50-4" d="M34.2,20.9c2.1-0.1,3.9,1.6,4,3.7v0.1v27c0,2.1-1.7,3.8-3.8,3.9h-0.1c-2.1,0.1-3.9-1.6-4-3.7v-0.1v-27
			C30.3,22.7,32,21,34.2,20.9C34.1,20.9,34.2,20.9,34.2,20.9z M32.9,51.7c0,0.7,0.5,1.3,1.2,1.3h0.1c0.7,0.1,1.3-0.5,1.3-1.1v-0.1
			v-27c0-0.7-0.5-1.3-1.2-1.3h-0.1c-0.7-0.1-1.3,0.5-1.3,1.1v0.1V51.7z"/>
		<path id="Path_51-4" d="M22.4,20.9c2.1-0.1,3.9,1.6,4,3.7v0.1v27c0,2.2-1.9,3.9-4,3.9s-3.8-1.8-3.9-3.9v-27c0-2.1,1.7-3.8,3.8-3.9
			C22.3,20.9,22.3,20.9,22.4,20.9z M21,51.7c0,0.7,0.6,1.3,1.3,1.3c0.7,0,1.3-0.6,1.3-1.3v-27c0-0.7-0.6-1.3-1.3-1.3
			c-0.7,0-1.3,0.6-1.3,1.3V51.7z"/>
		<path id="Path_52-4" d="M10.5,20.9c2.1-0.1,3.9,1.6,4,3.7v0.1v27c0,2.2-1.9,3.9-4,3.9s-3.8-1.8-3.9-3.9v-27
			C6.6,22.6,8.3,20.9,10.5,20.9C10.4,20.9,10.4,20.9,10.5,20.9z M9.2,51.7c0,0.7,0.6,1.3,1.3,1.3c0.7,0,1.3-0.6,1.3-1.3v-27
			c0-0.7-0.6-1.3-1.3-1.3S9.2,24,9.2,24.7C9.2,24.7,9.2,51.7,9.2,51.7z"/>
	</g>
</g>
<g id="Cerveza_media_llena-2" transform="translate(149.838 -4.825)">
	<g id="colour-2" transform="translate(10.306 4.825)">
		<path id="Path_40-2" class="st3" d="M-5.9,8.1"/>
		<path id="Path_41-2" class="st4" d="M19,5.5L19,5.5C18.9,5.4,18.9,5.5,19,5.5z"/>
		<path id="Path_42-2" class="st5" d="M25.3,76.1H-2.6c-3.8,0.2-6.8-2.1-7-4.8V35.7h41.8v35.6C32.1,74,29,76.3,25.3,76.1z"/>
		<path id="Path_43-2" class="st6" d="M-4.3,35.7v35.8c0,3.3,3.1,6,6.9,6h-5.2c-3.8,0-6.9-2.6-6.9-6V35.7H-4.3z"/>
		<path id="Path_44-2" class="st7" d="M27,35.7v34.7c0,3.1-3.1,5.7-6.9,5.7h5.2c3.8,0,6.9-2.6,6.9-5.7V35.7H27z"/>
		<path id="Path_45-2" class="st8" d="M32.2,35.7h8.9c1.5-0.1,2.9,1,3,2.6l0,0v27.4c-0.1,1.5-1.4,2.7-3,2.6l0,0h-8.9v-5.2h5
			c0.8,0.1,1.6-0.5,1.7-1.3V42.2c-0.1-0.8-0.8-1.4-1.7-1.3l0,0h-5C32.2,40.9,32.2,35.7,32.2,35.7z"/>
		<path id="Path_46-2" class="st7" d="M-0.4,37L-0.4,37c1.4,0,2.6,1.2,2.6,2.6V67c0,1.4-1.2,2.6-2.6,2.6l0,0C-1.8,69.6-3,68.4-3,67
			V39.6C-3,38.1-1.9,37-0.4,37z"/>
		<path id="Path_47-2" class="st7" d="M11.3,37L11.3,37c1.4,0,2.6,1.2,2.6,2.6V67c0,1.4-1.2,2.6-2.6,2.6l0,0c-1.4,0-2.6-1.2-2.6-2.6
			V39.6C8.7,38.1,9.9,37,11.3,37z"/>
		<path id="Path_48-2" class="st7" d="M23.1,37L23.1,37c1.4,0,2.6,1.2,2.6,2.6V67c0,1.4-1.2,2.6-2.6,2.6l0,0c-1.4,0-2.6-1.2-2.6-2.6
			V39.6C20.5,38.1,21.6,37,23.1,37z"/>
	</g>
	<g id="Layer_1-2" transform="translate(9 19.286)">
		<path id="Path_49-2" d="M42.4,19.9h-7.6V7.2l0,0c0-0.1-0.1-0.4-0.1-0.5l-0.4-0.4c-0.3-0.2-0.6-0.4-0.9-0.7
			c-0.3-0.1-0.5-0.1-0.8-0.3H-7.9c-0.1,0-0.4,0.1-0.5,0.1C-8.6,5.7-8.9,5.8-9,6.1l-0.3,0.3l-0.1,0.1c0,0.5-0.2,0.9-0.2,1.4v47.3
			c0.1,4.4,3.8,7.9,8.2,7.8l0,0h27.8c4.4,0.1,8.1-3.4,8.2-7.8l0,0h7.6c2.3,0.1,4.2-1.7,4.3-3.9V23.8C46.5,21.6,44.6,19.8,42.4,19.9z
			 M32.2,55.1c-0.1,3-2.6,5.3-5.6,5.2l0,0H-1.3c-3,0.1-5.5-2.2-5.6-5.2l0,0V17.3h39.2v37.8H32.2z M32.2,14.7H-6.9V8.1h39.2v6.6H32.2
			z M34.8,27.7h3.7c0.3,0,0.3,0.1,0.4,0v19.5c-0.1,0.1-0.3,0.1-0.4,0.1h-3.7V27.7z M44,51.2c-0.1,0.8-0.8,1.4-1.7,1.3l0,0h-7.4v-2.6
			h3.7c1.5,0.1,2.9-1,3-2.6l0,0V27.7c-0.1-1.5-1.4-2.7-3-2.6l0,0h-3.7v-2.6h7.5c0.8-0.1,1.6,0.5,1.7,1.3v27.4L44,51.2z"/>
		<path id="Path_50-2" d="M0.9,21.2C-1.2,21.2-3,22.9-3,25v0.1v27.4c0,2.2,1.8,3.9,3.9,3.9c2.2,0,3.9-1.8,3.9-3.9V25.1
			c0-2.1-1.7-3.9-3.8-3.9C1,21.2,0.9,21.2,0.9,21.2z M2.2,52.5c0,0.7-0.6,1.3-1.3,1.3s-1.3-0.6-1.3-1.3V25.1c0-0.7,0.5-1.3,1.3-1.3
			s1.3,0.5,1.3,1.3c0,0,0,0,0,0.1V52.5z"/>
		<path id="Path_51-2" d="M12.6,21.2c-2.1,0-3.9,1.7-3.9,3.8v0.1v27.4c0,2.2,1.8,3.9,3.9,3.9c2.2,0,3.9-1.8,3.9-3.9V25.1
			C16.5,23,14.8,21.2,12.6,21.2C12.7,21.2,12.7,21.2,12.6,21.2z M13.9,52.5c0,0.7-0.6,1.3-1.3,1.3s-1.3-0.6-1.3-1.3V25.1
			c0-0.7,0.5-1.3,1.3-1.3s1.3,0.5,1.3,1.3c0,0,0,0,0,0.1V52.5z"/>
		<path id="Path_52-2" d="M24.4,21.2c-2.1,0-3.9,1.7-3.9,3.8v0.1v27.4c0,2.2,1.8,3.9,3.9,3.9c2.2,0,3.9-1.8,3.9-3.9V25.1
			c0-2.1-1.7-3.9-3.8-3.9H24.4z M25.7,52.5c0,0.7-0.6,1.3-1.3,1.3c-0.7,0-1.3-0.6-1.3-1.3V25.1c0-0.7,0.5-1.3,1.3-1.3
			c0.7,0,1.3,0.5,1.3,1.3c0,0,0,0,0,0.1V52.5z"/>
	</g>
</g>
</svg>
