<?xml version="1.0" encoding="utf-8"?>
<!-- Generator: Adobe Illustrator 23.0.0, SVG Export Plug-In . SVG Version: 6.00 Build 0)  -->
<svg version="1.1" id="Capa_1" xmlns="http://www.w3.org/2000/svg" xmlns:xlink="http://www.w3.org/1999/xlink" x="0px" y="0px"
	 viewBox="0 0 267.2 183" style="enable-background:new 0 0 267.2 183;" xml:space="preserve">
<style type="text/css">
	.st0{fill:#461717;}
	.st1{fill:none;stroke:#000000;stroke-width:3;}
	.st2{fill:#572020;stroke:#000000;stroke-width:3;stroke-miterlimit:10;}
	.st3{fill:#E0E0E0;}
	.st4{fill:#F4F4F4;}
	.st5{fill:#FF9F00;}
	.st6{fill:#FFB15C;}
	.st7{fill:#E28703;}
	.st8{fill:#616161;}
</style>
<g id="Rectangle_1" transform="translate(130.838 134)">
	<rect x="-11.3" y="0" class="st0" width="28" height="49"/>
	<rect x="-9.8" y="1.5" class="st1" width="25" height="46"/>
</g>
<polygon class="st2" points="247.1,137.1 24.1,136.1 2.1,76.1 265.1,76.1 "/>
<g id="Cerveza_media_llena" transform="translate(45.984 -3.026)">
	<g id="colour" transform="translate(10.175 4.825)">
		<path id="Path_40" class="st3" d="M43,8"/>
		<path id="Path_41" class="st4" d="M18.1,5.5L18.1,5.5C18.2,5.4,18.2,5.5,18.1,5.5z"/>
		<path id="Path_42" class="st5" d="M11.8,74.4h27.9c3.8,0.1,6.8-2,6.9-4.7V34.9H4.9v34.8C5.1,72.3,8.2,74.5,11.8,74.4z"/>
		<path id="Path_43" class="st6" d="M41.5,34.9v34.9c0,3.2-3.1,5.9-6.9,5.9h5.2c3.8,0,6.9-2.5,6.9-5.9V34.9H41.5z"/>
		<path id="Path_44" class="st7" d="M10.1,34.9v33.9c0,3.1,3.1,5.6,6.9,5.6h-5.2c-3.8,0-6.9-2.5-6.9-5.6V34.9H10.1z"/>
		<path id="Path_45" class="st8" d="M4.9,34.9H-4c-1.5-0.1-2.9,1-3,2.5c0,0,0,0,0,0v26.7c0.1,1.5,1.4,2.7,3,2.5c0,0,0,0,0,0h8.9
			v-5.1H0c-0.8,0.1-1.6-0.5-1.7-1.3V41.3c0.1-0.8,0.9-1.4,1.7-1.3c0,0,0,0,0,0h5L4.9,34.9z"/>
		<path id="Path_46" class="st7" d="M37.6,36.2L37.6,36.2c-1.4,0-2.6,1.1-2.6,2.5v26.7c0,1.4,1.2,2.6,2.6,2.5l0,0
			c1.4,0,2.6-1.1,2.6-2.5V38.7C40.2,37.3,39,36.2,37.6,36.2z"/>
		<path id="Path_47" class="st7" d="M25.8,36.2L25.8,36.2c-1.4,0-2.6,1.1-2.6,2.5v26.7c0,1.4,1.2,2.6,2.6,2.5l0,0
			c1.4,0,2.6-1.1,2.6-2.5V38.7C28.4,37.3,27.2,36.2,25.8,36.2z"/>
		<path id="Path_48" class="st7" d="M14.1,36.2L14.1,36.2c-1.4,0-2.6,1.1-2.6,2.5v26.7c0,1.4,1.2,2.6,2.6,2.5l0,0
			c1.4,0,2.6-1.1,2.6-2.5V38.7C16.6,37.3,15.5,36.2,14.1,36.2z"/>
	</g>
	<g id="Layer_1" transform="translate(9 18.925)">
		<path id="Path_49" d="M-2.8,19.5h7.6V7.2l0,0c0-0.1,0.1-0.4,0.1-0.5l0.4-0.4C5.6,6.1,6,5.9,6.2,5.7C6.5,5.5,6.8,5.5,7,5.4h40.5
			c0.1,0,0.4,0.1,0.5,0.1c0.2,0.1,0.5,0.3,0.7,0.5l0.3,0.3l0.1,0.1c0,0.5,0.1,0.9,0.1,1.4v46.1c-0.2,4.4-3.8,7.8-8.2,7.6H13.1
			c-4.4,0.2-8.1-3.3-8.2-7.6h-7.6C-4.9,54-6.8,52.3-7,50.1V23.4C-6.8,21.1-5,19.4-2.8,19.5z M7.4,53.9c0.1,3,2.6,5.2,5.6,5.1
			c0,0,0,0,0,0H41c3,0.1,5.5-2.1,5.6-5.1c0,0,0,0,0,0V17H7.4V53.9z M7.4,14.4h39.2V8.1H7.4V14.4z M4.8,27.2H1.1
			c-0.3,0-0.3,0.1-0.4,0v19c0.1,0.1,0.3,0.1,0.4,0.1h3.7L4.8,27.2z M-4.3,50.1c0.1,0.8,0.9,1.4,1.7,1.3c0,0,0,0,0,0h7.4v-2.5H1.1
			c-1.5,0.1-2.9-1-3-2.5c0,0,0,0,0,0V27.2c0.1-1.5,1.4-2.7,3-2.5c0,0,0,0,0,0h3.7v-2.5h-7.6c-0.8-0.1-1.6,0.5-1.7,1.3v26.7H-4.3z"/>
		<path id="Path_50" d="M38.7,20.8c2.1-0.1,3.9,1.6,3.9,3.7c0,0,0,0.1,0,0.1v26.7c0,2.1-1.7,3.8-3.8,3.8c0,0-0.1,0-0.1,0
			c-2.1,0.1-3.9-1.6-3.9-3.7c0,0,0-0.1,0-0.1V24.6c0-2.1,1.7-3.8,3.8-3.8C38.6,20.8,38.7,20.8,38.7,20.8z M37.4,51.4
			c0,0.7,0.6,1.3,1.3,1.3c0.7,0,1.3-0.6,1.3-1.3V24.6c0-0.7-0.6-1.3-1.3-1.3c-0.7,0-1.3,0.6-1.3,1.3V51.4z"/>
		<path id="Path_51" d="M27,20.8c2.1-0.1,3.9,1.6,3.9,3.7c0,0,0,0.1,0,0.1v26.7c0,2.2-1.8,3.9-4,3.8c-2.1,0-3.8-1.7-3.8-3.8V24.6
			c0-2.1,1.7-3.8,3.8-3.8C26.9,20.8,26.9,20.8,27,20.8z M25.7,51.4c0,0.7,0.6,1.3,1.3,1.3c0.7,0,1.3-0.6,1.3-1.3V24.6
			c0-0.7-0.6-1.3-1.3-1.3c-0.7,0-1.3,0.6-1.3,1.3V51.4z"/>
		<path id="Path_52" d="M15.2,20.8c2.1-0.1,3.9,1.6,3.9,3.7c0,0,0,0.1,0,0.1v26.7c0,2.2-1.8,3.9-4,3.8c-2.1,0-3.8-1.7-3.8-3.8V24.6
			c0-2.1,1.7-3.8,3.8-3.8C15.1,20.8,15.2,20.8,15.2,20.8z M13.9,51.4c0,0.7,0.6,1.3,1.3,1.3c0.7,0,1.3-0.6,1.3-1.3V24.6
			c0-0.7-0.6-1.3-1.3-1.3c-0.7,0-1.3,0.6-1.3,1.3V51.4z"/>
	</g>
</g>
<g id="Cerveza_media_llena-2" transform="translate(149.838 -4.825)">
	<g id="colour-2" transform="translate(10.306 4.825)">
		<path id="Path_40-2" class="st3" d="M-3.3,8.1"/>
		<path id="Path_41-2" class="st4" d="M21.6,5.5L21.6,5.5C21.5,5.4,21.5,5.5,21.6,5.5z"/>
		<path id="Path_42-2" class="st5" d="M27.9,76.1H0C-3.8,76.3-6.8,74-7,71.3V35.7h41.8v35.6C34.7,74,31.6,76.3,27.9,76.1z"/>
		<path id="Path_43-2" class="st6" d="M-1.7,35.7v35.8c0,3.3,3.1,6,6.9,6H0c-3.8,0-6.9-2.6-6.9-6V35.7H-1.7z"/>
		<path id="Path_44-2" class="st7" d="M29.6,35.7v34.7c0,3.1-3.1,5.7-6.9,5.7h5.2c3.8,0,6.9-2.6,6.9-5.7V35.7H29.6z"/>
		<path id="Path_45-2" class="st8" d="M34.8,35.7h8.9c1.5-0.1,2.9,1,3,2.6c0,0,0,0,0,0v27.4c-0.1,1.5-1.4,2.7-3,2.6c0,0,0,0,0,0
			h-8.9v-5.2h5c0.8,0.1,1.6-0.5,1.7-1.3V42.2c-0.1-0.8-0.8-1.4-1.7-1.3c0,0,0,0,0,0h-5V35.7z"/>
		<path id="Path_46-2" class="st7" d="M2.2,37L2.2,37c1.4,0,2.6,1.2,2.6,2.6V67c0,1.4-1.2,2.6-2.6,2.6l0,0c-1.4,0-2.6-1.2-2.6-2.6
			V39.6C-0.4,38.1,0.7,37,2.2,37z"/>
		<path id="Path_47-2" class="st7" d="M13.9,37L13.9,37c1.4,0,2.6,1.2,2.6,2.6V67c0,1.4-1.2,2.6-2.6,2.6l0,0c-1.4,0-2.6-1.2-2.6-2.6
			V39.6C11.3,38.1,12.5,37,13.9,37z"/>
		<path id="Path_48-2" class="st7" d="M25.7,37L25.7,37c1.4,0,2.6,1.2,2.6,2.6V67c0,1.4-1.2,2.6-2.6,2.6l0,0c-1.4,0-2.6-1.2-2.6-2.6
			V39.6C23.1,38.1,24.2,37,25.7,37z"/>
	</g>
	<g id="Layer_1-2" transform="translate(9 19.286)">
		<path id="Path_49-2" d="M45,19.9h-7.6V7.2l0,0c0-0.1-0.1-0.4-0.1-0.5l-0.4-0.4c-0.3-0.2-0.6-0.4-0.9-0.7c-0.3-0.1-0.5-0.1-0.8-0.3
			H-5.3c-0.1,0-0.4,0.1-0.5,0.1C-6,5.7-6.3,5.8-6.4,6.1l-0.3,0.3l-0.1,0.1C-6.8,7-7,7.4-7,7.9v47.3c0.1,4.4,3.8,7.9,8.2,7.8
			c0,0,0,0,0,0h27.8c4.4,0.1,8.1-3.4,8.2-7.8c0,0,0,0,0,0h7.6c2.3,0.1,4.2-1.7,4.3-3.9V23.8C49.1,21.6,47.2,19.8,45,19.9z
			 M34.8,55.1c-0.1,3-2.6,5.3-5.6,5.2c0,0,0,0,0,0H1.3c-3,0.1-5.5-2.2-5.6-5.2c0,0,0,0,0,0V17.3h39.2V55.1z M34.8,14.7H-4.3V8.1
			h39.2V14.7z M37.4,27.7h3.7c0.3,0,0.3,0.1,0.4,0v19.5c-0.1,0.1-0.3,0.1-0.4,0.1h-3.7L37.4,27.7z M46.6,51.2
			c-0.1,0.8-0.8,1.4-1.7,1.3c0,0,0,0,0,0h-7.4v-2.6h3.7c1.5,0.1,2.9-1,3-2.6c0,0,0,0,0,0V27.7c-0.1-1.5-1.4-2.7-3-2.6c0,0,0,0,0,0
			h-3.7v-2.6H45c0.8-0.1,1.6,0.5,1.7,1.3v27.4L46.6,51.2z"/>
		<path id="Path_50-2" d="M3.5,21.2c-2.1,0-3.9,1.7-3.9,3.8c0,0,0,0.1,0,0.1v27.4c0,2.2,1.8,3.9,3.9,3.9c2.2,0,3.9-1.8,3.9-3.9V25.1
			c0-2.1-1.7-3.9-3.8-3.9C3.6,21.2,3.5,21.2,3.5,21.2z M4.8,52.5c0,0.7-0.6,1.3-1.3,1.3c-0.7,0-1.3-0.6-1.3-1.3V25.1
			c0-0.7,0.5-1.3,1.3-1.3s1.3,0.5,1.3,1.3c0,0,0,0,0,0.1V52.5z"/>
		<path id="Path_51-2" d="M15.2,21.2c-2.1,0-3.9,1.7-3.9,3.8c0,0,0,0.1,0,0.1v27.4c0,2.2,1.8,3.9,3.9,3.9c2.2,0,3.9-1.8,3.9-3.9
			V25.1c0-2.1-1.7-3.9-3.8-3.9C15.3,21.2,15.3,21.2,15.2,21.2z M16.5,52.5c0,0.7-0.6,1.3-1.3,1.3c-0.7,0-1.3-0.6-1.3-1.3V25.1
			c0-0.7,0.5-1.3,1.3-1.3s1.3,0.5,1.3,1.3c0,0,0,0,0,0.1V52.5z"/>
		<path id="Path_52-2" d="M27,21.2c-2.1,0-3.9,1.7-3.9,3.8c0,0,0,0.1,0,0.1v27.4c0,2.2,1.8,3.9,3.9,3.9c2.2,0,3.9-1.8,3.9-3.9V25.1
			c0-2.1-1.7-3.9-3.8-3.9C27.1,21.2,27,21.2,27,21.2z M28.3,52.5c0,0.7-0.6,1.3-1.3,1.3c-0.7,0-1.3-0.6-1.3-1.3V25.1
			c0-0.7,0.5-1.3,1.3-1.3c0.7,0,1.3,0.5,1.3,1.3c0,0,0,0,0,0.1V52.5z"/>
	</g>
</g>
<g id="Cerveza_media_llena-3" transform="translate(196.838 -3.575)">
	<g id="colour-3" transform="translate(10.317 4.825)">
		<path id="Path_40-3" class="st3" d="M-3.3,8.1"/>
		<path id="Path_41-3" class="st4" d="M21.9,5.5L21.9,5.5C21.7,5.4,21.7,5.5,21.9,5.5z"/>
		<path id="Path_42-3" class="st5" d="M28.2,74.9H0c-3.8,0.1-6.8-2.1-7-4.7v-35h42.1v35C35,72.9,31.9,75,28.2,74.9z"/>
		<path id="Path_43-3" class="st6" d="M-1.7,35.1v35.2c0,3.2,3.2,5.9,7,5.9H0c-3.8,0-7-2.6-7-5.9V35.1H-1.7z"/>
		<path id="Path_44-3" class="st7" d="M29.9,35.1v34.1c0,3.1-3.2,5.6-7,5.6h5.3c3.8,0,7-2.6,7-5.6V35.1H29.9z"/>
		<path id="Path_45-3" class="st8" d="M35.2,35.1h9c1.5-0.1,2.9,1,3,2.5c0,0,0,0,0,0v26.9c-0.1,1.5-1.5,2.7-3,2.6c0,0,0,0,0,0h-9
			v-5.1h5c0.8,0.1,1.6-0.5,1.7-1.3V41.6c-0.1-0.8-0.9-1.4-1.7-1.3c0,0,0,0,0,0h-5V35.1z"/>
		<path id="Path_46-3" class="st7" d="M2.3,36.4L2.3,36.4c1.4,0,2.6,1.1,2.6,2.6v26.9c0,1.4-1.2,2.6-2.6,2.6l0,0
			c-1.4,0-2.6-1.1-2.6-2.6V39C-0.4,37.6,0.8,36.4,2.3,36.4z"/>
		<path id="Path_47-3" class="st7" d="M14.1,36.4L14.1,36.4c1.4,0,2.6,1.1,2.6,2.6v26.9c0,1.4-1.2,2.6-2.6,2.6l0,0
			c-1.4,0-2.6-1.1-2.6-2.6V39C11.5,37.6,12.7,36.4,14.1,36.4z"/>
		<path id="Path_48-3" class="st7" d="M26,36.4L26,36.4c1.4,0,2.6,1.1,2.6,2.6v26.9c0,1.4-1.2,2.6-2.6,2.6l0,0
			c-1.4,0-2.6-1.1-2.6-2.6V39C23.3,37.6,24.5,36.4,26,36.4z"/>
	</g>
	<g id="Layer_1-3" transform="translate(9 19.035)">
		<path id="Path_49-3" d="M45.4,19.6h-7.6V7.2l0,0c0-0.1-0.1-0.4-0.1-0.5l-0.4-0.4c-0.3-0.2-0.6-0.4-0.9-0.6
			c-0.3-0.1-0.5-0.1-0.8-0.3H-5.2c-0.1,0-0.4,0.1-0.5,0.1C-6,5.7-6.2,5.8-6.4,6l-0.3,0.3l-0.1,0.1C-6.8,6.9-7,7.3-7,7.8v46.4
			c0.2,4.4,3.9,7.9,8.3,7.7c0,0,0,0,0,0h28c4.4,0.2,8.1-3.3,8.3-7.7c0,0,0,0,0,0h7.6c2.2,0.1,4.2-1.6,4.3-3.8V23.5
			C49.5,21.3,47.7,19.6,45.4,19.6z M35.2,54.3c-0.1,3-2.7,5.3-5.7,5.1c0,0,0,0,0,0H1.3c-3,0.1-5.5-2.1-5.7-5.1c0,0,0,0,0,0V17.1
			h39.5L35.2,54.3z M35.2,14.5H-4.3V8.1h39.5V14.5z M37.8,27.3h3.7c0.3,0,0.3,0.1,0.4,0v19.1c-0.1,0.1-0.3,0.1-0.4,0.1h-3.7V27.3z
			 M47,50.4c-0.1,0.8-0.9,1.4-1.7,1.3c0,0,0,0,0,0h-7.5v-2.6h3.7c1.5,0.1,2.9-1,3-2.5c0,0,0,0,0,0V27.3c-0.1-1.5-1.5-2.7-3-2.6
			c0,0,0,0,0,0h-3.7v-2.6h7.6c0.8-0.1,1.6,0.5,1.7,1.3v26.9L47,50.4z"/>
		<path id="Path_50-3" d="M3.6,20.9c-2.1-0.1-3.9,1.6-3.9,3.7c0,0,0,0.1,0,0.1v26.9c0,2.1,1.7,3.8,3.8,3.9c0,0,0.1,0,0.1,0
			c2.1,0.1,3.9-1.6,3.9-3.7c0,0,0-0.1,0-0.1V24.8c0-2.1-1.7-3.8-3.8-3.9C3.7,20.9,3.6,20.9,3.6,20.9z M4.9,51.7
			c0,0.7-0.6,1.3-1.4,1.3c-0.7,0-1.3-0.6-1.3-1.3V24.8c0-0.7,0.6-1.3,1.4-1.3c0.7,0,1.3,0.6,1.3,1.3V51.7z"/>
		<path id="Path_51-3" d="M15.4,20.9c-2.1-0.1-3.9,1.6-3.9,3.7c0,0,0,0.1,0,0.1v26.9c0,2.2,1.9,3.9,4,3.9c2.1,0,3.8-1.7,3.9-3.9
			V24.8c0-2.1-1.7-3.8-3.8-3.9C15.5,20.9,15.5,20.9,15.4,20.9z M16.7,51.7c0,0.7-0.6,1.3-1.4,1.3c-0.7,0-1.3-0.6-1.3-1.3V24.8
			c0-0.7,0.6-1.3,1.4-1.3c0.7,0,1.3,0.6,1.3,1.3V51.7z"/>
		<path id="Path_52-3" d="M27.3,20.9c-2.1-0.1-3.9,1.6-3.9,3.7c0,0,0,0.1,0,0.1v26.9c0,2.2,1.9,3.9,4,3.9c2.1,0,3.8-1.7,3.9-3.9
			V24.8c0-2.1-1.7-3.8-3.8-3.9C27.4,20.9,27.3,20.9,27.3,20.9z M28.6,51.7c0,0.7-0.6,1.3-1.4,1.3c-0.7,0-1.3-0.6-1.3-1.3V24.8
			c0-0.7,0.6-1.3,1.4-1.3c0.7,0,1.3,0.6,1.3,1.3V51.7z"/>
	</g>
</g>
<g id="Cerveza_media_llena-4" transform="translate(9.984 -3.612)">
	<g id="colour-4" transform="translate(10.188 4.825)">
		<path id="Path_40-4" class="st3" d="M43.6,8.1"/>
		<path id="Path_41-4" class="st4" d="M18.4,5.5L18.4,5.5C18.5,5.4,18.5,5.5,18.4,5.5z"/>
		<path id="Path_42-4" class="st5" d="M12.1,75h28.2c3.8,0.1,6.9-2.1,7-4.8V35.2H5.1v35C5.2,72.9,8.4,75.1,12.1,75z"/>
		<path id="Path_43-4" class="st6" d="M42,35.2v35.2c0,3.2-3.2,5.9-7,5.9h5.3c3.8,0,7-2.6,7-5.9V35.2H42z"/>
		<path id="Path_44-4" class="st7" d="M10.3,35.2v34.1c0,3.1,3.2,5.6,7,5.6h-5.3c-3.8,0-7-2.6-7-5.6V35.2H10.3z"/>
		<path id="Path_45-4" class="st8" d="M5.1,35.1h-9c-1.5-0.1-2.9,1-3,2.5c0,0,0,0,0,0v27c0.1,1.5,1.5,2.7,3,2.6c0,0,0,0,0,0h9v-5.1
			H0c-0.8,0.1-1.6-0.5-1.7-1.3V41.6c0.1-0.8,0.9-1.4,1.7-1.3c0,0,0,0,0,0h5L5.1,35.1z"/>
		<path id="Path_46-4" class="st7" d="M38.1,36.4L38.1,36.4c-1.4,0-2.6,1.1-2.6,2.6v27c0,1.4,1.2,2.6,2.6,2.6l0,0
			c1.4,0,2.6-1.1,2.6-2.6V39C40.7,37.6,39.5,36.4,38.1,36.4z"/>
		<path id="Path_47-4" class="st7" d="M26.2,36.4L26.2,36.4c-1.4,0-2.6,1.1-2.6,2.6v27c0,1.4,1.2,2.6,2.6,2.6l0,0
			c1.4,0,2.6-1.1,2.6-2.6V39C28.8,37.6,27.6,36.4,26.2,36.4z"/>
		<path id="Path_48-4" class="st7" d="M14.3,36.4L14.3,36.4c-1.4,0-2.6,1.1-2.6,2.6v27c0,1.4,1.2,2.6,2.6,2.6l0,0
			c1.4,0,2.6-1.1,2.6-2.6V39C16.9,37.6,15.7,36.4,14.3,36.4z"/>
	</g>
	<g id="Layer_1-4" transform="translate(9 19.043)">
		<path id="Path_49-4" d="M-2.7,19.7h7.7V7.2l0,0c0-0.1,0.1-0.4,0.1-0.5l0.4-0.4c0.3-0.2,0.6-0.4,0.9-0.6c0.3-0.1,0.5-0.1,0.8-0.3
			h40.9c0.1,0,0.4,0.1,0.5,0.1c0.2,0.1,0.5,0.3,0.7,0.5l0.3,0.3l0.1,0.1c0,0.5,0.1,0.9,0.1,1.4v46.5c-0.2,4.4-3.9,7.9-8.3,7.7H13.4
			c-4.4,0.2-8.1-3.3-8.3-7.7h-7.7c-2.3,0.1-4.2-1.6-4.4-3.9v-27C-6.8,21.3-5,19.6-2.7,19.7z M7.6,54.3c0.1,3,2.7,5.3,5.7,5.1
			c0,0,0,0,0,0h28.2c3,0.2,5.5-2.1,5.7-5.1c0,0,0,0,0,0V17.1H7.6L7.6,54.3z M7.6,14.5h39.6V8.1H7.6L7.6,14.5z M4.9,27.4H1.2
			c-0.3,0-0.3,0.1-0.4,0v19.1c0.1,0.1,0.3,0.1,0.4,0.1h3.7V27.4z M-4.3,50.5c0.1,0.8,0.9,1.4,1.7,1.3c0,0,0,0,0,0h7.5v-2.6H1.2
			c-1.5,0.1-2.9-1-3-2.5c0,0,0,0,0,0V27.4c0.1-1.5,1.5-2.7,3-2.6c0,0,0,0,0,0h3.7v-2.6h-7.7c-0.8-0.1-1.6,0.5-1.7,1.3v27H-4.3z"/>
		<path id="Path_50-4" d="M39.2,20.9c2.1-0.1,3.9,1.6,4,3.7c0,0,0,0.1,0,0.1v27c0,2.1-1.7,3.8-3.8,3.9c0,0-0.1,0-0.1,0
			c-2.1,0.1-3.9-1.6-4-3.7c0,0,0-0.1,0-0.1v-27c0-2.1,1.7-3.8,3.8-3.9C39.1,20.9,39.2,20.9,39.2,20.9z M37.9,51.7
			c0,0.7,0.5,1.3,1.2,1.3c0,0,0.1,0,0.1,0c0.7,0.1,1.3-0.5,1.3-1.1c0,0,0-0.1,0-0.1v-27c0-0.7-0.5-1.3-1.2-1.3c0,0-0.1,0-0.1,0
			c-0.7-0.1-1.3,0.5-1.3,1.1c0,0,0,0.1,0,0.1V51.7z"/>
		<path id="Path_51-4" d="M27.4,20.9c2.1-0.1,3.9,1.6,4,3.7c0,0,0,0.1,0,0.1v27c0,2.2-1.9,3.9-4,3.9c-2.1,0-3.8-1.8-3.9-3.9v-27
			c0-2.1,1.7-3.8,3.8-3.9C27.3,20.9,27.3,20.9,27.4,20.9z M26,51.7c0,0.7,0.6,1.3,1.3,1.3c0.7,0,1.3-0.6,1.3-1.3v-27
			c0-0.7-0.6-1.3-1.3-1.3c-0.7,0-1.3,0.6-1.3,1.3V51.7z"/>
		<path id="Path_52-4" d="M15.5,20.9c2.1-0.1,3.9,1.6,4,3.7c0,0,0,0.1,0,0.1v27c0,2.2-1.9,3.9-4,3.9c-2.1,0-3.8-1.8-3.9-3.9v-27
			c0-2.1,1.7-3.8,3.8-3.9C15.4,20.9,15.4,20.9,15.5,20.9z M14.2,51.7c0,0.7,0.6,1.3,1.3,1.3c0.7,0,1.3-0.6,1.3-1.3v-27
			c0-0.7-0.6-1.3-1.3-1.3c-0.7,0-1.3,0.6-1.3,1.3V51.7z"/>
	</g>
</g>
</svg>
