<?xml version="1.0" encoding="utf-8"?>
<!-- Generator: Adobe Illustrator 23.0.0, SVG Export Plug-In . SVG Version: 6.00 Build 0)  -->
<svg version="1.1" id="Capa_1" xmlns="http://www.w3.org/2000/svg" xmlns:xlink="http://www.w3.org/1999/xlink" x="0px" y="0px"
	 viewBox="0 0 267.2 183" style="enable-background:new 0 0 267.2 183;" xml:space="preserve">
<style type="text/css">
	.st0{fill:#461717;}
	.st1{fill:none;stroke:#000000;stroke-width:3;}
	.st2{fill:#572020;stroke:#000000;stroke-width:3;stroke-miterlimit:10;}
	.st3{fill:#E0E0E0;}
	.st4{fill:#F4F4F4;}
	.st5{fill:#FF9F00;}
	.st6{fill:#FFB15C;}
	.st7{fill:#E28703;}
	.st8{fill:#616161;}
</style>
<g id="Rectangle_1" transform="translate(130.838 134)">
	<rect x="-11.3" y="0" class="st0" width="28" height="49"/>
	<rect x="-9.8" y="1.5" class="st1" width="25" height="46"/>
</g>
<polygon class="st2" points="247.1,137.1 24.1,136.1 2.1,76.1 265.1,76.1 "/>
<g id="Cerveza_media_llena_1_" transform="translate(45.984 -3.027)">
	<g id="Layer_1_1_" transform="translate(9 18.925)">
		<path id="Path_49_1_" d="M-2.8,17.5h7.6V5.2l0,0c0-0.1,0.1-0.4,0.1-0.5l0.4-0.4C5.6,4.1,6,3.9,6.2,3.7C6.5,3.5,6.8,3.5,7,3.4h40.5
			c0.1,0,0.4,0.1,0.5,0.1c0.2,0.1,0.5,0.3,0.7,0.5l0.3,0.3l0.1,0.1c0,0.5,0.1,0.9,0.1,1.4v46.1c-0.2,4.4-3.8,7.8-8.2,7.6H13.1
			c-4.4,0.2-8.1-3.3-8.2-7.6h-7.6C-4.9,52-6.8,50.3-7,48.1V21.4C-6.8,19.1-5,17.4-2.8,17.5z M7.4,51.9c0.1,3,2.6,5.2,5.6,5.1
			c0,0,0,0,0,0H41c3,0.1,5.5-2.1,5.6-5.1c0,0,0,0,0,0V15H7.4V51.9z M7.4,12.4h39.2V6.1H7.4V12.4z M4.8,25.2H1.1
			c-0.3,0-0.3,0.1-0.4,0v19c0.1,0.1,0.3,0.1,0.4,0.1h3.7L4.8,25.2z M-4.3,48.1c0.1,0.8,0.9,1.4,1.7,1.3c0,0,0,0,0,0h7.4v-2.5H1.1
			c-1.5,0.1-2.9-1-3-2.5c0,0,0,0,0,0V25.2c0.1-1.5,1.4-2.7,3-2.5c0,0,0,0,0,0h3.7v-2.5h-7.6c-0.8-0.1-1.6,0.5-1.7,1.3v26.7H-4.3z"/>
		<path id="Path_50_1_" d="M38.7,18.8c2.1-0.1,3.9,1.6,3.9,3.7c0,0,0,0.1,0,0.1v26.7c0,2.1-1.7,3.8-3.8,3.8c0,0-0.1,0-0.1,0
			c-2.1,0.1-3.9-1.6-3.9-3.7c0,0,0-0.1,0-0.1V22.6c0-2.1,1.7-3.8,3.8-3.8C38.6,18.8,38.7,18.8,38.7,18.8z M37.4,49.4
			c0,0.7,0.6,1.3,1.3,1.3c0.7,0,1.3-0.6,1.3-1.3V22.6c0-0.7-0.6-1.3-1.3-1.3c-0.7,0-1.3,0.6-1.3,1.3V49.4z"/>
		<path id="Path_51_1_" d="M27,18.8c2.1-0.1,3.9,1.6,3.9,3.7c0,0,0,0.1,0,0.1v26.7c0,2.2-1.8,3.9-4,3.8c-2.1,0-3.8-1.7-3.8-3.8V22.6
			c0-2.1,1.7-3.8,3.8-3.8C26.9,18.8,26.9,18.8,27,18.8z M25.7,49.4c0,0.7,0.6,1.3,1.3,1.3c0.7,0,1.3-0.6,1.3-1.3V22.6
			c0-0.7-0.6-1.3-1.3-1.3c-0.7,0-1.3,0.6-1.3,1.3V49.4z"/>
		<path id="Path_52_1_" d="M15.2,18.8c2.1-0.1,3.9,1.6,3.9,3.7c0,0,0,0.1,0,0.1v26.7c0,2.2-1.8,3.9-4,3.8c-2.1,0-3.8-1.7-3.8-3.8
			V22.6c0-2.1,1.7-3.8,3.8-3.8C15.1,18.8,15.2,18.8,15.2,18.8z M13.9,49.4c0,0.7,0.6,1.3,1.3,1.3c0.7,0,1.3-0.6,1.3-1.3V22.6
			c0-0.7-0.6-1.3-1.3-1.3c-0.7,0-1.3,0.6-1.3,1.3V49.4z"/>
	</g>
</g>
<g id="Cerveza_media_llena-2_1_" transform="translate(9.984 -3.612)">
	<g id="Layer_1-2_1_" transform="translate(9 19.043)">
		<path id="Path_49-2_1_" d="M-2.7,17.7h7.7V5.2l0,0c0-0.1,0.1-0.4,0.1-0.5l0.4-0.4c0.3-0.2,0.6-0.4,0.9-0.6
			c0.3-0.1,0.5-0.1,0.8-0.3h40.9c0.1,0,0.4,0.1,0.5,0.1c0.2,0.1,0.5,0.3,0.7,0.5l0.3,0.3l0.1,0.1c0,0.5,0.1,0.9,0.1,1.4v46.5
			c-0.2,4.4-3.9,7.9-8.3,7.7H13.4c-4.4,0.2-8.1-3.3-8.3-7.7h-7.7c-2.3,0.1-4.2-1.6-4.4-3.9v-27C-6.8,19.3-5,17.6-2.7,17.7z
			 M7.6,52.3c0.1,3,2.7,5.3,5.7,5.1c0,0,0,0,0,0h28.2c3,0.2,5.5-2.1,5.7-5.1c0,0,0,0,0,0V15.1H7.6L7.6,52.3z M7.6,12.5h39.6V6.1H7.6
			L7.6,12.5z M4.9,25.4H1.2c-0.3,0-0.3,0.1-0.4,0v19.1c0.1,0.1,0.3,0.1,0.4,0.1h3.7V25.4z M-4.3,48.5c0.1,0.8,0.9,1.4,1.7,1.3
			c0,0,0,0,0,0h7.5v-2.6H1.2c-1.5,0.1-2.9-1-3-2.5c0,0,0,0,0,0V25.4c0.1-1.5,1.5-2.7,3-2.6c0,0,0,0,0,0h3.7v-2.6h-7.7
			c-0.8-0.1-1.6,0.5-1.7,1.3v27H-4.3z"/>
		<path id="Path_50-2_1_" d="M39.2,18.9c2.1-0.1,3.9,1.6,4,3.7c0,0,0,0.1,0,0.1v27c0,2.1-1.7,3.8-3.8,3.9c0,0-0.1,0-0.1,0
			c-2.1,0.1-3.9-1.6-4-3.7c0,0,0-0.1,0-0.1v-27c0-2.1,1.7-3.8,3.8-3.9C39.1,18.9,39.2,18.9,39.2,18.9z M37.9,49.7
			c0,0.7,0.5,1.3,1.2,1.3c0,0,0.1,0,0.1,0c0.7,0.1,1.3-0.5,1.3-1.1c0,0,0-0.1,0-0.1v-27c0-0.7-0.5-1.3-1.2-1.3c0,0-0.1,0-0.1,0
			c-0.7-0.1-1.3,0.5-1.3,1.1c0,0,0,0.1,0,0.1V49.7z"/>
		<path id="Path_51-2_1_" d="M27.4,18.9c2.1-0.1,3.9,1.6,4,3.7c0,0,0,0.1,0,0.1v27c0,2.2-1.9,3.9-4,3.9c-2.1,0-3.8-1.8-3.9-3.9v-27
			c0-2.1,1.7-3.8,3.8-3.9C27.3,18.9,27.3,18.9,27.4,18.9z M26,49.7c0,0.7,0.6,1.3,1.3,1.3c0.7,0,1.3-0.6,1.3-1.3v-27
			c0-0.7-0.6-1.3-1.3-1.3c-0.7,0-1.3,0.6-1.3,1.3V49.7z"/>
		<path id="Path_52-2_1_" d="M15.5,18.9c2.1-0.1,3.9,1.6,4,3.7c0,0,0,0.1,0,0.1v27c0,2.2-1.9,3.9-4,3.9c-2.1,0-3.8-1.8-3.9-3.9v-27
			c0-2.1,1.7-3.8,3.8-3.9C15.4,18.9,15.4,18.9,15.5,18.9z M14.2,49.7c0,0.7,0.6,1.3,1.3,1.3c0.7,0,1.3-0.6,1.3-1.3v-27
			c0-0.7-0.6-1.3-1.3-1.3c-0.7,0-1.3,0.6-1.3,1.3V49.7z"/>
	</g>
</g>
<g id="Cerveza_media_vacia" transform="translate(149.838 -4.825)">
	<g id="colour_1_" transform="translate(11.572 4.825)">
		<path id="Path_53" class="st3" d="M-3.5,5.9"/>
		<path id="Path_54" class="st4" d="M21,3.5"/>
		<path id="Path_55" class="st5" d="M26.5,73.3H-0.3c-3.6,0-6.6-0.8-6.7-1.9V57.2h40.1v14.1C33,72.5,30.1,73.3,26.5,73.3z"/>
		<path id="Path_56" class="st6" d="M-1.9,57.2V72c0,1.4,3,2.4,6.7,2.4h-5C-4,74.5-7,73.3-7,72V57.2H-1.9z"/>
		<path id="Path_57" class="st7" d="M28.9,57.2V71c0,1.3-3,2.3-6.7,2.3h5c3.7,0,6.7-1,6.7-2.3V57.2H28.9z"/>
		<path id="Path_58" class="st8" d="M34.2,34.1h8.5c1.5-0.1,2.8,1.1,2.8,2.6v26.6c-0.1,1.5-1.4,2.6-2.8,2.6h-8.5v-5h4.8
			c0.8,0.1,1.5-0.5,1.5-1.3V40.4c-0.1-0.8-0.8-1.3-1.5-1.3h-4.8V34.1z"/>
		<path id="Path_59" class="st7" d="M1.8,57.2L1.8,57.2c1.4,0,2.6,0.4,2.6,0.8v8.2c0,0.4-1.2,0.8-2.6,0.8l0,0
			c-1.4,0-2.6-0.4-2.6-0.8V58C-0.7,57.6,0.5,57.2,1.8,57.2z"/>
		<path id="Path_60" class="st7" d="M13.5,57.2L13.5,57.2c1.4,0,2.6,0.4,2.6,0.8v8.1c0,0.4-1.2,0.8-2.6,0.8l0,0
			c-1.4,0-2.6-0.4-2.6-0.8V58C11,57.6,12.1,57.2,13.5,57.2z"/>
		<path id="Path_61" class="st7" d="M25,57.2L25,57.2c1.4,0,2.6,0.4,2.6,0.8v8.1c0,0.4-1.2,0.8-2.6,0.8l0,0c-1.4,0-2.6-0.4-2.6-0.8
			V58C22.5,57.6,23.6,57.2,25,57.2z"/>
	</g>
	<g id="Layer_1-3_1_" transform="translate(9 19.069)">
		<path id="Path_62" d="M45.2,18h-7.6V5.2l0,0c0-0.1-0.1-0.4-0.1-0.5L37,4.3c-0.3-0.2-0.6-0.4-0.9-0.7c-0.3-0.1-0.5-0.1-0.8-0.3
			H-5.3c-0.1,0-0.4,0.1-0.5,0.1C-6,3.7-6.3,3.8-6.4,4.1l-0.3,0.3l-0.1,0.1C-6.8,5-7,5.4-7,5.9v47.6c0.1,4.5,3.8,8,8.2,7.9
			c0,0,0,0,0,0h27.9c4.5,0.1,8.1-3.4,8.2-7.9c0,0,0,0,0,0H45c2.3,0.1,4.2-1.7,4.3-3.9V21.9C49.3,19.7,47.4,17.9,45.2,18z M34.9,53.5
			c-0.1,3-2.6,5.4-5.6,5.3c0,0,0,0,0,0h-28c-3,0.1-5.5-2.2-5.6-5.2c0,0,0,0,0,0V15.4h39.3V53.5z M34.9,12.7H-4.3V6.2h39.3V12.7z
			 M37.6,25.9h3.7c0.3,0,0.3,0.1,0.4,0v19.6c-0.1,0.1-0.3,0.1-0.4,0.1h-3.7V25.9z M46.7,49.5c-0.1,0.8-0.8,1.4-1.7,1.3c0,0,0,0,0,0
			h-7.5v-2.6h3.7c1.5,0.1,2.9-1,3-2.6c0,0,0,0,0-0.1V25.9c-0.1-1.5-1.4-2.7-3-2.6c0,0,0,0-0.1,0h-3.7v-2.6h7.6
			c0.8-0.1,1.6,0.5,1.7,1.3v27.6L46.7,49.5z"/>
		<path id="Path_63" d="M3.3,20.2c-2.1,0-3.8,1.6-3.9,3.7c0,0,0,0.1,0,0.1v27c0,2.1,1.7,3.9,3.9,3.9s3.9-1.7,3.9-3.9v-27
			c0-2.1-1.6-3.8-3.7-3.9C3.4,20.2,3.4,20.2,3.3,20.2z M4.6,51.1c0,0.7-0.6,1.3-1.3,1.3c-0.7,0-1.3-0.6-1.3-1.3v-27
			c0-0.7,0.6-1.3,1.3-1.3c0.7,0,1.3,0.6,1.3,1.3V51.1z"/>
		<path id="Path_64" d="M15.3,20.2c-2.1,0-3.8,1.6-3.9,3.7c0,0,0,0.1,0,0.1v27c0,2.1,1.7,3.9,3.9,3.9s3.9-1.7,3.9-3.9v-27
			c0-2.1-1.6-3.8-3.7-3.9C15.4,20.2,15.3,20.2,15.3,20.2z M16.6,51.1c0,0.7-0.6,1.3-1.3,1.3c-0.7,0-1.3-0.6-1.3-1.3v-27
			c0-0.7,0.6-1.3,1.3-1.3c0.7,0,1.3,0.6,1.3,1.3V51.1z"/>
		<path id="Path_65" d="M27.1,20.2c-2.1,0-3.8,1.6-3.9,3.7c0,0,0,0.1,0,0.1v27c0,2.1,1.7,3.9,3.9,3.9c2.1,0,3.9-1.7,3.9-3.9v-27
			c0-2.1-1.6-3.8-3.7-3.9C27.2,20.2,27.1,20.2,27.1,20.2z M28.4,51.1c0,0.7-0.6,1.3-1.3,1.3c-0.7,0-1.3-0.6-1.3-1.3c0,0,0,0,0,0v-27
			c0-0.7,0.6-1.3,1.3-1.3c0.7,0,1.3,0.6,1.3,1.3V51.1z"/>
	</g>
</g>
<g id="Cerveza_media_vacia-2" transform="translate(196.838 -4.825)">
	<g id="colour-2_1_" transform="translate(11.572 4.825)">
		<path id="Path_53-2" class="st3" d="M-3.5,5.9"/>
		<path id="Path_54-2" class="st4" d="M21,3.5"/>
		<path id="Path_55-2" class="st5" d="M26.5,73.3H-0.3c-3.6,0-6.6-0.8-6.7-1.9V57.2h40.1v14.1C33,72.5,30.1,73.3,26.5,73.3z"/>
		<path id="Path_56-2" class="st6" d="M-1.9,57.2V72c0,1.4,3,2.4,6.7,2.4h-5C-4,74.5-7,73.3-7,72V57.2H-1.9z"/>
		<path id="Path_57-2" class="st7" d="M28.9,57.2V71c0,1.3-3,2.3-6.7,2.3h5c3.7,0,6.7-1,6.7-2.3V57.2H28.9z"/>
		<path id="Path_58-2" class="st8" d="M34.2,34.1h8.5c1.5-0.1,2.8,1.1,2.8,2.6v26.6c-0.1,1.5-1.4,2.6-2.8,2.6h-8.5v-5h4.8
			c0.8,0.1,1.5-0.5,1.5-1.3V40.4c-0.1-0.8-0.8-1.3-1.5-1.3h-4.8V34.1z"/>
		<path id="Path_59-2" class="st7" d="M1.8,57.2L1.8,57.2c1.4,0,2.6,0.4,2.6,0.8v8.2c0,0.4-1.2,0.8-2.6,0.8l0,0
			c-1.4,0-2.6-0.4-2.6-0.8V58C-0.7,57.6,0.5,57.2,1.8,57.2z"/>
		<path id="Path_60-2" class="st7" d="M13.5,57.2L13.5,57.2c1.4,0,2.6,0.4,2.6,0.8v8.1c0,0.4-1.2,0.8-2.6,0.8l0,0
			c-1.4,0-2.6-0.4-2.6-0.8V58C11,57.6,12.1,57.2,13.5,57.2z"/>
		<path id="Path_61-2" class="st7" d="M25,57.2L25,57.2c1.4,0,2.6,0.4,2.6,0.8v8.1c0,0.4-1.2,0.8-2.6,0.8l0,0
			c-1.4,0-2.6-0.4-2.6-0.8V58C22.5,57.6,23.6,57.2,25,57.2z"/>
	</g>
	<g id="Layer_1-4_1_" transform="translate(9 19.069)">
		<path id="Path_62-2" d="M45.2,18h-7.6V5.2l0,0c0-0.1-0.1-0.4-0.1-0.5L37,4.3c-0.3-0.2-0.6-0.4-0.9-0.7c-0.3-0.1-0.5-0.1-0.8-0.3
			H-5.3c-0.1,0-0.4,0.1-0.5,0.1C-6,3.7-6.3,3.8-6.4,4.1l-0.3,0.3l-0.1,0.1C-6.8,5-7,5.4-7,5.9v47.6c0.1,4.5,3.8,8,8.2,7.9
			c0,0,0,0,0,0h27.9c4.5,0.1,8.1-3.4,8.2-7.9c0,0,0,0,0,0H45c2.3,0.1,4.2-1.7,4.3-3.9V21.9C49.3,19.7,47.4,17.9,45.2,18z M34.9,53.5
			c-0.1,3-2.6,5.4-5.6,5.3c0,0,0,0,0,0h-28c-3,0.1-5.5-2.2-5.6-5.2c0,0,0,0,0,0V15.4h39.3V53.5z M34.9,12.7H-4.3V6.2h39.3V12.7z
			 M37.6,25.9h3.7c0.3,0,0.3,0.1,0.4,0v19.6c-0.1,0.1-0.3,0.1-0.4,0.1h-3.7V25.9z M46.7,49.5c-0.1,0.8-0.8,1.4-1.7,1.3c0,0,0,0,0,0
			h-7.5v-2.6h3.7c1.5,0.1,2.9-1,3-2.6c0,0,0,0,0-0.1V25.9c-0.1-1.5-1.4-2.7-3-2.6c0,0,0,0-0.1,0h-3.7v-2.6h7.6
			c0.8-0.1,1.6,0.5,1.7,1.3v27.6L46.7,49.5z"/>
		<path id="Path_63-2" d="M3.3,20.2c-2.1,0-3.8,1.6-3.9,3.7c0,0,0,0.1,0,0.1v27c0,2.1,1.7,3.9,3.9,3.9s3.9-1.7,3.9-3.9v-27
			c0-2.1-1.6-3.8-3.7-3.9C3.4,20.2,3.4,20.2,3.3,20.2z M4.6,51.1c0,0.7-0.6,1.3-1.3,1.3c-0.7,0-1.3-0.6-1.3-1.3v-27
			c0-0.7,0.6-1.3,1.3-1.3c0.7,0,1.3,0.6,1.3,1.3V51.1z"/>
		<path id="Path_64-2" d="M15.3,20.2c-2.1,0-3.8,1.6-3.9,3.7c0,0,0,0.1,0,0.1v27c0,2.1,1.7,3.9,3.9,3.9s3.9-1.7,3.9-3.9v-27
			c0-2.1-1.6-3.8-3.7-3.9C15.4,20.2,15.3,20.2,15.3,20.2z M16.6,51.1c0,0.7-0.6,1.3-1.3,1.3c-0.7,0-1.3-0.6-1.3-1.3v-27
			c0-0.7,0.6-1.3,1.3-1.3c0.7,0,1.3,0.6,1.3,1.3V51.1z"/>
		<path id="Path_65-2" d="M27.1,20.2c-2.1,0-3.8,1.6-3.9,3.7c0,0,0,0.1,0,0.1v27c0,2.1,1.7,3.9,3.9,3.9c2.1,0,3.9-1.7,3.9-3.9v-27
			c0-2.1-1.6-3.8-3.7-3.9C27.2,20.2,27.1,20.2,27.1,20.2z M28.4,51.1c0,0.7-0.6,1.3-1.3,1.3c-0.7,0-1.3-0.6-1.3-1.3c0,0,0,0,0,0v-27
			c0-0.7,0.6-1.3,1.3-1.3c0.7,0,1.3,0.6,1.3,1.3V51.1z"/>
	</g>
</g>
<g id="Cerveza_media_vacia-3" transform="translate(45.513 -3.612)">
	<g id="colour-3_1_" transform="translate(10.307 4.825)">
		<path id="Path_53-3" class="st3" d="M42.8,5.9"/>
		<path id="Path_54-3" class="st4" d="M18,3.5"/>
		<path id="Path_55-3" class="st5" d="M12.4,72.1h27.2c3.7,0,6.7-0.8,6.8-1.9V56H5.6v14.1C5.7,71.3,8.7,72.1,12.4,72.1z"/>
		<path id="Path_56-3" class="st6" d="M41.3,56v14.8c0,1.4-3,2.4-6.8,2.4h5.1c3.8,0,6.8-1.2,6.8-2.4V56H41.3z"/>
		<path id="Path_57-3" class="st7" d="M9.9,56v13.8c0,1.3,3,2.3,6.8,2.3h-5.1c-3.8,0-6.8-1-6.8-2.3V56H9.9z"/>
		<path id="Path_58-3" class="st8" d="M4.5,32.9h-8.6c-1.5-0.1-2.8,1.1-2.9,2.6v26.6c0.1,1.5,1.4,2.6,2.9,2.6h8.6v-5h-4.8
			c-0.8,0.1-1.5-0.5-1.6-1.3V39.2c0.1-0.8,0.8-1.3,1.6-1.3h4.8V32.9z"/>
		<path id="Path_59-3" class="st7" d="M37.5,56L37.5,56c-1.4,0-2.6,0.4-2.6,0.8V65c0,0.4,1.2,0.8,2.6,0.8l0,0c1.4,0,2.6-0.4,2.6-0.8
			v-8.2C39.9,56.4,38.8,56,37.5,56z"/>
		<path id="Path_60-3" class="st7" d="M25.6,56L25.6,56c-1.4,0-2.6,0.4-2.6,0.8v8.1c0,0.4,1.2,0.8,2.6,0.8l0,0
			c1.4,0,2.6-0.4,2.6-0.8v-8.1C28.1,56.4,27,56,25.6,56z"/>
		<path id="Path_61-3" class="st7" d="M13.8,56L13.8,56c-1.4,0-2.6,0.4-2.6,0.8v8.1c0,0.4,1.2,0.8,2.6,0.8l0,0
			c1.4,0,2.6-0.4,2.6-0.8v-8.1C16.4,56.4,15.3,56,13.8,56z"/>
	</g>
	<g id="Layer_1-5" transform="translate(9 19.069)">
		<path id="Path_62-3" d="M-2.7,17.7H5V5.2l0,0c0-0.1,0.1-0.4,0.1-0.5l0.4-0.4c0.3-0.2,0.7-0.4,0.9-0.6C6.7,3.5,7,3.5,7.3,3.4h41.3
			c0.1,0,0.4,0.1,0.5,0.1c0.3,0.1,0.5,0.3,0.7,0.5L50,4.3l0.1,0.1c0,0.5,0.1,0.9,0.1,1.4v46.6c-0.2,4.4-3.9,7.9-8.4,7.7H13.5
			c-4.4,0.2-8.2-3.3-8.4-7.7h-7.7c-2.3,0.1-4.2-1.6-4.4-3.9v-27C-6.8,19.3-4.9,17.6-2.7,17.7z M7.7,52.4c0.2,3,2.7,5.3,5.7,5.1
			c0,0,0,0,0,0h28.5c3,0.2,5.6-2.1,5.7-5.1c0,0,0,0,0,0V15.1H7.7V52.4z M7.7,12.5h39.9V6.1H7.7V12.5z M5,25.4H1.3
			c-0.3,0-0.3,0.1-0.4,0v19.2c0.1,0.1,0.3,0.1,0.4,0.1H5L5,25.4z M-4.3,48.6c0.1,0.8,0.9,1.4,1.7,1.3c0,0,0,0,0,0H5v-2.6H1.3
			c-1.5,0.1-2.9-1-3.1-2.5c0,0,0,0,0,0V25.4c0.1-1.5,1.5-2.7,3-2.6c0,0,0,0,0,0H5v-2.6h-7.7c-0.8-0.1-1.6,0.5-1.7,1.3v27H-4.3z"/>
		<path id="Path_63-3" d="M39.8,19c2.1-0.1,3.9,1.6,3.9,3.7c0,0,0,0.1,0,0.1v27c0,2.1-1.7,3.8-3.8,3.9c0,0-0.1,0-0.1,0
			c-2.1,0.1-3.9-1.6-3.9-3.7c0,0,0-0.1,0-0.1v-27c0-2.1,1.7-3.8,3.8-3.9C39.7,19,39.8,19,39.8,19z M38.5,49.9c0,0.7,0.6,1.3,1.3,1.3
			c0.7,0,1.3-0.6,1.3-1.3v-27c0-0.7-0.6-1.3-1.3-1.3c-0.7,0-1.3,0.6-1.3,1.3l0,0V49.9z"/>
		<path id="Path_64-3" d="M27.7,19c2.1-0.1,3.9,1.6,3.9,3.7c0,0,0,0.1,0,0.1v27c0,2.2-1.8,3.9-3.9,3.9c-2.2,0-3.9-1.8-3.9-3.9v-27
			c0-2.1,1.7-3.8,3.8-3.9C27.6,19,27.6,19,27.7,19z M26.4,49.9c0,0.7,0.6,1.3,1.3,1.3c0.7,0,1.3-0.6,1.3-1.3v-27
			c0-0.7-0.6-1.3-1.3-1.3c-0.7,0-1.3,0.6-1.3,1.3l0,0V49.9z"/>
		<path id="Path_65-3" d="M15.6,19c2.1-0.1,3.9,1.6,3.9,3.7c0,0,0,0.1,0,0.1v27c0,2.2-1.8,3.9-3.9,3.9s-3.9-1.8-3.9-3.9l0,0v-27
			c0-2.1,1.7-3.8,3.8-3.9C15.6,19,15.6,19,15.6,19z M14.3,49.9c0,0.7,0.6,1.3,1.3,1.3c0.7,0,1.3-0.6,1.3-1.3l0,0v-27
			c0-0.7-0.6-1.3-1.3-1.3c-0.7,0-1.3,0.6-1.3,1.3V49.9z"/>
	</g>
</g>
<g id="Cerveza_media_vacia-4" transform="translate(9.513 -3.612)">
	<g id="colour-4_1_" transform="translate(10.307 4.825)">
		<path id="Path_53-4" class="st3" d="M42.8,5.9"/>
		<path id="Path_54-4" class="st4" d="M18,3.5"/>
		<path id="Path_55-4" class="st5" d="M12.4,72.1h27.2c3.7,0,6.7-0.8,6.8-1.9V56H5.6v14.1C5.7,71.3,8.7,72.1,12.4,72.1z"/>
		<path id="Path_56-4" class="st6" d="M41.3,56v14.8c0,1.4-3,2.4-6.8,2.4h5.1c3.8,0,6.8-1.2,6.8-2.4V56H41.3z"/>
		<path id="Path_57-4" class="st7" d="M9.9,56v13.8c0,1.3,3,2.3,6.8,2.3h-5.1c-3.8,0-6.8-1-6.8-2.3V56H9.9z"/>
		<path id="Path_58-4" class="st8" d="M4.5,32.9h-8.6c-1.5-0.1-2.8,1.1-2.9,2.6v26.6c0.1,1.5,1.4,2.6,2.9,2.6h8.6v-5h-4.8
			c-0.8,0.1-1.5-0.5-1.6-1.3V39.2c0.1-0.8,0.8-1.3,1.6-1.3h4.8V32.9z"/>
		<path id="Path_59-4" class="st7" d="M37.5,56L37.5,56c-1.4,0-2.6,0.4-2.6,0.8V65c0,0.4,1.2,0.8,2.6,0.8l0,0c1.4,0,2.6-0.4,2.6-0.8
			v-8.2C39.9,56.4,38.8,56,37.5,56z"/>
		<path id="Path_60-4" class="st7" d="M25.6,56L25.6,56c-1.4,0-2.6,0.4-2.6,0.8v8.1c0,0.4,1.2,0.8,2.6,0.8l0,0
			c1.4,0,2.6-0.4,2.6-0.8v-8.1C28.1,56.4,27,56,25.6,56z"/>
		<path id="Path_61-4" class="st7" d="M13.8,56L13.8,56c-1.4,0-2.6,0.4-2.6,0.8v8.1c0,0.4,1.2,0.8,2.6,0.8l0,0
			c1.4,0,2.6-0.4,2.6-0.8v-8.1C16.4,56.4,15.3,56,13.8,56z"/>
	</g>
	<g id="Layer_1-6" transform="translate(9 19.069)">
		<path id="Path_62-4" d="M-2.7,17.7H5V5.2l0,0c0-0.1,0.1-0.4,0.1-0.5l0.4-0.4c0.3-0.2,0.7-0.4,0.9-0.6C6.7,3.5,7,3.5,7.3,3.4h41.3
			c0.1,0,0.4,0.1,0.5,0.1c0.3,0.1,0.5,0.3,0.7,0.5L50,4.3l0.1,0.1c0,0.5,0.1,0.9,0.1,1.4v46.6c-0.2,4.4-3.9,7.9-8.4,7.7H13.5
			c-4.4,0.2-8.2-3.3-8.4-7.7h-7.7c-2.3,0.1-4.2-1.6-4.4-3.9v-27C-6.8,19.3-4.9,17.6-2.7,17.7z M7.7,52.4c0.2,3,2.7,5.3,5.7,5.1
			c0,0,0,0,0,0h28.5c3,0.2,5.6-2.1,5.7-5.1c0,0,0,0,0,0V15.1H7.7V52.4z M7.7,12.5h39.9V6.1H7.7V12.5z M5,25.4H1.3
			c-0.3,0-0.3,0.1-0.4,0v19.2c0.1,0.1,0.3,0.1,0.4,0.1H5L5,25.4z M-4.3,48.6c0.1,0.8,0.9,1.4,1.7,1.3c0,0,0,0,0,0H5v-2.6H1.3
			c-1.5,0.1-2.9-1-3.1-2.5c0,0,0,0,0,0V25.4c0.1-1.5,1.5-2.7,3-2.6c0,0,0,0,0,0H5v-2.6h-7.7c-0.8-0.1-1.6,0.5-1.7,1.3v27H-4.3z"/>
		<path id="Path_63-4" d="M39.8,19c2.1-0.1,3.9,1.6,3.9,3.7c0,0,0,0.1,0,0.1v27c0,2.1-1.7,3.8-3.8,3.9c0,0-0.1,0-0.1,0
			c-2.1,0.1-3.9-1.6-3.9-3.7c0,0,0-0.1,0-0.1v-27c0-2.1,1.7-3.8,3.8-3.9C39.7,19,39.8,19,39.8,19z M38.5,49.9c0,0.7,0.6,1.3,1.3,1.3
			s1.3-0.6,1.3-1.3v-27c0-0.7-0.6-1.3-1.3-1.3s-1.3,0.6-1.3,1.3l0,0V49.9z"/>
		<path id="Path_64-4" d="M27.7,19c2.1-0.1,3.9,1.6,3.9,3.7c0,0,0,0.1,0,0.1v27c0,2.2-1.8,3.9-3.9,3.9c-2.2,0-3.9-1.8-3.9-3.9v-27
			c0-2.1,1.7-3.8,3.8-3.9C27.6,19,27.6,19,27.7,19z M26.4,49.9c0,0.7,0.6,1.3,1.3,1.3c0.7,0,1.3-0.6,1.3-1.3v-27
			c0-0.7-0.6-1.3-1.3-1.3c-0.7,0-1.3,0.6-1.3,1.3l0,0V49.9z"/>
		<path id="Path_65-4" d="M15.6,19c2.1-0.1,3.9,1.6,3.9,3.7c0,0,0,0.1,0,0.1v27c0,2.2-1.8,3.9-3.9,3.9s-3.9-1.8-3.9-3.9l0,0v-27
			c0-2.1,1.7-3.8,3.8-3.9C15.6,19,15.6,19,15.6,19z M14.3,49.9c0,0.7,0.6,1.3,1.3,1.3c0.7,0,1.3-0.6,1.3-1.3l0,0v-27
			c0-0.7-0.6-1.3-1.3-1.3c-0.7,0-1.3,0.6-1.3,1.3V49.9z"/>
	</g>
</g>
</svg>
