<?xml version="1.0" encoding="utf-8"?>
<!-- Generator: Adobe Illustrator 23.0.0, SVG Export Plug-In . SVG Version: 6.00 Build 0)  -->
<svg version="1.1" id="Capa_1" xmlns="http://www.w3.org/2000/svg" xmlns:xlink="http://www.w3.org/1999/xlink" x="0px" y="0px"
	 viewBox="0 0 48 64" style="enable-background:new 0 0 48 64;" xml:space="preserve">
<style type="text/css">
	.st0{fill:#414952;}
	.st1{fill:#E9EDF5;}
	.st2{fill:#AFB4C8;}
	.st3{fill:#BC6829;}
	.st4{fill:#9E5015;}
	.st5{fill:#EB975D;}
	.st6{fill:#FFB680;}
	.st7{fill:#FFDAAA;}
	.st8{fill:none;stroke:#000000;stroke-width:2;stroke-linejoin:round;}
	.st9{stroke:#000000;stroke-width:0.25;stroke-miterlimit:10;}
	.st10{fill:#FFFFFF;stroke:#000000;stroke-miterlimit:10;}
	.st11{fill:none;stroke:#000000;stroke-miterlimit:10;}
</style>
<title></title>
<g id="_47-nurse">
	<polygon class="st0" points="37,51 37,57 33,59 29,57 29,51 	"/>
	<polygon class="st0" points="19,51 19,57 15,59 11,57 11,51 	"/>
	<polygon class="st0" points="24,41 21,44 17,40 17,37.6 20,37 	"/>
	<polygon class="st0" points="31,37.6 31,40 27,44 24,41 28,37 	"/>
	<path class="st1" d="M19,51h-8v6l4,2l4-2V51z M24,41v22H1V41l16-3.4V40l4,4L24,41z"/>
	<path class="st1" d="M37,51h-8v6l4,2l4-2V51z M41,63H24V41l3,3l4-4v-2.4L47,41v22H41z"/>
	<polygon class="st2" points="15,62 19,60 19,57 15,59 11,57 11,60 	"/>
	<polygon class="st2" points="21,44 17,40 17,37.6 1,41 1,44 17,40.6 17,43 21,47 24,44 24,41 	"/>
	<polygon class="st2" points="31,37.6 31,40 27,44 24,41 24,44 27,47 31,43 31,40.6 47,44 47,41 	"/>
	<polygon class="st2" points="33,62 37,60 37,57 33,59 29,57 29,60 	"/>
	<path class="st3" d="M16,13.9V16c-1.1,0-2.1,0.4-2.8,1.2L13,17l-1-1v-3c0-6.6,5.4-12,12-12s12,5.4,12,12v3l-1,1l-0.2,0.2
		C34.1,16.4,33.1,16,32,16v-2.1c-4.8-0.4-5.8-2-6-2.7C22.9,12.9,19.5,13.8,16,13.9z"/>
	<path class="st4" d="M23,11.3c-3.1,1.6-6.5,2.6-10,2.7V16c-0.3,0-0.6,0-0.9,0.1L13,17l0.2,0.2c0.8-0.7,1.8-1.2,2.8-1.2v-2.1
		c2.7-0.1,5.3-0.7,7.8-1.6C23.4,12.1,23.2,11.7,23,11.3z"/>
	<path class="st4" d="M24,1c-0.5,0-1,0-1.5,0.1C28.5,1.9,33,7,33,13v3l-0.1,0.1c0.7,0.2,1.4,0.5,1.9,1.1L35,17l1-1v-3
		C36,6.4,30.6,1,24,1z"/>
	<path class="st5" d="M16,16v8c-2.2,0-4-1.8-4-4S13.8,16,16,16z"/>
	<path class="st5" d="M34.8,17.2c1.6,1.6,1.6,4.1,0,5.7C34.1,23.6,33.1,24,32,24v-8C33.1,16,34.1,16.4,34.8,17.2z"/>
	<path class="st6" d="M28,32v5l-4,4l-4-4v-5l0-0.1C22.5,33.4,25.5,33.4,28,32L28,32z"/>
	<path class="st5" d="M28,31.9c-2.5,1.4-5.5,1.4-7.9,0l0,0.1v3l0-0.1c2.5,1.4,5.5,1.4,7.9,0l0,0.1L28,31.9L28,31.9z"/>
	<path class="st7" d="M32,24v1c0,4.4-3.6,8-8,8c-1.4,0-2.8-0.4-4-1.1c-0.6-0.3-1.2-0.8-1.7-1.3C16.8,29.2,16,27.1,16,25V13.9
		c3.5-0.1,6.9-1,10-2.7c0.2,0.6,1.2,2.3,6,2.7V24z"/>
	<path class="st6" d="M26,11.3c-3.1,1.6-6.5,2.6-10,2.7v4c3.5-0.1,6.9-1,10-2.7c0.2,0.6,1.2,2.3,6,2.7v-4
		C27.2,13.6,26.3,11.9,26,11.3z"/>
	<path class="st8" d="M32,14v11c0,4.4-3.6,8-8,8c-1.4,0-2.8-0.4-4-1.1c-0.6-0.3-1.2-0.8-1.7-1.3C16.8,29.2,16,27.1,16,25V14"/>
	<path class="st8" d="M35,17l1-1v-3c0-6.6-5.4-12-12-12S12,6.4,12,13v3l1,1"/>
	<path class="st8" d="M32,24c2.2,0,4-1.8,4-4s-1.8-4-4-4"/>
	<path class="st8" d="M16,16c-2.2,0-4,1.8-4,4s1.8,4,4,4"/>
	<polyline class="st8" points="20,32 20,37 17,37.6 1,41 1,63 7,63 24,63 41,63 47,63 47,41 31,37.6 28,37 28,32 	"/>
	<line class="st8" x1="7" y1="63" x2="7" y2="50"/>
	<line class="st8" x1="41" y1="63" x2="41" y2="50"/>
	<path class="st8" d="M29,9c-0.8,0.9-1.8,1.7-3,2.3c-3.1,1.6-6.5,2.6-10,2.7c-0.6,0-1.3,0.1-2,0.1"/>
	<path class="st8" d="M26,11c0,0.1,0,0.2,0,0.3c0.2,0.6,1.2,2.3,6,2.7c0.6,0,1.3,0.1,2,0.1"/>
	<polyline class="st8" points="20,37 24,41 28,37 	"/>
	<polyline class="st8" points="31,37 31,37.6 31,40 27,44 24,41 21,44 17,40 17,37.6 17,37 	"/>
	<line class="st8" x1="24" y1="41" x2="24" y2="63"/>
	<polygon class="st8" points="37,57 37,51 29,51 29,57 33,59 	"/>
	<polygon class="st8" points="19,57 19,51 11,51 11,57 15,59 	"/>
	<line class="st8" x1="10" y1="48" x2="20" y2="48"/>
	<line class="st8" x1="28" y1="48" x2="38" y2="48"/>
	<path class="st9" d="M27.1,19c-1.1,0-1.9,0.9-1.9,1.9h0.8c0-0.6,0.5-1.1,1.1-1.1s1.1,0.5,1.1,1.1H29C29,19.9,28.1,19,27.1,19z"/>
	<path class="st9" d="M21.2,19c-1.1,0-1.9,0.9-1.9,1.9h0.8c0-0.6,0.5-1.1,1.1-1.1c0.6,0,1.1,0.5,1.1,1.1h0.8
		C23.1,19.9,22.3,19,21.2,19z"/>
	<g>
		<path class="st10" d="M24,29.7c-2.8,0-4-1.8-4-2.5c0-0.4,0.3-0.5,0.5-0.5h7c0.2,0,0.5,0.1,0.5,0.5C28,27.8,26.8,29.7,24,29.7z"/>
	</g>
</g>
<path class="st11" d="M28,26.4"/>
<path class="st11" d="M20.5,26.2"/>
</svg>
