<?xml version="1.0" encoding="utf-8"?>
<!-- Generator: Adobe Illustrator 23.0.0, SVG Export Plug-In . SVG Version: 6.00 Build 0)  -->
<svg version="1.1" id="Capa_1" xmlns="http://www.w3.org/2000/svg" xmlns:xlink="http://www.w3.org/1999/xlink" x="0px" y="0px"
	 viewBox="0 0 48 64" style="enable-background:new 0 0 48 64;" xml:space="preserve">
<style type="text/css">
	.st0{fill:#B25E1E;}
	.st1{fill:#704021;}
	.st2{fill:#D1813B;}
	.st3{fill:#19CFFC;}
	.st4{fill:#AFB4C8;}
	.st5{fill:#414952;}
	.st6{fill:#E9EDF5;}
	.st7{fill:#FFB680;}
	.st8{fill:#FFDAAA;}
	.st9{fill:none;stroke:#000000;stroke-width:2;stroke-linejoin:round;}
	.st10{fill:#FFFFFF;stroke:#000000;stroke-width:1.25;stroke-miterlimit:10;}
	.st11{fill:none;stroke:#000000;stroke-miterlimit:10;}
</style>
<title></title>
<g id="_40-Dealer">
	<path class="st0" d="M15,14.9L15,14.9l0.4,4.1H15c-1.7,0-3,1.3-3,3s1.3,3,3,3h0.9l0.1,1c0,2.3,1,4.6,2.8,6.1L13,35
		c-2-6.5-3-13.2-3-20c0-7.7,6.3-14,14-14s14,6.3,14,14c0,6.8-1,13.5-3,20l-5.8-2.9c0.2-0.1,0.3-0.3,0.5-0.4c1.5-1.5,2.3-3.5,2.3-5.7
		l0.1-1H33c1.7,0,3-1.3,3-3s-1.3-3-3-3h-0.4l0.4-4c0,0-1.9,0-4.2-0.2c-3.1-0.3-7-1-8.8-2.7C19.9,12.5,19.5,14.4,15,14.9z"/>
	<path class="st1" d="M32.1,29H33c1.7,0,3-1.3,3-3c0-0.7-0.3-1.5-0.8-2c-0.6,0.6-1.4,1-2.2,1h-0.9L32,26c0,2.1-0.8,4.2-2.3,5.7
		c-0.2,0.2-0.3,0.3-0.5,0.4l2.2,1.1c0.4-1,0.7-2.1,0.7-3.2L32.1,29z"/>
	<path class="st2" d="M24,5c7.2,0,13.3,5.5,13.9,12.7c0-0.9,0.1-1.8,0.1-2.7c0-7.7-6.3-14-14-14S10,7.3,10,15c0,0.9,0,1.8,0.1,2.7
		C10.7,10.5,16.8,5,24,5z"/>
	<path class="st2" d="M33,19c0,0-0.1,0-0.4,0l0,0H33z"/>
	<path class="st2" d="M15,19h0.4l0-0.1C15.2,18.9,15.1,18.9,15,19L15,19z"/>
	<path class="st1" d="M16,26l-0.1-1H15c-0.8,0-1.7-0.4-2.2-1c-1.1,1.2-1,3.1,0.2,4.2c0.6,0.5,1.3,0.8,2,0.8h0.9l0.1,1
		c0,1.1,0.2,2.2,0.7,3.2l2.2-1.1C17,30.6,16,28.3,16,26z"/>
	<path class="st3" d="M22,20v1c0,0.3-0.1,0.6-0.2,0.9c-0.5,1.6-2.2,2.4-3.8,1.9c-1.1-0.4-1.9-1.4-2-2.5c0-0.1,0-0.2,0-0.3v-1H22z"/>
	<path class="st3" d="M32,20v1c0,0.1,0,0.2,0,0.3c-0.2,1.6-1.6,2.8-3.3,2.7c-1.2-0.1-2.2-0.9-2.5-2C26,21.6,26,21.3,26,21v-1H32z"/>
	<path class="st4" d="M24,41l-2,2l-4-4v-0.7l0.3-0.1c0.7-0.1,1.3-0.6,1.6-1.3l0.1,0L24,41z"/>
	<path class="st4" d="M30,38.3V39l-4,4l-2-2l4-4l0.1,0c0.2,0.7,0.8,1.2,1.6,1.3L30,38.3z"/>
	<polygon class="st3" points="26,43 25,45 23,45 22,43 24,41 	"/>
	<path class="st3" d="M27,52L27,52c-1.8,1.3-4.2,1.3-6.1,0.1L21,52l2-7h2L27,52z"/>
	<path class="st5" d="M24,53v10H9c0-7,2-10,2-10c3,0,3-1,3-1c0-3.4-1.5-10.5-1.9-12.5l3.9-0.8c0.1,2.5,0.8,10.6,4.9,13.3
		C21.8,52.7,22.9,53,24,53z"/>
	<path class="st5" d="M39,63H24V53c1.1,0,2.2-0.3,3.1-0.9c4.2-2.7,4.8-10.8,4.9-13.3l3.9,0.8c-0.4,2-1.9,9.1-1.9,12.5c0,0,0,1,3,1
		C37,53,39,56,39,63z"/>
	<path class="st6" d="M37,53c-3,0-3-1-3-1c0-3.4,1.5-10.5,1.9-12.5l3.9,0.8c1.9,0.4,3.2,2,3.2,3.9V63h-4C39,56,37,53,37,53z"/>
	<path class="st7" d="M33,19c1.7,0,3,1.3,3,3s-1.3,3-3,3h-0.9l0.3-3.6l0.2-2.4H33z"/>
	<path class="st7" d="M15.4,19L15,15l0-0.1c4.5-0.5,4.9-2.4,5-2.8c1.8,1.6,5.7,2.4,8.8,2.7C31.1,15,33,15,33,15l-0.4,4l-0.2,2.4
		l-0.4,0c0-0.1,0-0.2,0-0.3v-1h-6v1c0,0.3,0.1,0.6,0.2,0.9L26,22h-4l-0.2-0.1c0.1-0.3,0.2-0.6,0.2-0.9v-1h-6v1c0,0.1,0,0.2,0,0.3
		l-0.4,0L15.4,19z"/>
	<path class="st8" d="M29.2,32.1c-0.4,0.3-0.8,0.6-1.2,0.8c-2.5,1.4-5.5,1.4-7.9,0c-0.4-0.2-0.8-0.5-1.2-0.8C17,30.6,16,28.3,16,26
		l-0.1-1l-0.3-3.6l0.4,0c0.2,1.6,1.6,2.8,3.3,2.7c1.2-0.1,2.2-0.9,2.5-2L22,22h4l0.2-0.1c0.5,1.6,2.2,2.4,3.8,1.9
		c1.1-0.4,1.9-1.4,2-2.5l0.4,0L32.1,25L32,26c0,2.1-0.8,4.2-2.3,5.7C29.5,31.8,29.3,32,29.2,32.1z"/>
	<path class="st6" d="M30,38.3l2,0.4c-0.1,2.5-0.8,10.6-4.9,13.3L27,52l-2-7l1-2l4-4V38.3z"/>
	<path class="st7" d="M28.1,37L28,37l-4,4l-4-4l-0.1,0c0.1-0.2,0.1-0.4,0.1-0.7V33l0-0.1c2.5,1.4,5.5,1.4,7.9,0l0,0.1v3.3
		C28,36.5,28,36.8,28.1,37z"/>
	<path class="st6" d="M22,43l1,2l-2,7l-0.1,0.1c-4.2-2.7-4.8-10.8-4.9-13.3l2-0.4V39L22,43z"/>
	<path class="st7" d="M15.6,21.4l0.3,3.6H15c-1.7,0-3-1.3-3-3s1.3-3,3-3h0.4L15.6,21.4z"/>
	<path class="st6" d="M11,53c0,0-2,3-2,10H5V44.3c0-1.9,1.3-3.5,3.2-3.9l3.9-0.8c0.4,2,1.9,9,1.9,12.5C14,52,14,53,11,53z"/>
	<path class="st4" d="M39.8,40.3l-3.9-0.8c-0.4,2-1.9,9-1.9,12.5c0,0.2,0.1,0.3,0.3,0.4c0.4-3.4,1.3-7.5,1.6-8.9l3.9,0.8
		c1.9,0.4,3.2,2,3.2,3.9v-4C43,42.4,41.7,40.7,39.8,40.3z"/>
	<path class="st4" d="M26,47l4-4v-0.7l1.6,0.3c0.2-1.3,0.3-2.6,0.4-3.9l-2-0.4V39l-4,4l-1,2l0.7,2.5L26,47z"/>
	<path class="st4" d="M18,42.3V43l4,4l0.3,0.5L23,45l-1-2l-4-4v-0.7l-2,0.4c0.1,1.3,0.2,2.6,0.4,3.9L18,42.3z"/>
	<path class="st4" d="M8.2,44.3l3.9-0.8c0.3,1.4,1.1,5.5,1.6,8.9c0.2-0.1,0.3-0.3,0.3-0.4c0-3.4-1.5-10.5-1.9-12.5l-3.9,0.8
		c-1.9,0.4-3.2,2-3.2,3.9v4C5,46.4,6.3,44.7,8.2,44.3z"/>
	<path class="st9" d="M20,12.1c-0.6-0.5-1-1.3-1-2.1V8"/>
	<path class="st9" d="M15,15l0.4,4l0.2,2.4l0.3,3.6l0.1,1c0,2.3,1,4.6,2.8,6.1c0.4,0.3,0.8,0.6,1.2,0.8c2.5,1.4,5.5,1.4,7.9,0
		c0.4-0.2,0.8-0.5,1.2-0.8c0.2-0.1,0.3-0.3,0.5-0.4c1.5-1.5,2.3-3.5,2.3-5.7l0.1-1l0.3-3.6l0.2-2.4l0.4-4c0,0-1.9,0-4.2-0.2
		c-3.1-0.3-7-1-8.8-2.7"/>
	<path class="st9" d="M28,33v3.3c0,0.2,0,0.4,0.1,0.7c0.2,0.7,0.8,1.2,1.6,1.3l0.3,0.1l2,0.4l3.9,0.8l3.9,0.8c1.9,0.4,3.2,2,3.2,3.9
		V63H5V44.3c0-1.9,1.3-3.5,3.2-3.9l3.9-0.8l3.9-0.8l2-0.4l0.3-0.1c0.7-0.1,1.3-0.6,1.6-1.3c0.1-0.2,0.1-0.4,0.1-0.7V33"/>
	<path class="st9" d="M29,32l0.2,0.1L35,35c2-6.5,3-13.2,3-20c0-7.7-6.3-14-14-14S10,7.3,10,15c0,6.8,1,13.5,3,20l5.8-2.9L19,32"/>
	<path class="st9" d="M16,19h-1c-1.7,0-3,1.3-3,3s1.3,3,3,3h1"/>
	<path class="st9" d="M32,19h1c1.7,0,3,1.3,3,3s-1.3,3-3,3h-1"/>
	<path class="st9" d="M37,50v3c0,0,2,3,2,10"/>
	<path class="st9" d="M11,50v3c0,0-2,3-2,10"/>
	<path class="st9" d="M26.2,21.9c0.5,1.6,2.2,2.4,3.8,1.9c1.1-0.4,1.9-1.4,2-2.5c0-0.1,0-0.2,0-0.3v-1h-6v1
		C26,21.3,26,21.6,26.2,21.9z"/>
	<path class="st9" d="M16,21.3c0.2,1.6,1.6,2.8,3.3,2.7c1.2-0.1,2.2-0.9,2.5-2c0.1-0.3,0.2-0.6,0.2-0.9v-1h-6v1
		C16,21.1,16,21.2,16,21.3z"/>
	<line class="st9" x1="26" y1="22" x2="22" y2="22"/>
	<path class="st9" d="M20,12C20,12,20,12,20,12C20,12.1,20,12.1,20,12c-0.1,0.5-0.5,2.5-5,2.9C14.3,15,13.7,15,13,15"/>
	<polyline class="st9" points="20,37 24,41 28,37 	"/>
	<polyline class="st9" points="30,38 30,38.3 30,39 26,43 24,41 22,43 18,39 18,38.3 18,38 	"/>
	<polyline class="st9" points="22,43 23,45 25,45 26,43 	"/>
	<path class="st9" d="M16,38c0,0,0,0.3,0,0.8c0.1,2.5,0.8,10.6,4.9,13.3c1.9,1.2,4.3,1.2,6.1,0c4.2-2.7,4.8-10.8,4.9-13.3
		c0-0.5,0-0.8,0-0.8"/>
	<line class="st9" x1="23" y1="45" x2="21" y2="52"/>
	<line class="st9" x1="25" y1="45" x2="27" y2="52"/>
	<line class="st9" x1="24" y1="53" x2="24" y2="63"/>
	<path class="st9" d="M36,39c0,0,0,0.2-0.1,0.5c-0.4,2-1.9,9.1-1.9,12.5c0,0,0,1,3,1"/>
	<path class="st9" d="M12,39c0,0,0,0.2,0.1,0.5c0.4,2,1.9,9.1,1.9,12.5c0,0,0,1-3,1"/>
	<line class="st9" x1="19" y1="56" x2="21" y2="56"/>
	<line class="st9" x1="27" y1="56" x2="29" y2="56"/>
	<line class="st9" x1="27" y1="60" x2="29" y2="60"/>
	<line class="st9" x1="19" y1="60" x2="21" y2="60"/>
	<path class="st9" d="M24,9c0,0-2,2,1,5"/>
	<path class="st9" d="M28,10c0,0-1.9,1.9,0.8,4.8c0.1,0.1,0.2,0.2,0.2,0.2"/>
	<path class="st9" d="M33,15c-0.1-1.9-0.8-3.6-2-5"/>
</g>
<g>
	<path class="st10" d="M24.2,30.5c-2.8,0-4-1.8-4-2.5c0-0.4,0.3-0.5,0.5-0.5h7c0.2,0,0.5,0.1,0.5,0.5C28.2,28.7,26.9,30.5,24.2,30.5
		z"/>
</g>
<path class="st11" d="M28,26.4"/>
<path class="st11" d="M20.5,26.2"/>
</svg>
