<?xml version="1.0" encoding="utf-8"?>
<!-- Generator: Adobe Illustrator 23.0.0, SVG Export Plug-In . SVG Version: 6.00 Build 0)  -->
<svg version="1.1" id="Capa_1" xmlns="http://www.w3.org/2000/svg" xmlns:xlink="http://www.w3.org/1999/xlink" x="0px" y="0px"
	 viewBox="0 0 43 44.1" style="enable-background:new 0 0 43 44.1;" xml:space="preserve">
<style type="text/css">
	.st0{fill:#E0E0E0;}
	.st1{fill:#F4F4F4;}
	.st2{fill:#616161;}
</style>
<title></title>
<g id="colour">
	<path class="st0" d="M3.8-9L3.8-9L3.8-9L3.8-9z"/>
	<path class="st1" d="M22.9-11C22.8-11.1,22.8-11.1,22.9-11C22.8-11.1,22.8-11,22.9-11C22.8-11,22.9-11,22.9-11z"/>
	<path class="st2" d="M33,12.1h6.8c1.2-0.1,2.2,0.8,2.3,2v21c-0.1,1.2-1.1,2.1-2.3,2H33v-4h3.8c0.6,0.1,1.2-0.4,1.3-1v-15
		c-0.1-0.6-0.6-1.1-1.3-1H33V12.1z"/>
</g>
<g id="Layer_1">
	<path d="M39.8,11.1H34V1.4l0,0c0-0.1-0.1-0.3-0.1-0.4c-0.1-0.1-0.2-0.2-0.3-0.3c-0.2-0.1-0.5-0.3-0.7-0.5c-0.2-0.1-0.4-0.1-0.6-0.2
		h-31l0,0C1.2,0,1,0.1,0.9,0.1C0.7,0.2,0.6,0.3,0.4,0.5C0.3,0.6,0.3,0.6,0.2,0.7L0.1,0.8C0.1,1.2,0,1.5,0,1.9v36.2
		c0.1,3.4,2.9,6.1,6.3,6h21.3c3.4,0.1,6.2-2.6,6.3-6h5.8c1.7,0.1,3.2-1.3,3.3-3v-21C42.9,12.4,41.5,11,39.8,11.1z M32,38.1
		c-0.1,2.3-2,4.1-4.3,4H6.3c-2.3,0.1-4.2-1.7-4.3-4v-29h30V38.1z M32,7.1H2v-5h30V7.1z M34,17.1h2.8c0.2,0,0.2,0.1,0.3,0V32
		c-0.2,0.1-0.3,0.1-0.3,0.1H34V17.1z M41,35.1c-0.1,0.6-0.6,1.1-1.3,1H34v-2h2.8c1.2,0.1,2.2-0.8,2.3-2v-15c-0.1-1.2-1.1-2.1-2.3-2
		H34v-2h5.8c0.6-0.1,1.2,0.4,1.3,1L41,35.1L41,35.1z"/>
	<path d="M8,12.1c-1.7,0-3,1.3-3,3v21c0,1.7,1.3,3,3,3s3-1.3,3-3v-21C11,13.4,9.7,12.1,8,12.1z M9,36.1c0,0.6-0.4,1-1,1s-1-0.4-1-1
		v-21c0-0.6,0.4-1,1-1s1,0.4,1,1V36.1z"/>
	<path d="M17,12.1c-1.7,0-3,1.3-3,3v21c0,1.7,1.3,3,3,3s3-1.3,3-3v-21C20,13.4,18.7,12.1,17,12.1z M18,36.1c0,0.6-0.4,1-1,1
		c-0.6,0-1-0.4-1-1v-21c0-0.6,0.4-1,1-1c0.6,0,1,0.4,1,1V36.1z"/>
	<path d="M26,12.1c-1.7,0-3,1.3-3,3v21c0,1.7,1.3,3,3,3s3-1.3,3-3v-21C29,13.4,27.7,12.1,26,12.1z M27,36.1c0,0.6-0.4,1-1,1
		s-1-0.4-1-1v-21c0-0.6,0.4-1,1-1s1,0.4,1,1V36.1z"/>
</g>
</svg>
