<?xml version="1.0" encoding="utf-8"?>
<!-- Generator: Adobe Illustrator 23.0.0, SVG Export Plug-In . SVG Version: 6.00 Build 0)  -->
<svg version="1.1" id="Capa_1" xmlns="http://www.w3.org/2000/svg" xmlns:xlink="http://www.w3.org/1999/xlink" x="0px" y="0px"
	 viewBox="0 0 60 60" style="enable-background:new 0 0 60 60;" xml:space="preserve">
<style type="text/css">
	.st0{fill:#E0E0E0;}
	.st1{fill:#F4F4F4;}
	.st2{fill:#FF9F00;}
	.st3{fill:#FFB15C;}
	.st4{fill:#E28703;}
	.st5{fill:#616161;}
</style>
<title></title>
<g id="colour">
	<path class="st0" d="M13.7,6.8L13.7,6.8L13.7,6.8L13.7,6.8z"/>
	<path class="st1" d="M32.3,4.9C32.3,4.8,32.3,4.8,32.3,4.9C32.3,4.8,32.3,4.9,32.3,4.9C32.3,4.9,32.3,4.9,32.3,4.9z"/>
	<path class="st2" d="M37,58.2H16.2c-2.8,0-5.1-0.6-5.2-1.5v-11h31.2v11C42.1,57.6,39.8,58.2,37,58.2z"/>
	<path class="st3" d="M14.9,45.7v11.5c0,1.1,2.3,1.9,5.2,1.9h-3.9c-2.9,0-5.2-0.9-5.2-1.9V45.7H14.9z"/>
	<path class="st4" d="M38.3,45.7v10.7c0,1-2.3,1.8-5.2,1.8H37c2.9,0,5.2-0.8,5.2-1.8V45.7H38.3z"/>
	<path class="st5" d="M42.2,27.7h6.6c1.1-0.1,2.1,0.8,2.2,2v20.7c-0.1,1.2-1.1,2-2.2,2h-6.6v-3.9h3.7c0.6,0.1,1.1-0.4,1.2-1V32.6
		c-0.1-0.6-0.6-1-1.2-1h-3.7V27.7z"/>
	<path class="st4" d="M17.8,45.7L17.8,45.7c1.1,0,2,0.3,2,0.6v6.4c0,0.3-0.9,0.6-2,0.6l0,0c-1.1,0-2-0.3-2-0.6v-6.4
		C15.9,46,16.8,45.7,17.8,45.7z"/>
	<path class="st4" d="M26.6,45.7L26.6,45.7c1.1,0,2,0.3,2,0.6v6.3c0,0.3-0.9,0.6-2,0.6l0,0c-1.1,0-2-0.3-2-0.6v-6.3
		C24.7,46,25.5,45.7,26.6,45.7z"/>
	<path class="st4" d="M35.4,45.7L35.4,45.7c1.1,0,2,0.3,2,0.6v6.3c0,0.3-0.9,0.6-2,0.6l0,0c-1.1,0-2-0.3-2-0.6v-6.3
		C33.4,46,34.3,45.7,35.4,45.7z"/>
</g>
<g id="Layer_1">
	<path d="M48.8,27H43v-9.7c0,0,0,0,0,0c0-0.1-0.1-0.3-0.1-0.4c-0.1-0.1-0.2-0.2-0.3-0.3c-0.2-0.1-0.5-0.3-0.7-0.5
		c-0.2-0.1-0.4-0.1-0.6-0.2h-31c0,0,0,0,0,0c-0.1,0-0.3,0.1-0.4,0.1c-0.2,0.1-0.3,0.2-0.5,0.4c-0.1,0.1-0.1,0.1-0.2,0.2
		c0,0-0.1,0.1-0.1,0.1c0,0.4-0.1,0.7-0.1,1.1V54c0.1,3.4,2.9,6.1,6.3,6h21.3c3.4,0.1,6.2-2.6,6.3-6h5.8c1.7,0.1,3.2-1.3,3.3-3V30
		C51.9,28.3,50.5,26.9,48.8,27z M41,54c-0.1,2.3-2,4.1-4.3,4H15.3c-2.3,0.1-4.2-1.7-4.3-4V25h30V54z M41,23H11v-5h30V23z M43,33h2.8
		c0.2,0,0.2,0.1,0.3,0l0,14.9C45.9,48,45.8,48,45.8,48H43V33z M50,51c-0.1,0.6-0.6,1.1-1.3,1H43v-2h2.8c1.2,0.1,2.2-0.8,2.3-2V33
		c-0.1-1.2-1.1-2.1-2.3-2H43v-2h5.8c0.6-0.1,1.2,0.4,1.3,1V51z"/>
	<path d="M17,28c-1.7,0-3,1.3-3,3v21c0,1.7,1.3,3,3,3s3-1.3,3-3V31C20,29.3,18.7,28,17,28z M18,52c0,0.6-0.4,1-1,1s-1-0.4-1-1V31
		c0-0.6,0.4-1,1-1s1,0.4,1,1V52z"/>
	<path d="M26,28c-1.7,0-3,1.3-3,3v21c0,1.7,1.3,3,3,3s3-1.3,3-3V31C29,29.3,27.7,28,26,28z M27,52c0,0.6-0.4,1-1,1s-1-0.4-1-1V31
		c0-0.6,0.4-1,1-1s1,0.4,1,1V52z"/>
	<path d="M35,28c-1.7,0-3,1.3-3,3v21c0,1.7,1.3,3,3,3s3-1.3,3-3V31C38,29.3,36.7,28,35,28z M36,52c0,0.6-0.4,1-1,1s-1-0.4-1-1V31
		c0-0.6,0.4-1,1-1s1,0.4,1,1V52z"/>
</g>
</svg>
