<?xml version="1.0" encoding="utf-8"?>
<!-- Generator: Adobe Illustrator 23.0.0, SVG Export Plug-In . SVG Version: 6.00 Build 0)  -->
<svg version="1.1" id="Capa_1" xmlns="http://www.w3.org/2000/svg" xmlns:xlink="http://www.w3.org/1999/xlink" x="0px" y="0px"
	 viewBox="0 0 60 60" style="enable-background:new 0 0 60 60;" xml:space="preserve">
<style type="text/css">
	.st0{fill:#E0E0E0;}
	.st1{fill:#F4F4F4;}
	.st2{fill:#FF9F00;}
	.st3{fill:#FFB15C;}
	.st4{fill:#E28703;}
	.st5{fill:#616161;}
</style>
<title></title>
<g id="colour">
	<path class="st0" d="M12.8,6.9L12.8,6.9L12.8,6.9L12.8,6.9z"/>
	<path class="st1" d="M31.9,4.9C31.8,4.8,31.8,4.8,31.9,4.9C31.8,4.8,31.8,4.9,31.9,4.9C31.8,4.9,31.9,4.9,31.9,4.9z"/>
	<path class="st2" d="M36.7,59H15.3c-2.9,0.1-5.2-1.6-5.3-3.7V28h32v27.3C41.9,57.4,39.5,59.1,36.7,59z"/>
	<path class="st3" d="M14,28v27.4c0,2.5,2.4,4.6,5.3,4.6h-4c-2.9,0-5.3-2-5.3-4.6V28H14z"/>
	<path class="st4" d="M38,28v26.6c0,2.4-2.4,4.4-5.3,4.4h4c2.9,0,5.3-2,5.3-4.4V28H38z"/>
	<path class="st5" d="M42,28h6.8c1.2-0.1,2.2,0.8,2.3,2v21c-0.1,1.2-1.1,2.1-2.3,2H42v-4h3.8c0.6,0.1,1.2-0.4,1.3-1V33
		c-0.1-0.6-0.6-1.1-1.3-1H42V28z"/>
	<path class="st4" d="M17,29L17,29c1.1,0,2,0.9,2,2v21c0,1.1-0.9,2-2,2l0,0c-1.1,0-2-0.9-2-2V31C15,29.9,15.9,29,17,29z"/>
	<path class="st4" d="M26,29L26,29c1.1,0,2,0.9,2,2v21c0,1.1-0.9,2-2,2l0,0c-1.1,0-2-0.9-2-2V31C24,29.9,24.9,29,26,29z"/>
	<path class="st4" d="M35,29L35,29c1.1,0,2,0.9,2,2v21c0,1.1-0.9,2-2,2l0,0c-1.1,0-2-0.9-2-2V31C33,29.9,33.9,29,35,29z"/>
</g>
<g id="Layer_1">
	<path d="M48.8,27H43v-9.7c0,0,0,0,0,0c0-0.1-0.1-0.3-0.1-0.4c-0.1-0.1-0.2-0.2-0.3-0.3c-0.2-0.1-0.5-0.3-0.7-0.5
		c-0.2-0.1-0.4-0.1-0.6-0.2h-31c0,0,0,0,0,0c-0.1,0-0.3,0.1-0.4,0.1c-0.2,0.1-0.3,0.2-0.5,0.4c-0.1,0.1-0.1,0.1-0.2,0.2
		c0,0-0.1,0.1-0.1,0.1c0,0.4-0.1,0.7-0.1,1.1V54c0.1,3.4,2.9,6.1,6.3,6h21.3c3.4,0.1,6.2-2.6,6.3-6h5.8c1.7,0.1,3.2-1.3,3.3-3V30
		C51.9,28.3,50.5,26.9,48.8,27z M41,54c-0.1,2.3-2,4.1-4.3,4H15.3c-2.3,0.1-4.2-1.7-4.3-4V25h30V54z M41,23H11v-5h30V23z M43,33h2.8
		c0.2,0,0.2,0.1,0.3,0l0,14.9C45.9,48,45.8,48,45.8,48H43V33z M50,51c-0.1,0.6-0.6,1.1-1.3,1H43v-2h2.8c1.2,0.1,2.2-0.8,2.3-2V33
		c-0.1-1.2-1.1-2.1-2.3-2H43v-2h5.8c0.6-0.1,1.2,0.4,1.3,1V51z"/>
	<path d="M17,28c-1.7,0-3,1.3-3,3v21c0,1.7,1.3,3,3,3s3-1.3,3-3V31C20,29.3,18.7,28,17,28z M18,52c0,0.6-0.4,1-1,1s-1-0.4-1-1V31
		c0-0.6,0.4-1,1-1s1,0.4,1,1V52z"/>
	<path d="M26,28c-1.7,0-3,1.3-3,3v21c0,1.7,1.3,3,3,3s3-1.3,3-3V31C29,29.3,27.7,28,26,28z M27,52c0,0.6-0.4,1-1,1s-1-0.4-1-1V31
		c0-0.6,0.4-1,1-1s1,0.4,1,1V52z"/>
	<path d="M35,28c-1.7,0-3,1.3-3,3v21c0,1.7,1.3,3,3,3s3-1.3,3-3V31C38,29.3,36.7,28,35,28z M36,52c0,0.6-0.4,1-1,1s-1-0.4-1-1V31
		c0-0.6,0.4-1,1-1s1,0.4,1,1V52z"/>
</g>
</svg>
