<?xml version="1.0" encoding="utf-8"?>
<!-- Generator: Adobe Illustrator 23.0.0, SVG Export Plug-In . SVG Version: 6.00 Build 0)  -->
<svg version="1.1" id="Capa_1" xmlns="http://www.w3.org/2000/svg" xmlns:xlink="http://www.w3.org/1999/xlink" x="0px" y="0px"
	 viewBox="0 0 32 24.4" style="enable-background:new 0 0 32 24.4;" xml:space="preserve">
<style type="text/css">
	.st0{fill:#FFFFFF;}
	.st1{fill:#003DFF;}
	.st2{fill:none;stroke:#000000;stroke-width:2;stroke-linecap:round;stroke-linejoin:round;}
	.st3{fill:#F5FF74;}
	.st4{fill:#F2FF4A;}
</style>
<rect x="11.4" y="9.3" transform="matrix(-1 -1.224647e-16 1.224647e-16 -1 37.425 21.8213)" class="st0" width="14.7" height="3.3"/>
<rect x="1.4" y="15.4" transform="matrix(-1 -1.224647e-16 1.224647e-16 -1 19.899 35.8957)" class="st1" width="17.1" height="5.1"/>
<rect x="5.6" y="13.5" transform="matrix(-1 -1.224647e-16 1.224647e-16 -1 35.5713 34.0766)" class="st1" width="24.3" height="7"/>
<ellipse class="st0" cx="8.2" cy="20.4" rx="2.9" ry="2.9"/>
<ellipse class="st0" cx="23.8" cy="20.5" rx="2.9" ry="2.9"/>
<title></title>
<line class="st2" x1="12.1" y1="20.4" x2="19.9" y2="20.4"/>
<ellipse class="st2" cx="23.8" cy="20.4" rx="2.9" ry="3"/>
<ellipse class="st2" cx="8.2" cy="20.4" rx="2.9" ry="3"/>
<path class="st2" d="M4.3,20.4h-2c-0.5,0-1-0.4-1-1v-2.6c0-0.4,0.2-0.7,0.5-0.9C4.4,14.9,7,14,9.7,13.4l2.5-3.7
	c0.5-0.8,1.4-1.3,2.4-1.3h8.5c1,0,2,0.6,2.5,1.5l1.5,2.5c0.3,0.6,1,1,1.7,1h0.4c0.8,0,1.5,0.7,1.5,1.5v4c0,0.8-0.7,1.5-1.5,1.5h-1.5
	"/>
<polyline class="st2" points="19.9,9.4 19.9,13.4 9.9,13.4 "/>
<line class="st2" x1="28.7" y1="13.4" x2="18.9" y2="13.4"/>
<polyline class="st2" points="2.3,16.4 4.3,16.4 4.3,15.4 "/>
<line class="st2" x1="18.8" y1="16.4" x2="17.9" y2="16.4"/>
<path d="M18,7.4V6.1c0-0.9-0.7-1.7-1.7-1.7h-0.6c-0.9,0-1.7,0.8-1.7,1.7c0,0,0,0,0,0v2.3"/>
<line class="st2" x1="16" y1="2.6" x2="16" y2="1"/>
<line class="st2" x1="12.9" y1="3.2" x2="11.9" y2="2.2"/>
<line class="st2" x1="19.1" y1="3.2" x2="20.1" y2="2.2"/>
<path class="st3" d="M15.1,6.5c0,0.5,0.3,0.9,0.9,0.9c0.6,0,0.9-0.4,0.9-0.9S16.5,5.6,16,5.6C15.4,5.6,15.1,6,15.1,6.5z"/>
<rect x="14.2" y="7.4" transform="matrix(-1 -1.224647e-16 1.224647e-16 -1 31.9689 16.8)" width="3.5" height="2"/>
<rect x="15.1" y="6.5" transform="matrix(-1 -1.224647e-16 1.224647e-16 -1 31.9689 13.9064)" class="st4" width="1.8" height="0.9"/>
</svg>
