<?xml version="1.0" encoding="utf-8"?>
<!-- Generator: Adobe Illustrator 23.0.0, SVG Export Plug-In . SVG Version: 6.00 Build 0)  -->
<svg version="1.1" id="Capa_1" xmlns="http://www.w3.org/2000/svg" xmlns:xlink="http://www.w3.org/1999/xlink" x="0px" y="0px"
	 viewBox="0 0 32 24.4" style="enable-background:new 0 0 32 24.4;" xml:space="preserve">
<style type="text/css">
	.st0{fill:#FFFFFF;}
	.st1{fill:#003DFF;}
	.st2{fill:none;stroke:#000000;stroke-width:2;stroke-linecap:round;stroke-linejoin:round;}
	.st3{fill:#FF0A0A;}
</style>
<rect x="5.7" y="9.3" class="st0" width="15.1" height="3.3"/>
<rect x="13.5" y="15.4" class="st1" width="17.5" height="5.1"/>
<rect x="1.7" y="13.5" class="st1" width="24.9" height="7"/>
<ellipse class="st0" cx="24" cy="20.4" rx="3" ry="2.9"/>
<ellipse class="st0" cx="8" cy="20.5" rx="3" ry="2.9"/>
<title></title>
<line class="st2" x1="20" y1="20.4" x2="12" y2="20.4"/>
<circle class="st2" cx="8" cy="20.4" r="3"/>
<circle class="st2" cx="24" cy="20.4" r="3"/>
<path class="st2" d="M28,20.4h2c0.6,0,1-0.4,1-1v-2.6c0-0.4-0.2-0.7-0.6-0.9c-2.6-1.1-5.2-1.9-7.9-2.5l-2.6-3.7
	c-0.6-0.8-1.5-1.3-2.5-1.3H8.7c-1.1,0-2,0.6-2.6,1.5l-1.6,2.5c-0.4,0.6-1,1-1.7,1H2.5c-0.8,0-1.5,0.7-1.5,1.5v4
	c0,0.8,0.7,1.5,1.5,1.5H4"/>
<polyline class="st2" points="12,9.4 12,13.4 22.2,13.4 "/>
<line class="st2" x1="3" y1="13.4" x2="13" y2="13.4"/>
<polyline class="st2" points="30,16.4 28,16.4 28,15.4 "/>
<line class="st2" x1="13.1" y1="16.4" x2="14" y2="16.4"/>
<path d="M14,7.4V6.1c0-0.9,0.8-1.7,1.7-1.7h0.6c0.9,0,1.7,0.8,1.7,1.7c0,0,0,0,0,0v2.3"/>
<line class="st2" x1="16" y1="2.6" x2="16" y2="1"/>
<line class="st2" x1="19.2" y1="3.2" x2="20.2" y2="2.2"/>
<line class="st2" x1="12.8" y1="3.2" x2="11.8" y2="2.2"/>
<path class="st3" d="M16.9,6.5c0,0.5-0.3,0.9-0.9,0.9c-0.6,0-0.9-0.4-0.9-0.9s0.3-0.9,0.9-0.9C16.6,5.6,16.9,6,16.9,6.5z"/>
<rect x="14.2" y="7.4" width="3.6" height="2"/>
<rect x="15.1" y="6.5" class="st3" width="1.8" height="0.9"/>
</svg>
