<?xml version="1.0" encoding="utf-8"?>
<!-- Generator: Adobe Illustrator 23.0.0, SVG Export Plug-In . SVG Version: 6.00 Build 0)  -->
<svg version="1.1" id="Capa_1" xmlns="http://www.w3.org/2000/svg" xmlns:xlink="http://www.w3.org/1999/xlink" x="0px" y="0px"
	 viewBox="0 0 122.9 285.7" style="enable-background:new 0 0 122.9 285.7;" xml:space="preserve">
<style type="text/css">
	.st0{fill:#FFFFFF;stroke:#000000;stroke-miterlimit:10;}
	.st1{fill:none;stroke:#000000;stroke-width:5.75;stroke-linecap:round;stroke-linejoin:round;stroke-miterlimit:10;}
	.st2{fill:#BF005B;stroke:#000000;stroke-width:5.75;stroke-linecap:round;stroke-linejoin:round;stroke-miterlimit:10;}
</style>
<polygon class="st0" points="3,19.3 8.9,7.5 21.2,2.9 105.3,3.2 117.1,11.1 120,26.8 120,101.7 113.1,128.1 103,141.1 85,152.8 
	72.4,156 72.4,260.8 112.7,260.8 118.7,263.7 120,279.7 99.4,282.8 61.5,282.8 7.8,282.8 2.9,275.5 4.7,263.1 17.4,260.8 
	26.5,261.3 37.8,261.3 42.9,261.7 48.7,261.3 50.5,260.8 50.5,158.4 36.4,152.1 21,142.2 8.2,124.9 2.9,101.7 "/>
<path id="svg_6" class="st1" d="M65.1,156.5h-7.3c-30,0-54.9-24.9-54.9-54.9V21.2c0-10.3,8-18.3,18.3-18.3h80.5
	C112,2.9,120,11,120,21.2v80.5C120,131.7,95.1,156.5,65.1,156.5z"/>
<path id="svg_7" class="st2" d="M105.3,71.6v25.6c0,21.9-18.3,40.3-40.3,40.3h-7.3c-22,0-40.3-18.3-40.3-40.3V71.6H105.3z"/>
<rect id="svg_8" x="50.5" y="158.4" class="st1" width="22" height="102.4"/>
<path id="svg_9" class="st1" d="M112.7,282.8H10.2c-4.4,0-7.3-2.9-7.3-7.3v-7.3c0-4.4,2.9-7.3,7.3-7.3h102.5c4.4,0,7.3,2.9,7.3,7.3
	v7.3C120,279.9,117.1,282.8,112.7,282.8z"/>
</svg>
