<?xml version="1.0" encoding="utf-8"?>
<!-- Generator: Adobe Illustrator 23.0.0, SVG Export Plug-In . SVG Version: 6.00 Build 0)  -->
<svg version="1.1" id="Capa_1" xmlns="http://www.w3.org/2000/svg" xmlns:xlink="http://www.w3.org/1999/xlink" x="0px" y="0px"
	 viewBox="0 0 45.9 34.9" style="enable-background:new 0 0 45.9 34.9;" xml:space="preserve">
<style type="text/css">
	.st0{fill:#572020;stroke:#000000;stroke-width:2;}
</style>
<path id="iconfinder_back_126585" class="st0" d="M42.1,12H22.9V3.7c0-1.5-1.2-2.7-2.7-2.7c0,0,0,0,0,0c-1.3,0-1.9,0.8-2.7,1.5
	L2.7,14.7c-1,0.9-1.7,1.5-1.7,2.7s0.7,1.9,1.7,2.7l14.7,12.2c0.8,0.7,1.5,1.5,2.7,1.5c1.5,0,2.7-1.2,2.7-2.7c0,0,0,0,0,0v-8.2h19.2
	c1.5,0,2.7-1.2,2.7-2.7v-5.5C44.9,13.2,43.6,12,42.1,12z"/>
</svg>
