<?xml version="1.0" encoding="utf-8"?>
<!-- Generator: Adobe Illustrator 23.0.0, SVG Export Plug-In . SVG Version: 6.00 Build 0)  -->
<svg version="1.1" id="Full_Beer_Glass" xmlns="http://www.w3.org/2000/svg" xmlns:xlink="http://www.w3.org/1999/xlink" x="0px"
	 y="0px" viewBox="0 0 44.9 57.9" style="enable-background:new 0 0 44.9 57.9;" xml:space="preserve">
<style type="text/css">
	.st0{fill:#FF9F00;}
	.st1{fill:#616161;}
	.st2{fill:none;}
	.st3{fill:none;stroke:#000000;stroke-width:1.8;stroke-linecap:round;}
</style>
<g id="g2162" transform="translate(16.18 8.545)">
	<path id="path2164" class="st0" d="M-14.5-1.5C-12-3.2-8.9-4-5.8-3.7c5.5,0.3,8,3.6,13.4,3.9c3.3,0.2,6.7-0.4,9.7-1.8v48.1
		c0,0.5-0.1,0.9-0.3,1.3c-0.2,0.3-0.5,0.4-0.8,0.4H-13c-0.4-0.1-0.8-0.3-1-0.6c-0.3-0.4-0.4-0.8-0.5-1.3V-1.5z"/>
</g>
<rect x="33.5" y="10.3" class="st1" width="9.6" height="3.3"/>
<rect x="39.7" y="12.9" class="st1" width="2.8" height="27.9"/>
<rect x="33.5" y="42" class="st1" width="5.6" height="4"/>
<rect x="38" y="37.4" class="st1" width="3.1" height="6"/>
<rect x="35.7" y="40.8" class="st1" width="3.8" height="1.9"/>
<g id="g2158" transform="translate(11.764 3.694)">
	<path id="path2160" d="M21.7,51.9v-9.8c3.9-0.2,5.6-1.9,7.2-4.5c1.7-2.9,1.9-12.9,1.9-13v-17c0-0.5-0.5-1-1-0.9h-8.1v-8.1H-9.5
		v53.3H21.7 M22.2,9.2h5.7c0.3,0,0.5,0.3,0.5,0.7V24c0,0.1-0.1,9.1-1,11.4c-0.8,2.2-2.9,3.7-5.2,3.6c-0.3,0-0.5-0.3-0.5-0.7V9.9
		C21.7,9.5,21.9,9.2,22.2,9.2 M21.7,54.2H-9.5c-1.2,0-2.3-1-2.3-2.2l0,0V-1.4c0-1.3,1-2.3,2.2-2.3l0,0h31.3c1.2,0,2.3,1,2.3,2.3l0,0
		v5.7h5.8c1.8,0,3.2,1.4,3.3,3.2v17l0,0c0,0,0,2.6-0.3,5.6c-0.6,6.2-1.5,7.9-1.9,8.5c-1.4,2.3-3.2,4.6-6.9,5.4v7.8
		C24,53.1,23,54.2,21.7,54.2L21.7,54.2z M24,11.4v24.9c0.7-0.4,1.2-1,1.4-1.8c0.1-0.2,0.4-1.3,0.7-5.8c0.1-2.4,0.2-4.6,0.2-4.7V11.4
		H24L24,11.4z"/>
</g>
<rect x="33.5" y="7.8" width="2.3" height="6.4"/>
<rect x="33.5" y="40.5" width="2.3" height="7.9"/>
<rect id="rect2317-38" x="-12.7" y="-3.6" class="st2" width="64" height="64"/>
<g id="g2182" transform="translate(12.775 3.578)">
	<path id="path2184" d="M20.8,52v-9.8c3.9-0.2,5.6-1.9,7.2-4.5c1.7-2.9,1.9-12.9,1.9-13v-17c0-0.5-0.5-1-1-0.9h-8.1v-8.1h-31.3V52
		H20.8 M21.3,9.3H27c0.3,0,0.5,0.3,0.5,0.7v14.1c0,0.1-0.1,9.1-1,11.4c-0.8,2.2-2.9,3.7-5.2,3.6c-0.3,0-0.5-0.3-0.5-0.7V10
		C20.8,9.6,21,9.3,21.3,9.3 M20.8,54.3h-31.3c-1.2,0-2.3-1-2.3-2.2l0,0V-1.3c0-1.2,1-2.3,2.3-2.3l0,0h31.3c1.2,0,2.3,1,2.3,2.3l0,0
		v5.8h5.8c1.8,0,3.2,1.4,3.3,3.2v17l0,0c0,0,0,2.6-0.3,5.6c-0.6,6.2-1.5,7.9-1.9,8.5c-1.4,2.3-3.2,4.6-6.9,5.4V52
		C23,53.3,22,54.3,20.8,54.3L20.8,54.3z M23,11.5v24.9c0.7-0.4,1.2-1,1.4-1.8c0.1-0.2,0.4-1.3,0.7-5.8c0.1-2.4,0.2-4.6,0.2-4.7V11.5
		H23L23,11.5z"/>
</g>
<g id="g2186" transform="translate(20.525 12.022)">
	<path id="path2188" class="st3" d="M-12.7-3.6V21"/>
</g>
<g id="g2190" transform="translate(20.525 42.195)">
	<path id="path2192" class="st3" d="M-12.7-3.6v6.5"/>
</g>
<rect x="33.6" y="10.3" class="st1" width="9.6" height="3.3"/>
<rect x="39.8" y="12.9" class="st1" width="2.8" height="27.9"/>
<rect x="33.6" y="42" class="st1" width="5.6" height="4"/>
<rect x="38.1" y="37.4" class="st1" width="3.1" height="6"/>
<rect x="35.8" y="40.8" class="st1" width="3.8" height="1.9"/>
<g id="g2158_1_" transform="translate(11.764 3.694)">
	<path id="path2160_1_" d="M21.8,51.9v-9.8c3.9-0.2,5.6-1.9,7.2-4.5c1.7-2.9,1.9-12.9,1.9-13v-17c0-0.5-0.5-1-1-0.9h-8.1v-8.1H-9.4
		v53.3H21.8 M22.3,9.2H28c0.3,0,0.5,0.3,0.5,0.7V24c0,0.1-0.1,9.1-1,11.4c-0.8,2.2-2.9,3.7-5.2,3.6c-0.3,0-0.5-0.3-0.5-0.7V9.9
		C21.8,9.5,22,9.2,22.3,9.2 M21.8,54.2H-9.4c-1.2,0-2.3-1-2.3-2.2l0,0V-1.4c0-1.3,1-2.3,2.2-2.3l0,0h31.3c1.2,0,2.3,1,2.3,2.3l0,0
		v5.7h5.8c1.8,0,3.2,1.4,3.3,3.2v17l0,0c0,0,0,2.6-0.3,5.6c-0.6,6.2-1.5,7.9-1.9,8.5c-1.4,2.3-3.2,4.6-6.9,5.4v7.8
		C24.1,53.1,23.1,54.2,21.8,54.2L21.8,54.2z M24.1,11.4v24.9c0.7-0.4,1.2-1,1.4-1.8c0.1-0.2,0.4-1.3,0.7-5.8
		c0.1-2.4,0.2-4.6,0.2-4.7V11.4H24.1L24.1,11.4z"/>
</g>
<rect x="33.5" y="9.1" width="2.3" height="5.7"/>
<rect x="33.5" y="41.2" width="2.3" height="5.7"/>
</svg>
