<?xml version="1.0" encoding="utf-8"?>
<!-- Generator: Adobe Illustrator 23.0.0, SVG Export Plug-In . SVG Version: 6.00 Build 0)  -->
<svg version="1.1" id="Full_Beer_Glass" xmlns="http://www.w3.org/2000/svg" xmlns:xlink="http://www.w3.org/1999/xlink" x="0px"
	 y="0px" viewBox="0 0 64 64" style="enable-background:new 0 0 64 64;" xml:space="preserve">
<style type="text/css">
	.st0{fill:#FF9F00;}
	.st1{fill:#616161;}
</style>
<g id="g2162" transform="translate(16.18 8.545)">
	<path id="path2164" class="st0" d="M-2.7,2.2C-0.2,0.5,2.9-0.3,6,0c5.5,0.3,8,3.6,13.4,3.9c3.3,0.2,6.7-0.4,9.7-1.8v48.1
		c0,0.5-0.1,0.9-0.3,1.3c-0.2,0.3-0.5,0.4-0.8,0.4H-1.2c-0.4-0.1-0.8-0.3-1-0.6c-0.3-0.4-0.4-0.8-0.5-1.3V2.2z"/>
</g>
<rect x="45.3" y="14" class="st1" width="9.6" height="3.3"/>
<rect x="51.5" y="16.6" class="st1" width="2.8" height="27.9"/>
<rect x="45.3" y="45.7" class="st1" width="5.6" height="4"/>
<rect x="49.8" y="41.1" class="st1" width="3.1" height="6"/>
<rect x="47.5" y="44.5" class="st1" width="3.8" height="1.9"/>
<g id="g2158" transform="translate(11.764 3.694)">
	<path id="path2160" d="M33.5,55.6v-9.8c3.9-0.2,5.6-1.9,7.2-4.5c1.7-2.9,1.9-12.9,1.9-13v-17c0-0.5-0.5-1-1-0.9h-8.1V2.3H2.3v53.3
		H33.5 M34,12.9h5.7c0.3,0,0.5,0.3,0.5,0.7v14.1c0,0.1-0.1,9.1-1,11.4c-0.8,2.2-2.9,3.7-5.2,3.6c-0.3,0-0.5-0.3-0.5-0.7V13.6
		C33.5,13.2,33.7,12.9,34,12.9 M33.5,57.9H2.3c-1.2,0-2.3-1-2.3-2.2c0,0,0,0,0,0V2.3C0,1,1,0,2.2,0c0,0,0,0,0,0h31.3
		c1.2,0,2.3,1,2.3,2.3c0,0,0,0,0,0V8h5.8c1.8,0,3.2,1.4,3.3,3.2v17c0,0,0,0,0,0c0,0,0,2.6-0.3,5.6c-0.6,6.2-1.5,7.9-1.9,8.5
		c-1.4,2.3-3.2,4.6-6.9,5.4v7.8C35.8,56.8,34.8,57.9,33.5,57.9L33.5,57.9z M35.8,15.1V40c0.7-0.4,1.2-1,1.4-1.8
		c0.1-0.2,0.4-1.3,0.7-5.8c0.1-2.4,0.2-4.6,0.2-4.7V15.1L35.8,15.1L35.8,15.1z"/>
</g>
<rect x="45.3" y="11.5" width="2.3" height="6.4"/>
<rect x="45.3" y="44.2" width="2.3" height="7.9"/>
</svg>
