<?xml version="1.0" encoding="utf-8"?>
<!-- Generator: Adobe Illustrator 23.0.0, SVG Export Plug-In . SVG Version: 6.00 Build 0)  -->
<svg version="1.1" id="Capa_1" xmlns="http://www.w3.org/2000/svg" xmlns:xlink="http://www.w3.org/1999/xlink" x="0px" y="0px"
	 viewBox="0 0 291 457" style="enable-background:new 0 0 291 457;" xml:space="preserve">
<style type="text/css">
	.st0{fill:#6B2E2E;}
	.st1{fill:none;stroke:#000000;stroke-width:3;stroke-linecap:round;}
	.st2{fill:#411818;stroke:#000000;stroke-width:2;}
</style>
<g id="Rectangle_25">
	<path class="st0" d="M33,0h225c18.2,0,33,14.8,33,33v391c0,18.2-14.8,33-33,33H33c-18.2,0-33-14.8-33-33V33C0,14.8,14.8,0,33,0z"/>
	<path class="st1" d="M33,1.5h225c17.4,0,31.5,14.1,31.5,31.5v391c0,17.4-14.1,31.5-31.5,31.5H33c-17.4,0-31.5-14.1-31.5-31.5V33
		C1.5,15.6,15.6,1.5,33,1.5z"/>
</g>
<path id="times-solid" class="st2" d="M265.2,29.5l7.1-7.1c0.9-0.9,0.9-2.3,0-3.2l-1.6-1.6c-0.9-0.9-2.3-0.9-3.2,0l-7.1,7.1
	l-7.1-7.1c-0.9-0.9-2.3-0.9-3.2,0l-1.6,1.6c-0.9,0.9-0.9,2.3,0,3.2l7.1,7.1l-7.1,7.1c-0.9,0.9-0.9,2.3,0,3.2l1.6,1.6
	c0.9,0.9,2.3,0.9,3.2,0l7.1-7.1l7.1,7.1c0.9,0.9,2.3,0.9,3.2,0l1.6-1.6c0.9-0.9,0.9-2.3,0-3.2L265.2,29.5z"/>
</svg>
