<?xml version="1.0" encoding="utf-8"?>
<!-- Generator: Adobe Illustrator 23.0.0, SVG Export Plug-In . SVG Version: 6.00 Build 0)  -->
<svg version="1.1" id="Capa_1" xmlns="http://www.w3.org/2000/svg" xmlns:xlink="http://www.w3.org/1999/xlink" x="0px" y="0px"
	 viewBox="0 0 129 83" style="enable-background:new 0 0 129 83;" xml:space="preserve">
<style type="text/css">
	.st0{fill:#0A93AF;stroke:#000000;stroke-width:3;stroke-miterlimit:10;}
	.st1{fill:#0AA7AF;stroke:#000000;stroke-width:3;stroke-miterlimit:10;}
	.st2{fill:#7AD0CB;stroke:#000000;stroke-width:3;stroke-miterlimit:10;}
	.st3{fill:#C3EDF5;stroke:#000000;stroke-width:3;stroke-miterlimit:10;}
	.st4{fill:#4DBAB4;stroke:#000000;stroke-width:3;stroke-miterlimit:10;}
	.st5{fill:#87DBEC;stroke:#000000;stroke-width:3;stroke-miterlimit:10;}
	.st6{fill:#4D91BB;stroke:#000000;stroke-width:3;stroke-miterlimit:10;}
</style>
<title></title>
<g id="_38_Target_Audience">
	<path class="st0" d="M120.7,16.7c0,6.2-5,11.2-11.2,11.2s-11.2-5-11.2-11.2s5-11.2,11.2-11.2S120.7,10.5,120.7,16.7L120.7,16.7z
		 M127.5,49.1c0-9.9-8.1-18-18-18l0,0c-9.9,0-18,8.1-18,18v20.4h36V49.1z"/>
	<path class="st1" d="M30.7,16.7c0,6.2-5,11.2-11.2,11.2s-11.2-5-11.2-11.2s5-11.2,11.2-11.2S30.7,10.5,30.7,16.7L30.7,16.7z
		 M37.5,49.1c0-9.9-8.1-18-18-18l0,0c-9.9,0-18,8.1-18,18v20.4h36V49.1z"/>
	<path class="st2" d="M102.7,16.7c0,6.2-5,11.2-11.2,11.2s-11.2-5-11.2-11.2s5-11.2,11.2-11.2l0,0C97.7,5.5,102.7,10.5,102.7,16.7z
		 M109.5,49.1c0-9.9-8.1-18-18-18l0,0c-9.9,0-18,8.1-18,18v20.4h36V49.1z"/>
	<path class="st3" d="M48.7,16.7c0,6.2-5,11.2-11.2,11.2s-11.2-5-11.2-11.2s5-11.2,11.2-11.2S48.7,10.5,48.7,16.7L48.7,16.7z
		 M55.5,49.1c0-9.9-8.1-18-18-18l0,0c-9.9,0-18,8.1-18,18v20.4h36V49.1z"/>
	<path class="st4" d="M88.9,54.1c0-7.3-3.5-14.1-9.5-18.3c-3.8,3.4-5.9,8.2-5.9,13.3v20.4h15.4V54.1z"/>
	<path class="st5" d="M40.1,54.1c0-7.3,3.5-14.1,9.5-18.3c3.8,3.4,5.9,8.2,5.9,13.3v20.4H40.1V54.1z"/>
	<path class="st6" d="M78.5,15.5c0,7.7-6.3,14-14,14s-14-6.3-14-14s6.3-14,14-14S78.5,7.8,78.5,15.5z M87,56
		c0-12.4-10.1-22.5-22.5-22.5l0,0C52.1,33.5,42,43.6,42,56v25.5h45V56z"/>
</g>
</svg>
