<?xml version="1.0" encoding="utf-8"?>
<!-- Generator: Adobe Illustrator 23.0.0, SVG Export Plug-In . SVG Version: 6.00 Build 0)  -->
<svg version="1.1" id="Capa_1" xmlns="http://www.w3.org/2000/svg" xmlns:xlink="http://www.w3.org/1999/xlink" x="0px" y="0px"
	 viewBox="0 0 93 83" style="enable-background:new 0 0 93 83;" xml:space="preserve">
<style type="text/css">
	.st0{fill:#7AD0CB;stroke:#000000;stroke-width:3;stroke-miterlimit:10;}
	.st1{fill:#C3EDF5;stroke:#000000;stroke-width:3;stroke-miterlimit:10;}
	.st2{fill:#4DBAB4;stroke:#000000;stroke-width:3;stroke-miterlimit:10;}
	.st3{fill:#87DBEC;stroke:#000000;stroke-width:3;stroke-miterlimit:10;}
	.st4{fill:#4D91BB;stroke:#000000;stroke-width:3;stroke-miterlimit:10;}
</style>
<title></title>
<g id="_38_Target_Audience">
	<path class="st0" d="M84.7,16.7c0,6.2-5,11.2-11.2,11.2c-6.2,0-11.2-5-11.2-11.2s5-11.2,11.2-11.2l0,0
		C79.7,5.5,84.7,10.5,84.7,16.7z M91.5,49.1c0-9.9-8.1-18-18-18l0,0c-9.9,0-18,8.1-18,18v20.4h36V49.1z"/>
	<path class="st1" d="M30.7,16.7c0,6.2-5,11.2-11.2,11.2c-6.2,0-11.2-5-11.2-11.2c0-6.2,5-11.2,11.2-11.2S30.7,10.5,30.7,16.7
		L30.7,16.7z M37.5,49.1c0-9.9-8.1-18-18-18l0,0c-9.9,0-18,8.1-18,18v20.4h36V49.1z"/>
	<path class="st2" d="M70.9,54.1c0-7.3-3.5-14.1-9.5-18.3c-3.8,3.4-5.9,8.2-5.9,13.3v20.4h15.4V54.1z"/>
	<path class="st3" d="M22.1,54.1c0-7.3,3.5-14.1,9.5-18.3c3.8,3.4,5.9,8.2,5.9,13.3v20.4H22.1V54.1z"/>
	<path class="st4" d="M60.5,15.5c0,7.7-6.3,14-14,14s-14-6.3-14-14s6.3-14,14-14S60.5,7.8,60.5,15.5z M69,56
		c0-12.4-10.1-22.5-22.5-22.5l0,0C34.1,33.5,24,43.6,24,56v25.5h45V56z"/>
</g>
</svg>
