<?xml version="1.0" encoding="utf-8"?>
<!-- Generator: Adobe Illustrator 23.0.0, SVG Export Plug-In . SVG Version: 6.00 Build 0)  -->
<svg version="1.1" id="Capa_1" xmlns="http://www.w3.org/2000/svg" xmlns:xlink="http://www.w3.org/1999/xlink" x="0px" y="0px"
	 viewBox="0 0 128 128" style="enable-background:new 0 0 128 128;" xml:space="preserve">
<style type="text/css">
	.st0{fill:#0A93AF;stroke:#000000;stroke-width:3;stroke-miterlimit:10;}
	.st1{fill:#0AA7AF;stroke:#000000;stroke-width:3;stroke-miterlimit:10;}
	.st2{fill:#7AD0CB;stroke:#000000;stroke-width:3;stroke-miterlimit:10;}
	.st3{fill:#C3EDF5;stroke:#000000;stroke-width:3;stroke-miterlimit:10;}
	.st4{fill:#4DBAB4;stroke:#000000;stroke-width:3;stroke-miterlimit:10;}
	.st5{fill:#87DBEC;stroke:#000000;stroke-width:3;stroke-miterlimit:10;}
	.st6{fill:#4D91BB;stroke:#000000;stroke-width:3;stroke-miterlimit:10;}
</style>
<title></title>
<g id="_38_Target_Audience">
	<path class="st0" d="M120.2,39.2c0,6.2-5,11.2-11.2,11.2s-11.2-5-11.2-11.2S102.8,28,109,28S120.2,33,120.2,39.2L120.2,39.2z
		 M127,71.6c0-9.9-8.1-18-18-18l0,0c-9.9,0-18,8.1-18,18V92h36V71.6z"/>
	<path class="st1" d="M30.2,39.2c0,6.2-5,11.2-11.2,11.2s-11.2-5-11.2-11.2S12.8,28,19,28S30.2,33,30.2,39.2L30.2,39.2z M37,71.6
		c0-9.9-8.1-18-18-18l0,0c-9.9,0-18,8.1-18,18V92h36V71.6z"/>
	<path class="st2" d="M102.2,39.2c0,6.2-5,11.2-11.2,11.2s-11.2-5-11.2-11.2S84.8,28,91,28l0,0C97.2,28,102.2,33,102.2,39.2z
		 M109,71.6c0-9.9-8.1-18-18-18l0,0c-9.9,0-18,8.1-18,18V92h36V71.6z"/>
	<path class="st3" d="M48.2,39.2c0,6.2-5,11.2-11.2,11.2s-11.2-5-11.2-11.2S30.8,28,37,28S48.2,33,48.2,39.2L48.2,39.2z M55,71.6
		c0-9.9-8.1-18-18-18l0,0c-9.9,0-18,8.1-18,18V92h36V71.6z"/>
	<path class="st4" d="M88.4,76.6c0-7.3-3.5-14.1-9.5-18.3c-3.8,3.4-5.9,8.2-5.9,13.3V92h15.4V76.6z"/>
	<path class="st5" d="M39.6,76.6c0-7.3,3.5-14.1,9.5-18.3c3.8,3.4,5.9,8.2,5.9,13.3V92H39.6V76.6z"/>
	<path class="st6" d="M78,38c0,7.7-6.3,14-14,14s-14-6.3-14-14s6.3-14,14-14S78,30.3,78,38z M86.5,78.5C86.5,66.1,76.4,56,64,56l0,0
		c-12.4,0-22.5,10.1-22.5,22.5V104h45V78.5z"/>
</g>
</svg>
