<?xml version="1.0" encoding="utf-8"?>
<!-- Generator: Adobe Illustrator 23.0.0, SVG Export Plug-In . SVG Version: 6.00 Build 0)  -->
<svg version="1.1" id="Icons" xmlns="http://www.w3.org/2000/svg" xmlns:xlink="http://www.w3.org/1999/xlink" x="0px" y="0px"
	 viewBox="0 0 48 48" style="enable-background:new 0 0 48 48;" xml:space="preserve">
<style type="text/css">
	.st0{fill:#A86C4D;stroke:#000000;stroke-linecap:round;stroke-linejoin:round;}
	.st1{fill:#FFCEBF;stroke:#000000;stroke-linecap:round;stroke-linejoin:round;}
	.st2{stroke:#000000;stroke-linecap:round;stroke-linejoin:round;}
	.st3{fill:#FF6242;stroke:#000000;stroke-miterlimit:10;}
	.st4{fill:#FFA694;}
	.st5{fill:none;stroke:#000000;stroke-linecap:round;stroke-linejoin:round;}
	.st6{fill:#FFB59E;}
	.st7{opacity:0.15;fill:#45413C;enable-background:new    ;}
	.st8{fill:#00B8F0;}
	.st9{fill:#4ACFFF;}
	.st10{fill:#009FD9;stroke:#000000;stroke-linecap:round;stroke-linejoin:round;}
	.st11{fill:#525252;}
	.st12{fill:#656769;}
	.st13{fill:#FFE500;stroke:#000000;stroke-linecap:round;stroke-linejoin:round;}
</style>
<title></title>
<path id="_Path_" class="st0" d="M24,3.6c-8.9,0-16.2,7.2-16.2,16.2v17c0.1,1.2-0.7,2.3-2,2.4c-0.2,0-0.4,0-0.6,0
	c-0.3,0-0.5,0.2-0.5,0.5c0,0.1,0,0.2,0.1,0.3c0.7,1.1,2.3,3,6.2,3c3.2,0.1,6.2-1.4,8.1-3.9h9.7c1.9,2.5,5,3.9,8.1,3.9
	c3.8,0,5.5-1.8,6.2-3c0.1-0.2,0.1-0.5-0.2-0.7c-0.1-0.1-0.2-0.1-0.3-0.1c-1.2,0.2-2.3-0.6-2.6-1.8c0-0.2,0-0.4,0-0.6v-17
	C40.2,10.8,32.9,3.6,24,3.6z"/>
<g id="_Group_">
	<path id="_Path_2" class="st1" d="M37.5,23.2c-3.8-1.1-6.9-3.8-8.5-7.5l-0.9-2.2c-3.6,4.8-8.9,8.1-14.8,9.2l-2.8,0.5
		C9,23.3,7.9,24.5,8,26c0.1,1.4,1.2,2.4,2.5,2.5h0.2c1.1,7.3,8,12.4,15.3,11.3c5.8-0.9,10.4-5.5,11.3-11.3h0.2
		c1.5-0.1,2.6-1.4,2.5-2.9C39.9,24.3,38.8,23.2,37.5,23.2L37.5,23.2z"/>
</g>
<g id="_Group_2">
	<path id="_Path_3" class="st2" d="M15.9,25.3c0,0.6,0.5,1.1,1.2,1.1c0.6,0,1.1-0.5,1.1-1.2c0-0.6-0.5-1.1-1.2-1.1c0,0,0,0,0,0
		C16.4,24.2,15.9,24.7,15.9,25.3z"/>
	<path id="_Path_4" class="st2" d="M32.1,25.3c0,0.6-0.5,1.1-1.2,1.1c-0.6,0-1.1-0.5-1.1-1.2c0-0.6,0.5-1.1,1.2-1.1c0,0,0,0,0,0
		C31.6,24.2,32.1,24.7,32.1,25.3z"/>
	<g id="_Group_3">
		<g id="_Group_4">
			<path id="_Path_5" class="st3" d="M20.3,32.6c-0.2,0-0.3,0.1-0.4,0.2c-0.1,0.1-0.2,0.3-0.1,0.5c0.4,2.4,2.6,3.9,5,3.5
				c1.8-0.3,3.2-1.7,3.5-3.5c0-0.2,0-0.3-0.1-0.5c-0.1-0.1-0.3-0.2-0.4-0.2H20.3z"/>
			<path id="_Path_6" class="st4" d="M24,34.4c-1.2,0-2.3,0.3-3.3,1c1.6,1.8,4.4,2,6.2,0.4c0.1-0.1,0.3-0.3,0.4-0.4
				C26.3,34.7,25.2,34.3,24,34.4z"/>
		</g>
	</g>
	<g id="_Group_5">
		<path id="_Path_7" class="st5" d="M20.3,32.6c-0.2,0-0.3,0.1-0.4,0.2c-0.1,0.1-0.2,0.3-0.1,0.5c0.4,2.4,2.6,3.9,5,3.5
			c1.8-0.3,3.2-1.7,3.5-3.5c0-0.2,0-0.3-0.1-0.5c-0.1-0.1-0.3-0.2-0.4-0.2H20.3z"/>
	</g>
	<ellipse id="_Ellipse_" class="st6" cx="15.2" cy="30.2" rx="1.5" ry="0.9"/>
	<ellipse id="_Ellipse_2" class="st6" cx="32.8" cy="30.2" rx="1.5" ry="0.9"/>
</g>
<ellipse id="_Ellipse_3" class="st7" cx="24" cy="44.5" rx="12.5" ry="1.5"/>
<path id="_Path_8" class="st8" d="M40.2,18.2c0,0-10.2,3-16.2,3s-16.2-3-16.2-3l-1.6-3.5c-0.7-1.4-0.3-3.1,1-4.1
	C10.6,8.1,17.5,3.5,24,3.5s13.5,4.6,16.9,7.2c1.3,0.9,1.7,2.6,1,4.1L40.2,18.2z"/>
<path id="_Path_9" class="st9" d="M6.2,14.9c0.2-0.4,0.5-0.8,0.9-1.1c3.4-2.6,10.4-7.2,16.9-7.2s13.5,4.6,16.9,7.2
	c0.4,0.3,0.7,0.7,0.9,1.1l0.1-0.2c0.7-1.4,0.3-3.1-1-4.1C37.5,8.1,30.5,3.5,24,3.5S10.6,8.1,7.1,10.7c-1.3,0.9-1.7,2.6-1,4.1
	L6.2,14.9z"/>
<path id="_Path_10" class="st5" d="M40.2,18.2c0,0-10.2,3-16.2,3s-16.2-3-16.2-3l-1.6-3.5c-0.7-1.4-0.3-3.1,1-4.1
	C10.6,8.1,17.5,3.5,24,3.5s13.5,4.6,16.9,7.2c1.3,0.9,1.7,2.6,1,4.1L40.2,18.2z"/>
<path class="st10" d="M24,13.3c-7.1,0-13.3,1.9-16.2,5c0,0,10.2,3,16.2,3s16.2-3,16.2-3C37.3,15.2,31.1,13.3,24,13.3z"/>
<path id="_Path_11" class="st11" d="M37,19.1c0,0-4.3-1.9-13-1.9s-13,1.9-13,1.9s1.7,3.8,13,3.8S37,19.1,37,19.1z"/>
<path class="st12" d="M11,19.1c0.5,0.8,1.2,1.4,2,1.8c3.6-0.9,7.3-1.3,11-1.3c3.7-0.1,7.4,0.4,11,1.3c0.8-0.4,1.5-1,2-1.8
	c0,0-4.3-1.9-13-1.9S11,19.1,11,19.1z"/>
<path id="_Path_12" class="st5" d="M37,19.1c0,0-4.3-1.9-13-1.9s-13,1.9-13,1.9s1.7,3.8,13,3.8S37,19.1,37,19.1z"/>
<path id="_Path_13" class="st13" d="M24.4,7.7L24,7.5l-0.4,0.2c-0.8,0.4-1.7,0.4-2.5,0l-0.5-0.3v3.8c0.1,1.9,1.5,3.5,3.5,3.8
	c1.9-0.3,3.3-1.9,3.5-3.8V7.5L27,7.8C26.2,8.2,25.2,8.2,24.4,7.7z"/>
</svg>
