<?xml version="1.0" encoding="utf-8"?>
<!-- Generator: Adobe Illustrator 23.0.0, SVG Export Plug-In . SVG Version: 6.00 Build 0)  -->
<svg version="1.1" id="Capa_1" xmlns="http://www.w3.org/2000/svg" xmlns:xlink="http://www.w3.org/1999/xlink" x="0px" y="0px"
	 viewBox="0 0 100 76" style="enable-background:new 0 0 100 76;" xml:space="preserve">
<style type="text/css">
	.st0{fill:#411818;stroke:#000000;stroke-width:4;stroke-miterlimit:10;}
</style>
<title></title>
<g>
	<path class="st0" d="M26.8,15.4c-2.5-2.1-6.3-1.8-8.4,0.8l-15,18c-1.9,2.2-1.9,5.5,0,7.7l15,18c2.1,2.6,5.9,2.9,8.4,0.8
		c2.6-2.1,2.9-5.9,0.8-8.4c0,0,0,0,0-0.1L15.8,38l11.8-14.2C29.7,21.3,29.4,17.5,26.8,15.4z"/>
	<path class="st0" d="M57.2,2.1c-3.2-0.6-6.4,1.5-7.1,4.7l-12,60c-0.7,3.2,1.4,6.4,4.7,7c0,0,0,0,0,0c0.4,0.1,0.8,0.1,1.2,0.1
		c2.9,0,5.3-2,5.9-4.8l12-60C62.5,5.9,60.4,2.8,57.2,2.1C57.2,2.1,57.2,2.1,57.2,2.1z"/>
	<path class="st0" d="M96.6,34.1l-15-18c-2.1-2.6-5.9-2.9-8.4-0.8c-2.6,2.1-2.9,5.9-0.8,8.4c0,0,0,0,0,0.1L84.2,38L72.4,52.1
		c-2.1,2.5-1.8,6.3,0.7,8.5s6.3,1.8,8.5-0.7c0,0,0,0,0-0.1l15-18C98.5,39.6,98.5,36.4,96.6,34.1z"/>
</g>
</svg>
