<?xml version="1.0" encoding="utf-8"?>
<!-- Generator: Adobe Illustrator 23.0.0, SVG Export Plug-In . SVG Version: 6.00 Build 0)  -->
<svg version="1.1" id="Capa_1" xmlns="http://www.w3.org/2000/svg" xmlns:xlink="http://www.w3.org/1999/xlink" x="0px" y="0px"
	 viewBox="0 0 31 32.3" style="enable-background:new 0 0 31 32.3;" xml:space="preserve">
<style type="text/css">
	.st0{fill:#572020;stroke:#000000;stroke-width:2;}
</style>
<path id="cog-solid" class="st0" d="M29.6,19.8L27,18.3c0.3-1.4,0.3-2.9,0-4.3l2.6-1.5c0.3-0.2,0.4-0.5,0.3-0.9
	c-0.7-2.1-1.8-4.1-3.3-5.8c-0.2-0.2-0.6-0.3-0.9-0.1l-2.6,1.5c-1.1-0.9-2.4-1.7-3.7-2.1v-3c0-0.3-0.2-0.6-0.6-0.7
	c-2.2-0.5-4.5-0.5-6.7,0c-0.3,0.1-0.6,0.4-0.6,0.7v3C10.2,5.6,9,6.3,7.9,7.2L5.3,5.7C5,5.6,4.6,5.6,4.4,5.9C2.8,7.5,1.7,9.5,1,11.6
	c-0.1,0.3,0,0.7,0.3,0.9L4,14c-0.3,1.4-0.3,2.9,0,4.3l-2.6,1.5c-0.3,0.2-0.4,0.5-0.3,0.9c0.7,2.1,1.8,4.1,3.3,5.8
	c0.2,0.2,0.6,0.3,0.9,0.1L7.9,25c1.1,0.9,2.4,1.7,3.7,2.1v3c0,0.3,0.2,0.6,0.6,0.7c2.2,0.5,4.5,0.5,6.7,0c0.3-0.1,0.6-0.4,0.6-0.7
	v-3c1.4-0.5,2.6-1.2,3.7-2.1l2.6,1.5c0.3,0.2,0.7,0.1,0.9-0.1c1.5-1.7,2.7-3.6,3.3-5.8C30,20.3,29.9,19.9,29.6,19.8z M15.5,21
	c-2.7,0-4.9-2.2-4.9-4.9c0-2.7,2.2-4.9,4.9-4.9c2.7,0,4.9,2.2,4.9,4.9C20.4,18.8,18.2,21,15.5,21z"/>
</svg>
