<?xml version="1.0" encoding="utf-8"?>
<!-- Generator: Adobe Illustrator 23.0.0, SVG Export Plug-In . SVG Version: 6.00 Build 0)  -->
<svg version="1.1" id="Livello_1" xmlns="http://www.w3.org/2000/svg" xmlns:xlink="http://www.w3.org/1999/xlink" x="0px" y="0px"
	 viewBox="0 0 140.3 119.9" style="enable-background:new 0 0 140.3 119.9;" xml:space="preserve">
<g id="Livello_55">
	<path d="M76.4,119.8V0C52.4,1.3,32,16.6,23.6,37.8H5.4c-3,0-5.4,2.4-5.4,5.4v32.4h0c0,0,0,0.1,0,0.1c0,3,2.4,5.4,5.4,5.4h17.8
		C31.5,102.7,52,118.4,76.4,119.8 M101.8,81.9v-38c0,0,0,0,0-0.1c0-3.5-2.9-6.4-6.4-6.4S89,40.3,89,43.8c0,0,0,0,0,0.1v38
		c0,0,0,0,0,0.1c0,3.5,2.9,6.4,6.4,6.4C98.9,88.3,101.8,85.4,101.8,81.9C101.8,81.9,101.8,81.9,101.8,81.9 M120.9,100.7v-76
		c0,0,0-0.1,0-0.1s0-0.1,0-0.1v-0.2h0c-0.2-3.4-2.9-6.1-6.4-6.1c-3.4,0-6.2,2.7-6.3,6.1h0v76.5c0,3.5,2.9,6.4,6.4,6.4
		c3.5,0,6.4-2.8,6.4-6.4C120.9,100.8,120.9,100.7,120.9,100.7 M140.3,113.5V11.8c0-3.5-2.9-6.4-6.4-6.4s-6.4,2.8-6.4,6.4
		c0,0,0,0.1,0,0.1v101.5c0,0,0,0.1,0,0.1c0,3.5,2.9,6.4,6.4,6.4C137.5,119.9,140.3,117.1,140.3,113.5"/>
</g>
<g id="Livello_1_1_">
</g>
</svg>
