<?xml version="1.0" encoding="utf-8"?>
<!-- Generator: Adobe Illustrator 23.0.0, SVG Export Plug-In . SVG Version: 6.00 Build 0)  -->
<svg version="1.1" id="Livello_1" xmlns="http://www.w3.org/2000/svg" xmlns:xlink="http://www.w3.org/1999/xlink" x="0px" y="0px"
	 viewBox="0 0 140.3 119.9" style="enable-background:new 0 0 140.3 119.9;" xml:space="preserve">
<style type="text/css">
	.st0{fill:#B70000;stroke:#000000;stroke-width:5;stroke-miterlimit:10;}
</style>
<g id="Livello_55">
	<path d="M76.4,119.8V0C52.4,1.3,32,16.6,23.6,37.8H5.4c-3,0-5.4,2.4-5.4,5.4v32.4l0,0v0.1c0,3,2.4,5.4,5.4,5.4h17.8
		C31.5,102.7,52,118.4,76.4,119.8 M101.8,81.9v-38c0,0,0,0,0-0.1c0-3.5-2.9-6.4-6.4-6.4S89,40.3,89,43.8c0,0,0,0,0,0.1v38
		c0,0,0,0,0,0.1c0,3.5,2.9,6.4,6.4,6.4C98.9,88.3,101.8,85.4,101.8,81.9L101.8,81.9 M120.9,100.7v-76v-0.1v-0.1v-0.2l0,0
		c-0.2-3.4-2.9-6.1-6.4-6.1c-3.4,0-6.2,2.7-6.3,6.1l0,0v76.5c0,3.5,2.9,6.4,6.4,6.4S121,104.4,120.9,100.7
		C120.9,100.8,120.9,100.7,120.9,100.7 M140.3,113.5V11.8c0-3.5-2.9-6.4-6.4-6.4s-6.4,2.8-6.4,6.4v0.1v101.5v0.1
		c0,3.5,2.9,6.4,6.4,6.4C137.5,119.9,140.3,117.1,140.3,113.5"/>
</g>
<g id="Livello_1_1_">
</g>
<path class="st0" d="M128.6,111.3L128.6,111.3c-2.8,3.3-7.7,3.7-11,0.9L9.2,20.5c-3.3-2.8-3.7-7.7-0.9-11l0,0
	c2.8-3.3,7.7-3.7,11-0.9l108.4,91.7C131,103.2,131.4,108.1,128.6,111.3z"/>
</svg>
