<?xml version="1.0" encoding="utf-8"?>
<!-- Generator: Adobe Illustrator 23.0.0, SVG Export Plug-In . SVG Version: 6.00 Build 0)  -->
<svg version="1.1" id="Empty_Glass" xmlns="http://www.w3.org/2000/svg" xmlns:xlink="http://www.w3.org/1999/xlink" x="0px"
	 y="0px" viewBox="0 0 43.3 57.4" style="enable-background:new 0 0 43.3 57.4;" xml:space="preserve">
<style type="text/css">
	.st0{fill:none;stroke:#000000;stroke-width:1.8;stroke-linecap:round;}
</style>
<g id="g2096" transform="translate(10.395 3.75)">
	<path id="path2098" d="M-8.1-1.5l4.6,52.7h29.3l4.8-52.7H-8.1 M-8.1-3.8h38.7c1.2,0,2.3,1,2.3,2.3c0,0.1,0,0.1,0,0.2l-4.7,52.8
		c-0.1,1.2-1.1,2.1-2.2,2.1H-3.5c-1.2,0-2.1-0.9-2.3-2.1l-4.6-52.8c-0.1-1.2,0.8-2.3,2-2.4C-8.3-3.8-8.2-3.8-8.1-3.8z"/>
</g>
<g id="g2100" transform="translate(18.836 13.147)">
	<path id="path2102" class="st0" d="M-10.4-3.7l2,25"/>
</g>
<g id="g2104" transform="translate(21.356 44.372)">
	<path id="path2106" class="st0" d="M-10.4-3.8l0.5,6.1"/>
</g>
</svg>
