<?xml version="1.0" encoding="utf-8"?>
<!-- Generator: Adobe Illustrator 23.0.0, SVG Export Plug-In . SVG Version: 6.00 Build 0)  -->
<svg version="1.1" id="Full_Glass" xmlns="http://www.w3.org/2000/svg" xmlns:xlink="http://www.w3.org/1999/xlink" x="0px" y="0px"
	 viewBox="0 0 34.6 45.9" style="enable-background:new 0 0 34.6 45.9;" xml:space="preserve">
<style type="text/css">
	.st0{fill:none;}
	.st1{fill:#FF9F00;}
	.st2{fill:none;stroke:#000000;stroke-width:1.8;stroke-linecap:round;}
</style>
<path class="st0" d="M1.2-3c-1.6,2.7-3.7,5-5.4,7.7c-1,1.6-2.4,2.3-3.9,2.3v41.2h51.3V-3H1.2z"/>
<g id="g2076" transform="translate(15.305 9.513)">
	<path id="path2078" class="st1" d="M-14.2-3.8c3-1.4,6.4-1.8,9.7-1.1c5.8,1,8,2,13.3,2.6c3,0.4,6-0.1,8.7-1.4l-3.8,39.8h-24.2
		L-14.2-3.8z"/>
</g>
<g id="g2072" transform="translate(10.236 3.663)">
	<path id="path2074" d="M-8.4-1.9l3.8,42.2h23.5l3.8-42.2L-8.4-1.9 M-8.4-3.7h31c1,0,1.8,0.8,1.8,1.8c0,0.1,0,0.1,0,0.2l-3.8,42.3
		c-0.1,0.9-0.9,1.6-1.8,1.6H-4.6c-0.9,0-1.7-0.7-1.8-1.6l-3.8-42.3C-10.2-2.7-9.5-3.6-8.4-3.7L-8.4-3.7z"/>
</g>
<g id="g2100" transform="translate(18.836 13.147)">
	<path id="path2102" class="st2" d="M-12.6-5.6l1.6,20"/>
</g>
<g id="g2104" transform="translate(21.356 44.372)">
	<path id="path2106" class="st2" d="M-13.1-11.9l0.4,4.9"/>
</g>
</svg>
