<?xml version="1.0" encoding="utf-8"?>
<!-- Generator: Adobe Illustrator 23.0.0, SVG Export Plug-In . SVG Version: 6.00 Build 0)  -->
<svg version="1.1" id="Full_Glass" xmlns="http://www.w3.org/2000/svg" xmlns:xlink="http://www.w3.org/1999/xlink" x="0px" y="0px"
	 viewBox="0 0 64 64" style="enable-background:new 0 0 64 64;" xml:space="preserve">
<style type="text/css">
	.st0{fill:none;}
	.st1{fill:#FF9F00;}
</style>
<rect id="rect2317" x="6.4" y="12.7" class="st0" width="51.3" height="51.3"/>
<g id="g2076" transform="translate(15.305 9.513)">
	<path id="path2078" class="st1" d="M0.3,11.9c3-1.4,6.4-1.8,9.7-1.1c5.8,1,8,2,13.3,2.6c3,0.4,6-0.1,8.7-1.4l-3.8,39.8H4L0.3,11.9z
		"/>
</g>
<g id="g2072" transform="translate(10.236 3.663)">
	<path id="path2074" d="M6.1,13.8l3.8,42.2h23.5l3.8-42.2H6.1 M6.1,12h31c1,0,1.8,0.8,1.8,1.8c0,0.1,0,0.1,0,0.2l-3.8,42.3
		c-0.1,0.9-0.9,1.6-1.8,1.6H9.9c-0.9,0-1.7-0.7-1.8-1.6L4.3,14C4.3,13,5,12.1,6,12C6,12,6.1,12,6.1,12z"/>
</g>
</svg>
