<?xml version="1.0" encoding="utf-8"?>
<!-- Generator: Adobe Illustrator 23.0.0, SVG Export Plug-In . SVG Version: 6.00 Build 0)  -->
<svg version="1.1" id="Capa_1" xmlns="http://www.w3.org/2000/svg" xmlns:xlink="http://www.w3.org/1999/xlink" x="0px" y="0px"
	 viewBox="0 0 210 200" style="enable-background:new 0 0 210 200;" xml:space="preserve">
<style type="text/css">
	.st0{fill:#FABC3D;}
	.st1{fill:#F0F1F1;}
	.st2{fill:#FFFFFF;}
	.st3{fill:#DF2C2C;}
	.st4{fill:#F37A10;}
	.st5{fill:#059BBF;}
	.st6{fill:#FA5655;}
	.st7{fill:#12B2A0;}
	.st8{fill:#E2E4E5;}
</style>
<rect class="st0" width="210" height="200"/>
<g id="Multicolor">
	<circle class="st0" cx="105.2" cy="100.4" r="99.6"/>
	<g>
		<g>
			<g>
				<path class="st1" d="M47.5,151.2c0.4-0.8,23.2-51.8,28.1-62.8c-1.3,6.6,6.4,18.6,14.7,26.9c10.1,10.1,21.5,16.1,27.4,14.6
					c-10.2,4.6-62.5,27.9-63.3,28.3c-1.4,0.7-3.6,0-5.2-1.7C47.5,154.8,46.8,152.6,47.5,151.2z"/>
			</g>
		</g>
		<g>
			<path class="st2" d="M47.5,151.2c0.4-0.8,23.2-51.8,28.1-62.8c-1.3,6.6,6.4,18.6,14.7,26.9l-41.1,41.1
				C47.5,154.8,46.8,152.6,47.5,151.2z"/>
		</g>
		<g>
			<g>
				<circle class="st3" cx="88.9" cy="67.8" r="3.6"/>
			</g>
		</g>
		<g>
			<g>
				<circle class="st4" cx="117.9" cy="75" r="3.6"/>
			</g>
		</g>
		<g>
			<g>
				<circle class="st5" cx="152.3" cy="89.5" r="3.6"/>
			</g>
		</g>
		<g>
			<g>
				<circle class="st6" cx="154.1" cy="129.4" r="3.6"/>
			</g>
		</g>
		<g>
			<g>
				<circle class="st7" cx="112.5" cy="49.7" r="3.6"/>
			</g>
		</g>
		<g>
			<g>
				<polygon class="st6" points="137.6,49 130.4,52.7 124.8,47 126,54.9 118.8,58.6 126.8,59.9 128,67.8 131.7,60.6 139.6,61.9 
					133.9,56.2 				"/>
			</g>
		</g>
		<g>
			<g>
				<polygon class="st4" points="136.1,109.4 134.3,114.8 128.8,114.8 133.3,117.8 131.5,122.9 136.1,119.6 140.6,122.8 
					138.9,117.8 143.4,114.8 137.8,114.8 				"/>
			</g>
		</g>
		<g>
			<g>
				<path class="st3" d="M123.3,91.3c18,0,21.8-11.5,24.9-20.7c2.5-7.7,4.5-13.7,13.2-13.7c1,0,1.8-0.8,1.8-1.8s-0.8-1.8-1.8-1.8
					c-11.2,0-14,8.2-16.6,16.2c-3.1,9.4-6,18.2-21.4,18.2c-1,0-1.8,0.8-1.8,1.8S122.3,91.3,123.3,91.3z"/>
			</g>
		</g>
		<g>
			<g>
				<path class="st5" d="M99.1,80.1c12.7-10.2,8.2-17,3.8-23.5c-2.4-3.7-5-7.5-5-12.3c0-1-0.8-1.8-1.8-1.8s-1.8,0.8-1.8,1.8
					c0,5.9,3,10.4,5.6,14.3c4.2,6.4,7,10.6-3.1,18.7c-0.8,0.6-0.9,1.8-0.3,2.5C97.2,80.6,98.3,80.7,99.1,80.1z"/>
			</g>
		</g>
		<g>
			<g>
				<path class="st7" d="M161.4,113.1c1,0,1.8-0.8,1.8-1.8c0-1-0.8-1.8-1.8-1.8c-5.2,0-9.3-2.8-13.3-5.4c-6.5-4.3-13.1-8.8-22.4,0.5
					c-0.7,0.7-0.7,1.9,0,2.6c0.7,0.7,1.9,0.7,2.6,0c7.2-7.2,11.4-4.3,17.8-0.1C150.3,109.9,155.1,113.1,161.4,113.1z"/>
			</g>
		</g>
		<g>
			<g>
				<path class="st3" d="M76.6,148.1c-16.5,7.4,3.4-1.5-13.2,5.9c-4-4.2-7.8-8.7-11.3-13.4c1.9-4.3,4.3-9.5,6.7-15
					C63.7,134,69.7,141.6,76.6,148.1z"/>
			</g>
		</g>
		<g>
			<path class="st6" d="M67.4,138.1l-9.6,9.6c-1.9-2.3-3.8-4.7-5.6-7.1c1.9-4.3,4.3-9.5,6.7-15C61.4,130,64.3,134.2,67.4,138.1z"/>
		</g>
		<g>
			<path class="st8" d="M90.3,115.3c11.7,11.7,25.2,17.9,29.8,13.3c4.6-4.6-1.4-17.9-13.3-29.8C94.9,86.9,81.6,81,77,85.5
				C71.7,90.8,80.6,105.5,90.3,115.3z"/>
		</g>
		<path class="st3" d="M87.7,121.3c-6.5-8.8-10.4-18-11.2-26.3c-0.9-2.5-1.2-4.8-0.9-6.7l-10.2,22.8c2.5,5.5,5.8,11,9.8,16.4
			c4.1,5.6,8.7,10.7,13.7,15.2l13.8-6.2C97.2,132.5,92.1,127.3,87.7,121.3z"/>
		<g>
			<path class="st1" d="M106.8,98.8l-16.5,16.5c-9.7-9.7-18.6-24.5-13.3-29.8C81.6,81,94.9,86.9,106.8,98.8z"/>
		</g>
		<path class="st6" d="M75.6,88.4l-10.2,22.8c2.5,5.5,5.8,11,9.8,16.4c0.4,0.5,0.8,1,1.2,1.6l9.8-9.8c-5.6-8.2-9-16.6-9.8-24.3
			C75.6,92.5,75.2,90.2,75.6,88.4z"/>
	</g>
</g>
</svg>
