<?xml version="1.0" encoding="utf-8"?>
<!-- Generator: Adobe Illustrator 23.0.0, SVG Export Plug-In . SVG Version: 6.00 Build 0)  -->
<svg version="1.1" id="Capa_1" xmlns="http://www.w3.org/2000/svg" xmlns:xlink="http://www.w3.org/1999/xlink" x="0px" y="0px"
	 viewBox="0 0 110 110" style="enable-background:new 0 0 110 110;" xml:space="preserve">
<style type="text/css">
	.st0{fill:#FF1529;}
	.st1{opacity:0.2;}
	.st2{fill:#231F20;}
	.st3{fill:#F5CF87;}
</style>
<g id="Artboard">
</g>
<g id="Layer_1">
	<rect x="0" class="st0" width="110" height="110"/>
</g>
<g class="st1">
	<path class="st2" d="M49.8,88.4c0,0-21.4-3.2-21.4-21.4s28-20,21.8-42.7c0,0,21,6.6,15.9,27c0,0,2.8-1.8,4.9-5.2
		c0,0,10.6,8.2,10.6,20.7S66.9,88.5,59.9,88.4c0,0,7.5-10.2,0.7-16.7C50.9,62.4,55,56.4,55,56.4S31.3,68,49.8,88.4z"/>
</g>
<g>
	<path class="st3" d="M49.8,85.7c0,0-21.4-3.2-21.4-21.4s28-20,21.8-42.7c0,0,21,6.6,15.9,27c0,0,2.8-1.8,4.9-5.2
		c0,0,10.6,8.2,10.6,20.7S66.9,85.8,59.9,85.7c0,0,7.5-10.2,0.7-16.7C50.9,59.7,55,53.7,55,53.7S31.3,65.3,49.8,85.7z"/>
</g>
</svg>
