<?xml version="1.0" encoding="utf-8"?>
<!-- Generator: Adobe Illustrator 23.0.0, SVG Export Plug-In . SVG Version: 6.00 Build 0)  -->
<svg version="1.1" id="Capa_1" xmlns="http://www.w3.org/2000/svg" xmlns:xlink="http://www.w3.org/1999/xlink" x="0px" y="0px"
	 viewBox="0 0 110 110" style="enable-background:new 0 0 110 110;" xml:space="preserve">
<style type="text/css">
	.st0{fill:#FFFFFF;}
	.st1{fill-rule:evenodd;clip-rule:evenodd;fill:#4D4D4D;}
	.st2{fill-rule:evenodd;clip-rule:evenodd;fill:#1A1A1A;}
	.st3{fill:#808080;}
	.st4{fill-rule:evenodd;clip-rule:evenodd;fill:#666666;}
	.st5{fill-rule:evenodd;clip-rule:evenodd;fill:#B4B4B4;}
	.st6{fill-rule:evenodd;clip-rule:evenodd;fill:#333333;}
	.st7{fill-rule:evenodd;clip-rule:evenodd;fill:#CCCCCC;}
	.st8{fill-rule:evenodd;clip-rule:evenodd;fill:#424242;}
	.st9{fill-rule:evenodd;clip-rule:evenodd;fill:#212121;}
	.st10{fill-rule:evenodd;clip-rule:evenodd;fill:#121212;}
	.st11{fill-rule:evenodd;clip-rule:evenodd;fill:#595959;}
	.st12{fill:none;}
</style>
<g id="Artboard">
</g>
<rect class="st0" width="110" height="110"/>
<g id="Body_9_">
	<g>
		<path class="st1" d="M88,96.2L88,96.2c0-0.3,0-0.5-0.1-0.8L86,70.3l-12-2H38l-12,2l-1.9,25c-0.5,3,1.4,6,4.4,6.8
			c3,0.8,6.1-0.8,7.2-3.7l6.4-8.1h28l6.4,8.1c0.9,2.3,3,3.9,5.6,3.9C85.3,102.3,88,99.6,88,96.2C88,96.2,88,96.2,88,96.2L88,96.2z"
			/>
	</g>
</g>
<g id="Touch_Pad">
	<g>
		<path class="st2" d="M48,74.3c0,2.2,1.8,4,4,4h8c2.2,0,4-1.8,4-4v-6H48C48,68.3,48,74.3,48,74.3z"/>
	</g>
</g>
<g id="Side_BTNs">
	<g>
		<path class="st1" d="M36,64.3h-4c-2.2,0-4,1.8-4,4v4c0,2.2,1.8,4,4,4h4c2.2,0,4-1.8,4-4v-4C40,66,38.2,64.3,36,64.3z M80,64.3h-4
			c-2.2,0-4,1.8-4,4v4c0,2.2,1.8,4,4,4h4c2.2,0,4-1.8,4-4v-4C84,66,82.2,64.3,80,64.3z"/>
	</g>
</g>
<g id="BTN">
	<g>
		<circle class="st3" cx="56" cy="82.3" r="2"/>
	</g>
</g>
<g id="Shapes">
	<g>
		<path class="st4" d="M46,78.3c-4.4,0-8,3.6-8,8c0,4.4,3.6,8,8,8c4.4,0,8-3.6,8-8C54,81.8,50.4,78.3,46,78.3z M66,78.3
			c-4.4,0-8,3.6-8,8c0,4.4,3.6,8,8,8c4.4,0,8-3.6,8-8C74,81.8,70.4,78.3,66,78.3z"/>
	</g>
</g>
<g id="Controllers">
	<g>
		<path class="st5" d="M66,82.3c-2.2,0-4,1.8-4,4c0,2.2,1.8,4,4,4c2.2,0,4-1.8,4-4C70,84,68.2,82.3,66,82.3z M46,82.3
			c-2.2,0-4,1.8-4,4c0,2.2,1.8,4,4,4s4-1.8,4-4C50,84,48.2,82.3,46,82.3z"/>
	</g>
</g>
<g id="Shape_1_">
	<g>
		<path class="st6" d="M34,66.3c-5.5,0-10,4.5-10,10c0,5.5,4.5,10,10,10c5.5,0,10-4.5,10-10C44,70.7,39.5,66.3,34,66.3z M78,66.3
			c-5.5,0-10,4.5-10,10c0,5.5,4.5,10,10,10c5.5,0,10-4.5,10-10C88,70.7,83.5,66.3,78,66.3z"/>
	</g>
</g>
<g id="BTNs_1_">
	<g>
		<path class="st7" d="M34,74.3c1.1,0,2-0.9,2-2c0-1.1-0.9-2-2-2c-1.1,0-2,0.9-2,2C32,73.4,32.9,74.3,34,74.3z M30,74.3
			c-1.1,0-2,0.9-2,2c0,1.1,0.9,2,2,2s2-0.9,2-2C32,75.2,31.1,74.3,30,74.3z M38,74.3c-1.1,0-2,0.9-2,2c0,1.1,0.9,2,2,2
			c1.1,0,2-0.9,2-2C40,75.2,39.1,74.3,38,74.3z M34,78.3c-1.1,0-2,0.9-2,2c0,1.1,0.9,2,2,2c1.1,0,2-0.9,2-2
			C36,79.2,35.1,78.3,34,78.3z M78,74.3c1.1,0,2-0.9,2-2c0-1.1-0.9-2-2-2c-1.1,0-2,0.9-2,2C76,73.4,76.9,74.3,78,74.3z M74,74.3
			c-1.1,0-2,0.9-2,2c0,1.1,0.9,2,2,2c1.1,0,2-0.9,2-2C76,75.2,75.1,74.3,74,74.3z M82,74.3c-1.1,0-2,0.9-2,2c0,1.1,0.9,2,2,2
			c1.1,0,2-0.9,2-2C84,75.2,83.1,74.3,82,74.3z M78,78.3c-1.1,0-2,0.9-2,2c0,1.1,0.9,2,2,2c1.1,0,2-0.9,2-2
			C80,79.2,79.1,78.3,78,78.3z"/>
	</g>
</g>
<g id="_134004304">
	<polygon id="_133627200" class="st8" points="48.8,45.8 63.2,45.8 64.1,53.6 47.9,53.6 	"/>
	<path id="_133626552" class="st9" d="M34.1,53.6h43.8c0.1,0,0.2,0.1,0.2,0.2v0.9c0,0.1-0.1,0.2-0.2,0.2H34.1
		c-0.1,0-0.2-0.1-0.2-0.2v-0.9C33.9,53.6,34,53.6,34.1,53.6z"/>
	<path id="_133626312" class="st9" d="M35.7,54.8h1.3v0.1c0,0.2-0.2,0.3-0.3,0.3h-0.7C35.9,55.2,35.7,55.1,35.7,54.8L35.7,54.8
		L35.7,54.8z"/>
	<path id="_133626408" class="st9" d="M75,54.8h1.3v0.1c0,0.2-0.2,0.3-0.3,0.3h-0.7C75.1,55.2,75,55.1,75,54.8L75,54.8L75,54.8z"/>
	<path id="_133653984" class="st10" d="M25.4,47h61.3c1,0,1.8-0.8,1.8-1.8V6.6c0-1-0.8-1.8-1.8-1.8H25.4c-1,0-1.8,0.8-1.8,1.8v38.6
		C23.6,46.1,24.4,47,25.4,47z"/>
	<g>
		<rect id="_133653816" x="26.4" y="7.7" class="st8" width="59.2" height="36.4"/>
		<polygon id="_133654272" class="st11" points="57.8,7.7 78.8,44.1 85.6,44.1 85.6,7.7 		"/>
	</g>
</g>
<line class="st12" x1="14.8" y1="71.2" x2="14.8" y2="-11.2"/>
<line class="st12" x1="97.2" y1="-11.2" x2="97.2" y2="71.2"/>
</svg>
