<?xml version="1.0" encoding="utf-8"?>
<!-- Generator: Adobe Illustrator 23.0.0, SVG Export Plug-In . SVG Version: 6.00 Build 0)  -->
<svg version="1.1" id="Capa_1" xmlns="http://www.w3.org/2000/svg" xmlns:xlink="http://www.w3.org/1999/xlink" x="0px" y="0px"
	 viewBox="0 0 110 110" style="enable-background:new 0 0 110 110;" xml:space="preserve">
<style type="text/css">
	.st0{fill:#0072AA;}
	.st1{fill:#CFD8DC;}
	.st2{fill:#B0BEC5;}
	.st3{fill:#ECEFF1;}
	.st4{fill:#4FC3F7;}
	.st5{fill:#81D4FA;}
	.st6{fill:#616161;}
</style>
<g id="Artboard">
</g>
<rect y="0" class="st0" width="110" height="110"/>
<g id="row_2">
	<g id="toilet">
		<path class="st1" d="M50.3,59.3c-1.7,0-3.4-0.4-4.8-1.2l-6-3.1c-1.2-0.5-2.3-0.9-3.6-0.9h-3c5.2,3.4,9.5,7.6,11.6,13h1.7
			c1,0,1.8-1,1.3-2.1c-0.5-1-1-2.1-2.1-3.4c-0.3-0.4,0-1,0.5-1h0.7c0.8,0,1.6,0.4,2.1,0.9l2.6,3.3c0.5,0.7,1.3,0.9,2.1,0.9h0.5
			c0.7,0,1.2,0.3,1.7,0.7c1.7,1.4,3.8,2.6,6,3.3c0.7,0.3,0.5,1.3-0.3,1.3L38.1,71v3.9h6.5c0.8,0,1.3,0.7,1.3,1.4
			c-0.1,3.1-0.8,6.9-1.8,9.4c-0.8,1.7,0.5,3.5,2.3,3.5h28.8c1.8,0,3.1-1.8,2.5-3.5c-1.2-3-1.8-6.1-1.8-9.5c0-2.1,0.3-4,0.8-6
			c0.4-1.7,1.6-3.3,3-4.3c2.3-1.7,4-4.4,4-6.6C83.6,59.3,50.3,59.3,50.3,59.3z"/>
		<path class="st2" d="M61.5,69.7c-2.2-0.8-4.2-1.8-6-3.3c-0.5-0.4-1-0.7-1.7-0.7h-0.5c-0.8,0-1.6-0.4-2.1-0.9l-2.6-3.3
			c-0.5-0.7-1.3-0.9-2.1-0.9h-0.7c-0.5,0-0.8,0.7-0.5,1c1,1.2,1.6,2.3,2.1,3.4c0.4,1-0.3,2.1-1.3,2.1h-1.7h-6.4v3.9h23.2
			C62,71,62.2,70,61.5,69.7z"/>
		<path class="st3" d="M39.5,55l6,3.1c1.4,0.8,3.1,1.2,4.8,1.2h33.3c0.9,0,1.8-0.5,2.1-1.4c0.1-0.3,0.3-0.5,0.3-0.8
			c0.4-0.9-0.3-1.8-1.2-1.8H48.9c-2.1,0-4-0.8-5.5-2.3l-2.2-2.2c-0.5-0.5-1.2-0.8-1.8-0.8h-9.1v0.8c0,1,0.4,2,1.2,2.6
			c0.4,0.4,0.9,0.5,1.4,0.5h3C37.2,54.1,38.3,54.3,39.5,55z"/>
		<path class="st4" d="M86.2,55.4H52.4v-1.3c0-0.8,0.5-1.3,1.3-1.3h31.2c0.8,0,1.3,0.5,1.3,1.3V55.4z"/>
		<path class="st5" d="M86.2,51.5H52.4v-1.3c0-0.8,0.5-1.3,1.3-1.3h31.2c0.8,0,1.3,0.5,1.3,1.3V51.5z"/>
		<rect x="40.7" y="26.7" class="st6" width="2.6" height="5.2"/>
		<path class="st1" d="M42.2,22.8h-1.6H25.1v27.3c0,0.8,0.5,1.3,1.3,1.3h12c1.3,0,2.5-1,2.6-2.3C41.3,43.7,42.2,30.4,42.2,22.8z"/>
		<path class="st5" d="M42,24.1H25.1c-0.8,0-1.3-0.5-1.3-1.3v-1.3c0-1.4,1.2-2.6,2.6-2.6l8.3,0.8c3.1,0.3,6,1.3,8.6,3.1l0,0
			C43.3,23.6,42.8,24.1,42,24.1z"/>
	</g>
</g>
</svg>
