<?xml version="1.0" encoding="utf-8"?>
<!-- Generator: Adobe Illustrator 23.0.0, SVG Export Plug-In . SVG Version: 6.00 Build 0)  -->
<svg version="1.1" id="Capa_1" xmlns="http://www.w3.org/2000/svg" xmlns:xlink="http://www.w3.org/1999/xlink" x="0px" y="0px"
	 viewBox="0 0 110 110" style="enable-background:new 0 0 110 110;" xml:space="preserve">
<style type="text/css">
	.st0{fill:#FFFFFF;}
	.st1{fill:#F85565;}
	.st2{fill:#F8DC25;}
</style>
<rect width="110" height="110"/>
<g id="Artboard">
</g>
<path class="st0" d="M38.8,77.7L30,78.5l-2.2-1.4l2-17.7L25.2,60v17l-8.8,1l-2.2-1.4l9.3-49.9l2.2,1.3l-0.3,21.2l4.3-0.3l7.3-22.2
	l2.2,1.4C39.2,28.2,38.8,65.8,38.8,77.7z"/>
<path class="st0" d="M95.4,40.3l-5.1,0.9l-0.5,37l-8.5,1.2L79,77.9l1.9-36.3l-5.8,0.2L73,40.3l21.6-13.1l2.4,1.3L95.4,40.3z"/>
<path class="st1" d="M36.6,76.3l-8.7,0.9L27.7,58l-4.6,0.6v17l-8.8,1c0-15.9-0.2-36-0.3-48c2-0.2,8.1-1.6,9.6-2l-0.3,21.2l4.3-0.3
	l-0.2-19.1c3.3-0.3,6.5-0.9,9.7-1.6C36.8,39.4,36.6,64.3,36.6,76.3z"/>
<path class="st1" d="M58.6,72.5c-10.2,0-16.9-7.3-16.9-16.9c0-10.4,6.5-16.9,16.9-16.9s16.9,7.4,16.9,17.2
	C75.4,66,68.4,72.5,58.6,72.5z M57,46.4c-1.9,0-2.8,1.2-2.8,3.4c0,4.5,2.7,15.2,6.3,15.2c1.9,0,2.9-1.2,2.9-4
	C63.4,57.2,60.3,46.4,57,46.4z"/>
<path class="st1" d="M93.2,38.9l-5.1,0.9l-0.5,37L79,78l-0.3-37.9l-5.8,0.2c0,0,1.1-7.7,1.9-12.4c6.7,0.1,13.3-0.2,20-0.9L93.2,38.9
	z"/>
<path class="st2" d="M58.6,76.1c-5.2,0.1-10.2-1.7-14.1-5.2l-2.9,18.5c-0.1,0.4,0.2,0.8,0.6,0.8c0.3,0,0.6-0.1,0.7-0.4l4.6-8.8
	l2.2,10.6c0,0.4,0.3,0.7,0.7,0.7c0.4,0,0.7-0.3,0.7-0.7l2.9-10.5l2.8,9.5c0,0.4,0.3,0.7,0.7,0.7c0.4,0,0.7-0.3,0.7-0.7l0,0
	c0.7-4.6,2-9.2,2.2-8.9c1.2,2.5,2.1,5.1,2.9,7.7c0,0.4,0.4,0.7,0.8,0.7c0.4,0,0.7-0.4,0.7-0.8l1.3-7.4l5.5,7.3
	c0.2,0.3,0.6,0.5,1,0.3c0.2-0.1,0.4-0.4,0.4-0.7l-2-16.4C67.3,74.9,62.9,76.2,58.6,76.1z"/>
<path class="st2" d="M43.9,40.4c3.5-3.4,8.5-5.3,14.6-5.3c4.1-0.1,8.1,1,11.5,3.2l2.7-17.2c0-0.4-0.3-0.7-0.7-0.8
	c-0.3,0-0.5,0.1-0.7,0.3l-4.6,8.8l-2.2-12.1c0-0.4-0.3-0.7-0.7-0.7s-0.7,0.3-0.7,0.7l-2.9,11.2l-2.7-10.9c0-0.4-0.3-0.7-0.7-0.7
	c-0.4,0-0.7,0.3-0.7,0.7c-0.7,4.6-2,12.1-2.2,11.7s-1.8-6.5-2.9-10.6c0-0.4-0.4-0.7-0.8-0.7c-0.4,0-0.7,0.4-0.7,0.8l-1.2,11.8
	l-5.5-9.4c-0.2-0.3-0.6-0.5-1-0.3c-0.2,0.1-0.4,0.4-0.4,0.7l2.2,18.7L43.9,40.4z"/>
</svg>
